<svg xmlns="http://www.w3.org/2000/svg" viewBox="0 0 46.99 9.82"><title>アセット 10</title><g id="レイヤー_2" data-name="レイヤー 2"><g id="情報"><path d="M0,6c0-.57.26-.77.63-.77s.47.19.77.35A8.76,8.76,0,0,0,4,6.58c.28,0,.43.2.4.43a.44.44,0,0,1-.52.38,8.25,8.25,0,0,1-2.73-.93c-.06,0-.12,0-.11,0A3,3,0,0,0,3.85,8.94c1.49,0,2.41-1.14,3-3.49C7.5,2.67,8.65,2.37,9,2.37a.4.4,0,0,1,.45.38.42.42,0,0,1-.21.34c-.23.18-.85.58-1.31,2.53-.66,2.81-1.94,4.2-4,4.2A3.73,3.73,0,0,1,0,6ZM2.79,3.09C2.79,1.93,4.18,1,6,.75A.45.45,0,0,0,6,.61.52.52,0,0,1,5.9.4.45.45,0,0,1,6.38,0c.29,0,.55.24.65.71,1.72.05,2.61.59,4.11.59S12.56.53,13,.53s.51.17.51.45a.4.4,0,0,1-.1.27,2.65,2.65,0,0,1-2.27,1c-1.7,0-2.51-.52-4.09-.58C6.81,3.05,5.52,4.46,4.31,4.46A1.34,1.34,0,0,1,2.79,3.09ZM6,1.66c-1.18.19-2.1.79-2.1,1.44a.46.46,0,0,0,.49.48C5,3.58,5.74,2.61,6,1.66Z"/><path d="M9.4,7.91A.38.38,0,0,1,9,7.56a.4.4,0,0,1,.06-.22A17.94,17.94,0,0,0,10.35,5V4.84a1.2,1.2,0,0,1,.89-1.28.47.47,0,0,1,.52.47,2.09,2.09,0,0,1-.33.84c.47.28,1.11.49,1.11,1,0,.72-1,1.55-1,2.45,0,.25.11.4.3.4.45,0,1-.63,1.52-1.4.14-.23.27-.4.48-.4a.38.38,0,0,1,.41.35.32.32,0,0,1-.07.22c-.67,1-1.54,2-2.47,2a1.06,1.06,0,0,1-1.17-1.12c0-.87.95-1.84.95-2.43,0-.22-.22-.34-.45-.46A22.3,22.3,0,0,1,9.89,7.51C9.75,7.75,9.61,7.91,9.4,7.91Z"/><path d="M18.41,6.94a.39.39,0,0,1,.41.35.4.4,0,0,1-.06.22,4,4,0,0,1-3.43,2c-1.29,0-2-.55-2-1.55a3.32,3.32,0,0,1,3-3.16c.84,0,1.32.34,1.32,1,0,.85-1.37,1.66-3.19,1.92a2.17,2.17,0,0,0,0,.26c0,.55.44.84,1,.84a2.85,2.85,0,0,0,2.47-1.38C18.07,7.11,18.21,6.94,18.41,6.94Zm-3.79,0c1.18-.24,2-.75,2-1.28,0-.14-.13-.22-.32-.22A2.22,2.22,0,0,0,14.62,6.92Z"/><path d="M21,4.75a1.07,1.07,0,0,1,1,.56.84.84,0,0,1,.7-.56.37.37,0,0,1,.42.38,2.49,2.49,0,0,1-.45.92,6.64,6.64,0,0,0-.75,2.27c0,.34.15.49.32.49.46,0,1.05-.7,1.54-1.47.14-.23.28-.4.49-.4a.38.38,0,0,1,.4.35.4.4,0,0,1-.06.22c-.67,1-1.55,2-2.5,2a1.12,1.12,0,0,1-1.2-.94,2.31,2.31,0,0,1-1.65.94,1.31,1.31,0,0,1-1.43-1.41A3.54,3.54,0,0,1,21,4.75Zm-1.51,4c.44,0,.89-.47,1.31-1.08A9.21,9.21,0,0,0,21.67,6c0-.33-.29-.52-.7-.52-.86,0-2,1.39-2,2.65C19,8.54,19.18,8.76,19.48,8.76Z"/><path d="M27.08,6.94a.39.39,0,0,1,.41.35.34.34,0,0,1-.07.22c-.67,1-1.56,2-2.51,2a1.15,1.15,0,0,1-1.3-1.23A8.49,8.49,0,0,1,24.5,5.4h-.34c-.25,0-.4-.1-.4-.33s.15-.32.4-.32h.63l.58-1.11c.36-.7.67-.93.9-.93s.45.15.45.38a2.43,2.43,0,0,1-.43.89l-.39.77h.48c.24,0,.38.13.38.31s-.15.34-.38.34h-.79a8.68,8.68,0,0,0-1,2.91c0,.36.17.5.42.5.46,0,1.05-.7,1.55-1.47C26.74,7.11,26.87,6.94,27.08,6.94Z"/><path d="M34.68,6.94a.39.39,0,0,1,.41.35.34.34,0,0,1-.07.22c-.67,1-1.56,2-2.5,2a1.06,1.06,0,0,1-1.17-1.12c0-.9,1-2,1-2.7,0-.1-.08-.16-.21-.16-.36,0-.92.64-1.3,1.14A9,9,0,0,0,29.68,9c-.08.24-.19.49-.57.49a.38.38,0,0,1-.41-.39,1.15,1.15,0,0,1,.06-.29c.25-.69.64-1.78.9-2.52a3.07,3.07,0,0,0,.14-.58.18.18,0,0,0-.2-.2c-.38,0-1,.65-1.41,1.17A7.74,7.74,0,0,0,27,9a.52.52,0,0,1-.52.43A.39.39,0,0,1,26,9.05a.91.91,0,0,1,.05-.26c.38-1.19.9-2.51,1.32-3.51A.65.65,0,0,1,28,4.81a.39.39,0,0,1,.44.38,1,1,0,0,1-.15.38l-.13.31c.58-.68,1.12-1.13,1.64-1.13a.85.85,0,0,1,1,.92.89.89,0,0,1,0,.22c.55-.68,1.08-1.14,1.59-1.14a.92.92,0,0,1,1,.94c0,.9-1,1.84-1,2.73,0,.25.12.39.3.39.46,0,1.05-.7,1.55-1.47C34.34,7.11,34.47,6.94,34.68,6.94Z"/><path d="M39.23,6.94a.38.38,0,0,1,.4.35.4.4,0,0,1-.06.22,4,4,0,0,1-3.42,2c-1.3,0-2-.55-2-1.55a3.32,3.32,0,0,1,3-3.16c.84,0,1.32.34,1.32,1,0,.85-1.37,1.66-3.19,1.92a2.17,2.17,0,0,0,0,.26c0,.55.44.84,1,.84a2.85,2.85,0,0,0,2.47-1.38C38.88,7.11,39,6.94,39.23,6.94Zm-3.8,0c1.18-.24,2-.75,2-1.28,0-.14-.13-.22-.32-.22A2.22,2.22,0,0,0,35.43,6.92Z"/><path d="M42.36,9.46a1.06,1.06,0,0,1-1.17-1.12c0-.9,1-2,1-2.7,0-.11-.08-.16-.21-.16-.48,0-1.19.73-1.69,1.32A7.25,7.25,0,0,0,39.12,9a.52.52,0,0,1-.52.43.39.39,0,0,1-.42-.41.87.87,0,0,1,0-.26c.39-1.19.91-2.51,1.32-3.51a.67.67,0,0,1,.62-.47c.28,0,.44.16.44.38a.94.94,0,0,1-.14.38l-.16.37a3.15,3.15,0,0,1,1.88-1.19.94.94,0,0,1,1,.94c0,.9-1,1.84-1,2.73,0,.25.12.39.29.39.46,0,1.06-.7,1.55-1.47.15-.23.28-.4.49-.4a.39.39,0,0,1,.41.35.41.41,0,0,1-.07.22C44.2,8.55,43.31,9.46,42.36,9.46Z"/><path d="M45.85,8.37a.44.44,0,0,1,.38-.26.27.27,0,0,1,.29.27,1.44,1.44,0,0,1-1.38,1.08,1.16,1.16,0,0,1-1.31-1.23,8.55,8.55,0,0,1,.9-2.83h-.35c-.24,0-.39-.1-.39-.33s.15-.32.39-.32H45l.57-1.11c.37-.7.68-.93.91-.93s.45.15.45.38a2.43,2.43,0,0,1-.43.89l-.39.77h.48c.24,0,.38.13.38.31s-.15.34-.38.34h-.8a8.86,8.86,0,0,0-1,2.91c0,.35.16.49.39.49A.82.82,0,0,0,45.85,8.37Z"/></g></g></svg>