<svg xmlns="http://www.w3.org/2000/svg" viewBox="0 0 30.39 9.98"><defs><style>.cls-1{fill:#f2ebdf}</style></defs><path class="cls-1" d="M4.81 2.05c-.48 1.59-2 3.36-3.34 3.36A1.3 1.3 0 0 1 0 4c0-1.43 2.05-2.88 3.91-3a1.28 1.28 0 0 0-.09-.44.29.29 0 0 1-.07-.17.44.44 0 0 1 .46-.39C4.6 0 5 .39 5 1.12a1.71 1.71 0 0 1 1.17 1.7 5.65 5.65 0 0 1 0 .58C7.05 2.24 8.36 1 9.48 1a1.44 1.44 0 0 1 1.59 1.53 5 5 0 0 1-.08.8C11.94 2.19 13.27 1 14.4 1A1.4 1.4 0 0 1 16 2.43c0 1.82-2.81 4.3-2.81 6.06 0 .44.22.7.55.7.53 0 1.26-.73 1.81-1.58.15-.23.28-.39.49-.39a.37.37 0 0 1 .4.35.43.43 0 0 1-.06.22C15.6 8.94 14.62 10 13.59 10A1.45 1.45 0 0 1 12 8.48c0-1.89 2.83-4.41 2.83-6.08a.5.5 0 0 0-.55-.54c-.89 0-2.28 1.26-3.21 2.56a12.61 12.61 0 0 0-1.22 2.13c-.41.81-.95 2-1.2 2.58s-.53.85-.83.85a.49.49 0 0 1-.53-.52 5.09 5.09 0 0 1 .93-1.93c.16-.32.7-1.44 1-2.36A8.32 8.32 0 0 0 10 2.52c0-.44-.23-.66-.6-.66-.85 0-2.16 1.29-3.1 2.59a12.6 12.6 0 0 0-1.23 2.1c-.41.81-1 2-1.2 2.58S3.32 10 3 10a.49.49 0 0 1-.53-.52 5.18 5.18 0 0 1 .92-1.93c.17-.32.71-1.44 1.06-2.36a7.49 7.49 0 0 0 .64-2.32 1 1 0 0 0-.28-.82zm-1-.25C2.46 1.92 1.05 3 1.05 4.07a.45.45 0 0 0 .46.5c.92 0 1.98-1.5 2.3-2.77z"/><path class="cls-1" d="M20.55 7.23a.38.38 0 0 1 .41.35.44.44 0 0 1-.07.22 3.94 3.94 0 0 1-3.42 2c-1.3 0-2-.55-2-1.55a3.32 3.32 0 0 1 3-3.16c.83 0 1.32.34 1.32 1 0 .84-1.38 1.66-3.19 1.92a2.09 2.09 0 0 0 0 .25c0 .55.44.85 1 .85a2.84 2.84 0 0 0 2.47-1.39c.14-.33.27-.49.48-.49zm-3.8 0c1.18-.25 2-.75 2-1.28 0-.14-.13-.22-.32-.22a2.23 2.23 0 0 0-1.68 1.48z"/><path class="cls-1" d="M23.68 9.75a1.06 1.06 0 0 1-1.16-1.12c0-.91 1-2 1-2.7 0-.11-.08-.16-.21-.16-.47 0-1.19.72-1.68 1.31a7.32 7.32 0 0 0-1.19 2.24.52.52 0 0 1-.52.43.39.39 0 0 1-.42-.41.63.63 0 0 1 .05-.26c.38-1.19.9-2.51 1.32-3.51a.66.66 0 0 1 .61-.48.39.39 0 0 1 .44.39.86.86 0 0 1-.14.37l-.15.38A3.12 3.12 0 0 1 23.51 5a.93.93 0 0 1 1 .93c0 .91-1 1.84-1 2.73 0 .26.12.4.3.4.46 0 1.05-.71 1.55-1.48.14-.23.27-.39.48-.39a.38.38 0 0 1 .41.35.36.36 0 0 1-.07.22c-.66 1.07-1.55 1.99-2.5 1.99z"/><path class="cls-1" d="M29.72 8.66a.46.46 0 0 1 .39-.27.27.27 0 0 1 .28.28 1.4 1.4 0 0 1-1.32 1.08 1.13 1.13 0 0 1-1.22-1 2.17 2.17 0 0 1-1.5 1 1.1 1.1 0 0 1-1.19-1.22A6.69 6.69 0 0 1 26 6c.36-.71.61-.93.93-.93a.38.38 0 0 1 .42.37 3 3 0 0 1-.56 1.16 5 5 0 0 0-.63 2c0 .35.19.48.33.48.41 0 .81-.46 1.23-1.06a12.63 12.63 0 0 0 1.05-2.08c.28-.68.54-.85.86-.85a.35.35 0 0 1 .37.31 3 3 0 0 1-.56 1.17 5.12 5.12 0 0 0-.63 2c0 .38.2.54.34.54s.42-.21.57-.45z"/></svg>