<svg xmlns="http://www.w3.org/2000/svg" viewBox="0 0 284.97 98.44"><defs><style>.cls-1{fill:#e5d7bf;}</style></defs><title>アセット 2</title><g id="レイヤー_2" data-name="レイヤー 2"><g id="情報"><path class="cls-1" d="M0,52.78C0,26.7,25.46,3.92,46.55,3.92A22.36,22.36,0,0,1,55,5.43C59.72,2.14,64.8,0,68.18,0c1.51,0,2,.62,2,1.51,0,1.07-.53,1.6-2.49,1.78a25.57,25.57,0,0,0-9.08,4,15.78,15.78,0,0,1,6.41,13.26c0,8-5.6,13.53-12.19,13.53-5.79,0-9.7-4.1-9.7-10s3.65-11.57,8.27-15.84a19.38,19.38,0,0,0-4.8-.63C28,7.65,5.34,28.93,5.34,52.78c0,13.53,7.92,21.89,20.2,21.89s24.93-7.38,32.4-18.78c0,0,.62-1,1.43-1a1.71,1.71,0,0,1,1.87,1.78,3.46,3.46,0,0,1-.36,1.15C52.33,70.94,39.07,78.5,25.37,78.5,10.77,78.5,0,69.16,0,52.78ZM55.27,9.88c-4.27,3.65-7.74,8.63-7.74,14.24,0,4.36,2.22,6.5,5.43,6.5,4.36,0,7.74-4.9,7.74-9.88S58.74,12,55.27,9.88Z"/><path class="cls-1" d="M102.88,55.89s.63-1,1.43-1a1.81,1.81,0,0,1,1.87,1.86,2.84,2.84,0,0,1-.36,1.16c-5.25,8-10.59,12.28-17.44,12.28A11.48,11.48,0,0,1,82,68.44c-3.74,3.74-8.37,6.14-13,6.14-7,0-12.1-4.36-12.1-12.72,0-13.26,12.1-24.92,22.52-24.92,7.12,0,11.48,4.27,11.48,11.66a28.25,28.25,0,0,1-6.14,16.73A6.32,6.32,0,0,0,89,66.75C93.54,66.75,98.08,63.19,102.88,55.89ZM79.3,40.59c-7.3,0-17.36,10.68-17.36,21.53,0,5.79,3.3,8.73,7.21,8.73,3.65,0,7.3-2.14,10.24-5.43a1.14,1.14,0,0,1-.09-.54,2.55,2.55,0,0,1,2.4-2.58,26.3,26.3,0,0,0,4.36-13.88C86.06,43.17,83.39,40.59,79.3,40.59Z"/><path class="cls-1" d="M146.49,55.89a1.74,1.74,0,0,1,3.3.81,2.4,2.4,0,0,1-.36,1.24c-5.52,8.55-12,16.64-19.31,16.64-4.63,0-7.66-3-7.66-8.18,0-7.92,8.37-16.47,8.37-22.7a2.85,2.85,0,0,0-3.12-3.11c-4.71,0-12.46,5.78-16.82,11-3.65,4.45-6.94,13.17-9.17,20.3-.35,1.15-.89,2.66-2.67,2.66a1.67,1.67,0,0,1-1.78-1.77,6.24,6.24,0,0,1,.36-2.14c3.47-10.68,8.19-22.43,11.93-31.42.62-1.51,1.6-2.31,2.84-2.31a1.92,1.92,0,0,1,2.14,2c0,1.07-.8,2.85-2.14,5.17l-1.24,3c5-5.43,11.48-10.14,16.64-10.14,4.36,0,7.57,2.84,7.57,7.12,0,7.56-8.19,15.13-8.19,23,0,2.58,1.42,4,3.65,4C135.55,71,141.42,63.73,146.49,55.89Z"/><path class="cls-1" d="M172.57,42.54c-.45-1.24-1.87-1.95-3.83-1.95-7,0-18.33,10.32-18.33,21.8,0,5.61,3.65,8.37,9.25,8.37,7.75,0,18.43-5.7,24.3-14.87,0,0,.62-1,1.43-1a1.77,1.77,0,0,1,1.86,1.86,2.82,2.82,0,0,1-.35,1.16c-6.32,9.79-17.09,16.64-27.77,16.64-8.81,0-13.8-4.27-13.8-12.28,0-13.88,13.53-25.36,23.5-25.36,5,0,8,3.11,8,7,0,5.16-3,9.08-5.16,9.08A2.37,2.37,0,0,1,169,50.64C169,49,170.08,46.37,172.57,42.54Z"/><path class="cls-1" d="M219.65,55.89s.62-1,1.42-1a1.77,1.77,0,0,1,1.87,1.86,3,3,0,0,1-.35,1.16c-6.23,9.61-16.2,16.64-26.35,16.64-8.63,0-13.44-4.27-13.44-12.1,0-14.69,13.09-25.54,22.61-25.54,5.34,0,8.45,2.67,8.45,7.38,0,7.21-11.39,13.89-25.81,15.22-.09,1-.18,2.05-.18,3,0,5.43,3.57,8.19,8.82,8.19C204,70.76,213.86,64.88,219.65,55.89Zm-30.71,0c11.48-1.42,20.12-6.76,20.12-12.1,0-2-1.52-3.2-3.74-3.2C199.89,40.59,191.79,47,188.94,55.89Z"/><path class="cls-1" d="M229,44.15l-1.33,3.11c5.43-6,11.74-10.32,16.73-10.32,6.14,0,10,3.73,10,10.14,0,8.55-4.54,18.52-11.57,23.59a33.68,33.68,0,0,0,21.63-14.78s.62-1,1.42-1a1.71,1.71,0,0,1,1.87,1.78,4.28,4.28,0,0,1-.36,1.24C261.83,66.49,251,74.58,234.6,74.58a16.39,16.39,0,0,1-8.72-2c-2-1.25-3-2.49-3-3.74A1.78,1.78,0,0,1,224.63,67c.89,0,1.16.36,2.05,1.25a8.68,8.68,0,0,0,6.14,2.67c8.45,0,16.73-12.64,16.73-24,0-4-2-6.32-5.25-6.32-4.72,0-12.46,5.78-16.82,11-4.1,5-7.3,14-9.61,20.3l-8.82,24.2c-.44,1.34-1.06,2.32-2.49,2.32a2,2,0,0,1-2-2,5.61,5.61,0,0,1,.44-2.14c6-16.55,15.75-42.27,21.18-55.09.63-1.51,1.61-2.31,2.85-2.31a1.92,1.92,0,0,1,2.14,2C231.13,40.05,230.33,41.74,229,44.15Z"/><path class="cls-1" d="M278.3,66.22a1.71,1.71,0,0,1,1.42-1.07,1.49,1.49,0,0,1,1.43,1.51c0,2.5-4.37,7.92-9.53,7.92-5.43,0-8.9-3.38-8.9-10,0-5.61,3.56-15.13,7.74-24.21h-4.18c-1.42,0-2.31-.54-2.31-1.78s.89-1.69,2.31-1.69h5.88c1.6-3.3,3.29-6.59,4.8-9.44,2.76-5.34,4.19-7.56,5.52-7.56a2.13,2.13,0,0,1,2.4,2.13c0,1.52-1.33,4.19-3.82,8.19l-3.39,6.68h5.08c1.42,0,2.22.71,2.22,1.6,0,1.24-.89,1.87-2.22,1.87H276c-4.45,9.43-8.36,19.13-8.36,24.83,0,4.09,1.95,5.79,4.54,5.79C274.56,71,276.78,68.8,278.3,66.22Z"/></g></g></svg>