<svg xmlns="http://www.w3.org/2000/svg" viewBox="0 0 48.98 10.37"><path d="M7.55 7.27c-.76 2.07-2 3.1-3.79 3.1A3.52 3.52 0 0 1 0 6.83C0 6 .4 5.57.89 5.57a2.27 2.27 0 0 1 .85.19 10.17 10.17 0 0 0 3.93.91 6.8 6.8 0 0 0 1-.08c.09-.28.18-.56.25-.87.7-2.91 1.92-3.23 2.26-3.23s.47.15.47.37-.08.21-.24.33S8.45 3.81 8 5.9l-.1.38a6.84 6.84 0 0 0 1.31-.61 1.82 1.82 0 0 1 .9-.36.38.38 0 0 1 .38.43.93.93 0 0 1-.13.4 2.78 2.78 0 0 0-.22.89c0 .35-.17.59-.47.59s-.48-.18-.48-.56a2.08 2.08 0 0 1 .01-.46 8.38 8.38 0 0 1-1.65.67zm-3.8 2.21a2.81 2.81 0 0 0 2.59-2 5.37 5.37 0 0 1-.7 0 10.76 10.76 0 0 1-3.89-.74 1.49 1.49 0 0 0-.5-.15c-.12 0-.17.06-.17.19a2.71 2.71 0 0 0 2.67 2.7zM2.37 3.09C2.37 1.92 3.75 1 5.58.75a.45.45 0 0 0-.06-.14.52.52 0 0 1 0-.21A.45.45 0 0 1 6 0c.29 0 .55.24.65.71 1.72.05 2.61.59 4.12.59s1.36-.77 1.79-.77.51.17.51.45a.4.4 0 0 1-.1.27 2.65 2.65 0 0 1-2.27 1c-1.7 0-2.5-.52-4.09-.58-.23 1.38-1.52 2.79-2.73 2.79a1.33 1.33 0 0 1-1.51-1.37zm3.17-1.43c-1.18.19-2.1.79-2.1 1.44a.46.46 0 0 0 .49.48c.6 0 1.38-.97 1.61-1.92zm9.16 7.81a2.7 2.7 0 0 1-.7-.09 2.64 2.64 0 0 1-1.63.63 1.55 1.55 0 0 1-1.77-1.59 3.3 3.3 0 0 1 3-3.12c1.08 0 1.71.56 1.71 1.53a3.23 3.23 0 0 1-.77 2h.26a1.65 1.65 0 0 0 1.33-.93c.14-.23.27-.4.48-.4a.39.39 0 0 1 .41.35.34.34 0 0 1-.07.22 2.65 2.65 0 0 1-2.25 1.4zM13.58 6c-.75 0-1.83 1.2-1.83 2.42 0 .56.32.84.71.84a1.33 1.33 0 0 0 .81-.35.24.24 0 0 1 0-.15.55.55 0 0 1 .56-.5 2.86 2.86 0 0 0 .43-1.48C14.21 6.27 14 6 13.58 6z"/><path d="M19.34 8.92a.44.44 0 0 1 .38-.26.27.27 0 0 1 .29.27 1.38 1.38 0 0 1-1.3 1.07 1.06 1.06 0 0 1-1.17-1.12c0-.88 1-1.87 1-2.48 0-.18-.18-.32-.38-.41A21.35 21.35 0 0 1 17 8.06c-.14.23-.27.4-.48.4a.38.38 0 0 1-.41-.35.34.34 0 0 1 .07-.22 18.68 18.68 0 0 0 1.28-2.35v-.15a1.2 1.2 0 0 1 .89-1.28.46.46 0 0 1 .52.47 2.18 2.18 0 0 1-.32.84c.45.26 1 .47 1 1 0 .74-1 1.66-1 2.58 0 .24.1.38.27.38s.36-.22.52-.46zm13.4-1.65c-.76 2.07-2 3.1-3.79 3.1a3.52 3.52 0 0 1-3.76-3.54c0-.83.4-1.26.89-1.26a2.31 2.31 0 0 1 .85.19 10.17 10.17 0 0 0 3.93.91 6.8 6.8 0 0 0 1-.08c.09-.28.17-.56.25-.87.69-2.91 1.92-3.23 2.26-3.23s.47.15.47.37-.08.21-.24.33-1 .62-1.48 2.71l-.1.38a6.84 6.84 0 0 0 1.31-.61 1.79 1.79 0 0 1 .9-.36.38.38 0 0 1 .38.43.93.93 0 0 1-.13.4 2.78 2.78 0 0 0-.22.89c0 .35-.17.59-.48.59s-.47-.18-.47-.56a2.08 2.08 0 0 1 .06-.46 8.38 8.38 0 0 1-1.63.67zm-3.8 2.21a2.81 2.81 0 0 0 2.59-2 5.48 5.48 0 0 1-.7 0 10.76 10.76 0 0 1-3.89-.74 1.49 1.49 0 0 0-.5-.15c-.12 0-.17.06-.17.19a2.71 2.71 0 0 0 2.67 2.7zm-1.39-6.39c0-1.17 1.39-2.12 3.22-2.34a.45.45 0 0 0-.06-.14.52.52 0 0 1-.05-.21.45.45 0 0 1 .48-.4c.29 0 .55.24.65.71 1.72.05 2.61.59 4.12.59s1.41-.77 1.84-.77.51.17.51.45a.4.4 0 0 1-.1.27 2.65 2.65 0 0 1-2.27 1c-1.7 0-2.5-.52-4.09-.58-.23 1.43-1.52 2.84-2.73 2.84a1.34 1.34 0 0 1-1.52-1.42zm3.18-1.43c-1.18.19-2.1.79-2.1 1.44a.46.46 0 0 0 .49.48c.6 0 1.38-.97 1.61-1.92zm5.48 6.8a.38.38 0 0 1-.41-.35.41.41 0 0 1 .07-.22 18.65 18.65 0 0 0 1.29-2.35v-.15c0-.77.51-1.28.89-1.28a.47.47 0 0 1 .52.47 2.09 2.09 0 0 1-.33.84c.47.28 1.11.49 1.11 1 0 .72-1 1.55-1 2.45 0 .25.11.4.3.4.45 0 1-.63 1.51-1.4.15-.23.28-.4.49-.4a.37.37 0 0 1 .34.57c-.67 1-1.54 1.95-2.48 1.95a1.06 1.06 0 0 1-1.16-1.12c0-.87.94-1.84.94-2.43 0-.22-.22-.34-.45-.46a22.11 22.11 0 0 1-1.14 2.08c-.15.23-.28.4-.49.4z"/><path d="M45.22 7.49a.39.39 0 0 1 .41.35.34.34 0 0 1-.07.22A3.94 3.94 0 0 1 42.14 10c-1.3 0-2-.55-2-1.55a3.32 3.32 0 0 1 3-3.16c.84 0 1.32.34 1.32 1 0 .85-1.38 1.66-3.19 1.92a2.17 2.17 0 0 0 0 .26c0 .55.44.84 1 .84a2.87 2.87 0 0 0 2.48-1.38c.13-.27.25-.44.47-.44zm-3.79 0c1.17-.24 2-.75 2-1.28 0-.14-.13-.22-.32-.22a2.22 2.22 0 0 0-1.68 1.48z"/><path d="M47.62 8.76c.17-.21.32-.31.47-.31a.39.39 0 0 1 .41.41c0 .38-.89 1.16-2.07 1.16s-1.78-.55-1.78-1.56a3.32 3.32 0 0 1 3-3.16c.84 0 1.32.34 1.32 1 0 .85-1.37 1.66-3.19 1.92a2.17 2.17 0 0 0 0 .26.76.76 0 0 0 .8.84 1.35 1.35 0 0 0 1.04-.56zM46 7.47c1.18-.24 2-.75 2-1.28 0-.14-.14-.22-.32-.22A2.22 2.22 0 0 0 46 7.47z"/></svg>