<svg xmlns="http://www.w3.org/2000/svg" viewBox="0 0 35.28 63.9"><title>アセット 1</title><g id="レイヤー_2" data-name="レイヤー 2"><g id="情報"><path d="M19.35,20.52c-9,10.71-13.5,13.86-16.29,13.86C1.26,34.38,0,33.3,0,32s.63-2,2.25-3c2.25-1.26,5.94-4.32,10.35-9.27,3.06-3.42,6-6.75,8.28-9.72C26,3.24,28.35,0,31.23,0c2.34,0,4.05,1.53,4.05,3.42,0,.81-.81,3-2.43,6.3-3.33,6.93-7.47,17.55-11.43,27.72-3.24,8.19-5.58,15.21-7.29,20.88-1,3.6-2.52,5.58-5.85,5.58-2.7,0-4-2.16-3.69-4.41.27-1.8,1.62-6.3,6-17.64,3.15-7.92,6.12-14.94,9.18-21.15Z"/></g></g></svg>