<svg xmlns="http://www.w3.org/2000/svg" viewBox="0 0 192.59 95.74"><defs><style>.cls-1{fill:none;}.cls-1,.cls-2{stroke:#000;stroke-linecap:round;stroke-linejoin:round;}</style></defs><title>アセット 4</title><g id="レイヤー_2" data-name="レイヤー 2"><g id="情報"><path d="M48.53,74.4h3l2.2,4.37V76.1a1.6,1.6,0,0,0,0-.43.31.31,0,0,0-.15-.18.85.85,0,0,0-.35,0h-.37v-1H56v1h-.34a.78.78,0,0,0-.36.06.31.31,0,0,0-.16.16,1.76,1.76,0,0,0,0,.44v5.8H53.51l-2.78-5.53v3.86a1.26,1.26,0,0,0,0,.43.29.29,0,0,0,.14.15,1,1,0,0,0,.36,0h.36v1h-3.1v-1h.32a1,1,0,0,0,.37,0,.34.34,0,0,0,.15-.16.69.69,0,0,0,.06-.33V76a.8.8,0,0,0,0-.36.35.35,0,0,0-.14-.17.8.8,0,0,0-.31,0h-.4Z"/><path d="M48.49,88.25h3.66v1h-.34a1,1,0,0,0-.37,0,.33.33,0,0,0-.15.16,1.53,1.53,0,0,0,0,.46v1.3H54v-1.4a.94.94,0,0,0,0-.35.28.28,0,0,0-.14-.18,1.45,1.45,0,0,0-.45,0h-.29v-1h3.67v1h-.3a1,1,0,0,0-.42,0,.26.26,0,0,0-.14.15,1.48,1.48,0,0,0,0,.47V94a1.49,1.49,0,0,0,.05.48.28.28,0,0,0,.16.16,1.49,1.49,0,0,0,.48,0h.21v1H53.06v-1h.25a1.14,1.14,0,0,0,.45-.06.26.26,0,0,0,.17-.15A1.49,1.49,0,0,0,54,94V92.43H51.25V94a2.11,2.11,0,0,0,0,.47.29.29,0,0,0,.17.17,1.35,1.35,0,0,0,.45,0h.25v1H48.49v-1h.25a1.11,1.11,0,0,0,.44-.06.28.28,0,0,0,.17-.15,1.14,1.14,0,0,0,0-.42V90a1.65,1.65,0,0,0,0-.5.34.34,0,0,0-.14-.17.85.85,0,0,0-.38,0h-.34Z"/><path d="M105.23,66.15h3.66v1h-.33a.79.79,0,0,0-.38.06.33.33,0,0,0-.15.16,1.45,1.45,0,0,0,0,.45v1.31h2.73v-1.4a1.33,1.33,0,0,0,0-.35.28.28,0,0,0-.15-.18,1.35,1.35,0,0,0-.45,0h-.28v-1h3.66v1h-.3a1.22,1.22,0,0,0-.42,0,.4.4,0,0,0-.14.15,1.57,1.57,0,0,0,0,.47v4.06a1.57,1.57,0,0,0,.05.49.35.35,0,0,0,.16.16,1.6,1.6,0,0,0,.48,0h.21v1h-3.66v-1h.24a1.52,1.52,0,0,0,.46,0,.31.31,0,0,0,.16-.16,1.49,1.49,0,0,0,0-.48V70.33H108v1.58a2.11,2.11,0,0,0,0,.47.3.3,0,0,0,.17.18,1.45,1.45,0,0,0,.45,0h.25v1h-3.66v-1h.25a1.41,1.41,0,0,0,.44,0,.36.36,0,0,0,.17-.15,1.25,1.25,0,0,0,0-.43V67.9a1.7,1.7,0,0,0,0-.5.32.32,0,0,0-.14-.16.82.82,0,0,0-.38-.06h-.34Z"/><path d="M140.06,66.15h3.66v1h-.34a.82.82,0,0,0-.38.06.27.27,0,0,0-.14.16,1.35,1.35,0,0,0-.05.45v1.31h2.73v-1.4a1.33,1.33,0,0,0,0-.35.28.28,0,0,0-.15-.18,1.27,1.27,0,0,0-.45,0h-.28v-1h3.67v1H148a1.15,1.15,0,0,0-.41,0,.36.36,0,0,0-.15.15,2,2,0,0,0,0,.47v4.06a1.24,1.24,0,0,0,.06.49.29.29,0,0,0,.15.16,1.6,1.6,0,0,0,.48,0h.22v1h-3.67v-1h.24a1.47,1.47,0,0,0,.46,0,.33.33,0,0,0,.17-.16,1.6,1.6,0,0,0,0-.48V70.33h-2.73v1.58a1.48,1.48,0,0,0,0,.47.29.29,0,0,0,.16.18,1.53,1.53,0,0,0,.45,0h.26v1h-3.66v-1h.25a1.34,1.34,0,0,0,.43,0,.32.32,0,0,0,.17-.15A1,1,0,0,0,141,72V67.9a1.41,1.41,0,0,0-.05-.5.28.28,0,0,0-.14-.16.79.79,0,0,0-.38-.06h-.33Z"/><path d="M116,71.58l-.49,0a1.14,1.14,0,0,1,.14-.86,1.3,1.3,0,0,1,.51-.43,1.74,1.74,0,0,1,.77-.17,1.63,1.63,0,0,1,.7.15,1.21,1.21,0,0,1,.47.38.85.85,0,0,1,.16.5,1.21,1.21,0,0,1-.11.49,1.78,1.78,0,0,1-.41.49,13.34,13.34,0,0,1-1.14.76h.82a.68.68,0,0,0,.26,0,.22.22,0,0,0,.09-.08.56.56,0,0,0,.07-.21l0-.11h.47l-.22,1.25h-.32l0-.12h-2.25v-.47a14.82,14.82,0,0,0,1.25-1,1.93,1.93,0,0,0,.52-.55.7.7,0,0,0,.1-.36.46.46,0,0,0-.18-.37.73.73,0,0,0-.48-.15.86.86,0,0,0-.38.08.67.67,0,0,0-.26.24.59.59,0,0,0-.09.32A1,1,0,0,0,116,71.58Z"/><path d="M121,66.15h3l2.19,4.37V67.84a1.79,1.79,0,0,0,0-.43.45.45,0,0,0-.15-.18.88.88,0,0,0-.35,0h-.37v-1h3.09v1H128a.83.83,0,0,0-.37.06.33.33,0,0,0-.15.16,1.41,1.41,0,0,0,0,.44v5.8h-1.54l-2.79-5.52V72a1.57,1.57,0,0,0,0,.42.36.36,0,0,0,.15.15,1,1,0,0,0,.36,0h.36v1H121v-1h.32a1,1,0,0,0,.36,0,.35.35,0,0,0,.16-.16.77.77,0,0,0,.06-.34v-4.3a1.06,1.06,0,0,0,0-.36.42.42,0,0,0-.15-.17.71.71,0,0,0-.3,0H121Z"/><path d="M179,38.31a4,4,0,0,1,2.89,1.08,3.71,3.71,0,0,1,1.1,2.79,4,4,0,0,1-.5,2,3.52,3.52,0,0,1-1.39,1.37,4.49,4.49,0,0,1-2.15.48,4,4,0,0,1-2.72-.92A3.68,3.68,0,0,1,175,42.2a3.75,3.75,0,0,1,1.12-2.8A4,4,0,0,1,179,38.31Zm0,1.19a1.62,1.62,0,0,0-1.36.64,3.23,3.23,0,0,0-.64,2.08,3.16,3.16,0,0,0,.59,2,1.76,1.76,0,0,0,2.7,0,3.16,3.16,0,0,0,.6-2,3.84,3.84,0,0,0-.26-1.5,2,2,0,0,0-.69-.91A1.62,1.62,0,0,0,179.07,39.5Z"/><path d="M184.35,38.44H188v1h-.34a.82.82,0,0,0-.38.06.27.27,0,0,0-.14.16,1.35,1.35,0,0,0-.05.45v1.31h2.73v-1.4a1.33,1.33,0,0,0,0-.35.28.28,0,0,0-.15-.18,1.27,1.27,0,0,0-.45-.05h-.28v-1h3.67v1h-.31a1.11,1.11,0,0,0-.41.05.36.36,0,0,0-.15.15,2,2,0,0,0,0,.47V44.2a1.24,1.24,0,0,0,.06.49.29.29,0,0,0,.15.16,1.6,1.6,0,0,0,.48,0h.22v1h-3.67v-1h.24a1.47,1.47,0,0,0,.46,0,.33.33,0,0,0,.17-.16,1.6,1.6,0,0,0,0-.48V42.62H187.1V44.2a1.48,1.48,0,0,0,0,.47.29.29,0,0,0,.16.18,1.53,1.53,0,0,0,.45,0H188v1h-3.66v-1h.25a1.38,1.38,0,0,0,.43,0,.32.32,0,0,0,.17-.15,1.25,1.25,0,0,0,.05-.43V40.19a1.7,1.7,0,0,0-.05-.5.28.28,0,0,0-.14-.16.79.79,0,0,0-.38-.06h-.33Z"/><path d="M156.2,1.16a4,4,0,0,1,2.89,1.08A3.78,3.78,0,0,1,160.19,5a4.1,4.1,0,0,1-.5,2,3.55,3.55,0,0,1-1.4,1.37,4.45,4.45,0,0,1-2.14.48A4,4,0,0,1,153.43,8a3.72,3.72,0,0,1-1.28-2.95,3.73,3.73,0,0,1,1.12-2.8A4,4,0,0,1,156.2,1.16Zm0,1.19a1.66,1.66,0,0,0-1.36.64,3.28,3.28,0,0,0-.63,2.08,3.14,3.14,0,0,0,.59,2,1.74,1.74,0,0,0,2.7,0,3.21,3.21,0,0,0,.59-2,3.85,3.85,0,0,0-.25-1.5,2,2,0,0,0-.69-.91A1.65,1.65,0,0,0,156.22,2.35Z"/><polyline class="cls-1" points="60.37 77.74 79.03 73.92 82.22 45.51 56.2 33.7 36.92 54.8 46.19 71.13"/><polygon class="cls-1" points="19.71 0.5 0.5 21.53 9.11 48.68 36.92 54.8 56.13 33.77 47.53 6.62 19.71 0.5"/><line class="cls-1" x1="42.99" y1="11.58" x2="21.74" y2="6.91"/><line class="cls-1" x1="6.97" y1="22.95" x2="13.57" y2="43.79"/><polyline class="cls-1" points="131.56 45.51 106.89 31.27 82.22 45.51"/><polyline class="cls-1" points="171.49 40.09 156.22 31.27 131.56 45.51"/><polygon class="cls-2" points="126.65 62.66 131.56 45.51 121.66 60.65 126.65 62.66"/><line class="cls-1" x1="132.37" y1="49.12" x2="136.46" y2="46.98"/><line class="cls-1" x1="133.85" y1="51.97" x2="137.95" y2="49.84"/><line class="cls-1" x1="135.34" y1="54.82" x2="139.43" y2="52.69"/><line class="cls-1" x1="136.82" y1="57.67" x2="140.92" y2="55.54"/><line class="cls-1" x1="138.31" y1="60.53" x2="142.4" y2="58.39"/><line class="cls-1" x1="153.84" y1="32.65" x2="153.84" y2="12"/><line class="cls-1" x1="158.6" y1="32.65" x2="158.6" y2="12"/><line class="cls-1" x1="73.64" y1="68.82" x2="75.92" y2="48.53"/><line class="cls-1" x1="57.32" y1="40.09" x2="43.55" y2="55.16"/></g></g></svg>