<svg xmlns="http://www.w3.org/2000/svg" viewBox="0 0 60.48 64.35"><path d="M47.07 15.75c1.44-3.06 2.7-6 3.87-8.19 1.71-3.33 3.87-4.86 6.3-4.86a3.08 3.08 0 0 1 3.24 3.06c0 1.08-1 3.33-2.61 6.57-3.15 6.48-7.56 16.38-11.34 26-.45 1.08-.81 2.16-1.26 3.15a12.47 12.47 0 0 0 6.39-2.79c1.8-1.71 3.33-3.06 5-3.06 2 0 3.15.9 3.15 2.88 0 2.43-4.77 8.73-17.1 10-1.35 3.78-2.43 7.2-3.33 10.26-1 3.6-2.79 5.58-5.85 5.58-2.7 0-3.87-2.16-3.6-4.41a75.11 75.11 0 0 1 3.51-11.43c-7.38-.81-14.94-3.42-21.6-3.42-4.77 0-5.67.9-7.74.9-2.34 0-4-1.17-4-3.33 0-1.44 1.35-2.61 3.06-3.87C15.75 30.24 25.47 17.1 26.82 6.12 27.27 2.61 29.07 0 32.22 0a4 4 0 0 1 3.87 4.32c0 10.62-9.45 24.84-21.33 34.56 7.2.54 14.13 2.88 21.06 3.24l1.44-3.69c3.42-8.82 6.66-16.02 9.81-22.68z"/></svg>