<svg xmlns="http://www.w3.org/2000/svg" viewBox="0 0 142.47 51.54"><path d="M118 11a7.1 7.1 0 0 0-2-.29c-2 0-3.92 1.55-4.85 3l.49-3.2c0-.18 0-.38-.18-.4L101 8.5c-.18 0-.34.21-.41.64l-.69 4.54c0 .26.07.38.27.42l3.14.47-1.24 8.17-3.25-.49c-.09 0-.24.11-.27.33l-.73 4.79c0 .18.05.45.16.47l13.9 2.16a.39.39 0 0 0 .35-.36l.77-4.84c0-.18 0-.42-.15-.44l-3.13-.47.64-4.18c.38-2.5 2.19-3.64 3-3.51a1.84 1.84 0 0 1 1.42 1.18c.39.72 1.1 2 2.36 2.21s2.85-1.05 3.25-3.67-1.12-4.53-2.39-4.92zM27.38 29.8l-2.77.94-6.15-18.16c-.15-.45-.28-.6-.45-.55l-2.3.78a.8.8 0 0 0-.43.57L14.71 17a8 8 0 0 0-6.86-1.67h-.08a16 16 0 0 0-2.71.95C-.72 18.78-.42 25.11.55 28c2.21 6.54 7.11 8.29 11.25 6.89 2.92-1 3.88-4.65 4.19-5.84l1.4 4.14-2.85 1c-.33.11-.27.59-.09 1.11l1.2 3.55c.17.49.37.81.53.75L29 35.23c.33-.11.57-.27.45-.62l-1.32-3.9c-.25-.71-.46-1.01-.75-.91zm-14.52-1.13c-1.24.41-3.27-.45-4.2-3.2-.86-2.53.1-4.47 1.34-4.89 1.12-.37 3.21.55 4.06 3.05s.14 4.58-1.2 5.04zM80.9 18h-2.29c-.11 0-.17.15-.17.33s-.09 2.94-1.43 2.94c-1.1 0-1.32-1.8-1.32-2v-5.4c0-3.56-1.4-5.26-3.93-6-3.67-1.34-10.92-.51-10.92-.51-3.45.35-5.51 1.42-5.51 4.43 0 2.72 1.89 3.42 2.55 3.42a3.63 3.63 0 0 0 3.3-1.4c1.15-1.48 2.21-2.13 3.73-2.13.77 0 2.83.37 2.83 1.87 0 1-1.76 1.47-2.63 1.47H62c-.82 0-6.77.77-6.77 6.17s5.38 5.77 7.6 5.77a5.83 5.83 0 0 0 5-3.64c.43 1.45 1.47 3.1 2.89 3.48 0 0 2.25.91 6.23 0 1.79-.37 4.05-2.74 4.05-8.6 0-.11-.06-.2-.1-.2zm-13.34 1a2.7 2.7 0 0 1-2.83 2.38c-.3 0-1.1-.08-1.1-.89 0-1.35 2.3-2.22 2.45-2.28.64-.21 1.52.06 1.48.85zm69.14-2.89a24.36 24.36 0 0 0-4.91-1.68l-.35-.08c-2.58-.52-8.83-.89-11.32 6.47-3 8.84 4.65 12 8 13.19l1.92.65c6.52 2.2 9.76-2.56 10.81-4.25.06-.1.13-.43 0-.48l-4.09-1.38c-.05 0-.14 0-.25.11a3.73 3.73 0 0 1-4.34.81l-1.73-.58a3.65 3.65 0 0 1-2.4-4.88l13.26 4.48c.28.1.42 0 .48-.15l.21-.62c1.78-5.26-1.77-9.91-5.29-11.61zm-7.43 5.05A2.83 2.83 0 0 1 133 20a2.89 2.89 0 0 1 1.82 3zM97.81 18c0-.36 0-.55-.21-.56l-2.09-.13c-.22 0-.3.47-.36.83-.48 2.46-1.15 3.93-2.29 3.86s-1.39-2.1-1.32-3.17l.31-5.2 3.55.21c.22 0 .43-.34.44-.6l.24-4c0-.63-.27-.72-.5-.73l-3.41-.2.44-7.51c0-.37-.11-.56-.29-.57L88.5 0c-.11 0-.26.35-.32.72-1 5.42-2.52 7.17-5.62 7l-1.12-.06c-.18 0-.3.2-.33.64l-.26 4.33a.33.33 0 0 0 .31.38l3.14.19-.51 8.47c-.26 4.47 2.54 5.63 3.21 5.67a25.29 25.29 0 0 0 5.41.27 2.32 2.32 0 0 0 .38-.06c3.79-.88 4.92-7.9 5.02-9.55zM53 21.3l-3.1.37-1.61-13.34c0-.22-.13-.47-.24-.45l-10.78 1.3c-.12 0-.2.14-.17.39l.58 4.85c0 .18.14.39.27.38l3.3-.4.23 1.86c.44 3.68.22 6.15-2.46 6.47s-3.18-1.06-3.56-4.23l-.93-7.69c-.12-1-.25-1.27-.5-1.24L24 10.79c-.31 0-.55.25-.46.94l.54 4.49c0 .14.07.25.25.23l3.1-.38.83 6.86c.44 3.7 1.53 5.91 3.85 6.36a5.53 5.53 0 0 0 1.1.08 18 18 0 0 0 5.24-.63l.43-.12a3.82 3.82 0 0 0 1.48-.78 6.27 6.27 0 0 0 2.18-2.68l.32 2.69c0 .19.16.36.32.34l10.57-1.28c.18 0 .27-.22.22-.66l-.56-4.63a.34.34 0 0 0-.41-.32zM20.49 40.36h3.4v3.85h3.71v-3.85H31v11h-3.4v-4.45h-3.71v4.44h-3.4zM40 49.54h-3.83l-.53 1.81h-3.47l4.13-11H40l4.13 11h-3.55zm-.7-2.38l-1.22-3.95-1.2 3.95zm6.06-6.8h3.4v11h-3.4zm5.88 10.99v-11h5.67a8.27 8.27 0 0 1 2.41.27 2.56 2.56 0 0 1 1.34 1 3.38 3.38 0 0 1 .12 3.38 3.16 3.16 0 0 1-1.07 1.08 4.12 4.12 0 0 1-1.2.43 3.41 3.41 0 0 1 .89.41 3.89 3.89 0 0 1 .54.57 4.44 4.44 0 0 1 .48.69l1.64 3.18h-3.84L56.41 48a2.56 2.56 0 0 0-.62-.84 1.41 1.41 0 0 0-.83-.26h-.3v4.46zm3.42-6.54h1.43a5 5 0 0 0 .9-.15.87.87 0 0 0 .55-.34 1.05 1.05 0 0 0 .22-.64 1 1 0 0 0-.34-.82 2.07 2.07 0 0 0-1.27-.28h-1.49zm13.66-4.45h5.05a6.06 6.06 0 0 1 2.41.4 4 4 0 0 1 1.52 1.16 4.89 4.89 0 0 1 .87 1.77 8.18 8.18 0 0 1 .27 2.13 7.53 7.53 0 0 1-.4 2.73 4.52 4.52 0 0 1-1.12 1.63 3.49 3.49 0 0 1-1.53.87 7.85 7.85 0 0 1-2 .3h-5.07zm3.4 2.49v6h.83a3.43 3.43 0 0 0 1.51-.24 1.62 1.62 0 0 0 .71-.82 5.24 5.24 0 0 0 .23-1.9 3.72 3.72 0 0 0-.57-2.4 2.41 2.41 0 0 0-1.89-.64zm8.5-2.49h9.1v2.35h-5.7v1.74h5.29v2.25h-5.29v2.16h5.87v2.49h-9.27zm10.51 7.36l3.27-.21a2.38 2.38 0 0 0 .43 1.2 1.78 1.78 0 0 0 1.5.67A1.65 1.65 0 0 0 97 49a1 1 0 0 0 .39-.79 1 1 0 0 0-.37-.77 4.45 4.45 0 0 0-1.74-.63 7.38 7.38 0 0 1-3.19-1.34 2.67 2.67 0 0 1-1-2.12 2.84 2.84 0 0 1 .49-1.6 3.24 3.24 0 0 1 1.48-1.19 6.86 6.86 0 0 1 2.7-.43A5.57 5.57 0 0 1 99 41a3.43 3.43 0 0 1 1.31 2.5l-3.2.19a1.51 1.51 0 0 0-1.67-1.42 1.35 1.35 0 0 0-.89.25.77.77 0 0 0-.3.61.59.59 0 0 0 .25.47 2.77 2.77 0 0 0 1.14.41 14.17 14.17 0 0 1 3.19 1 3.33 3.33 0 0 1 1.4 1.22 3 3 0 0 1 .44 1.63 3.5 3.5 0 0 1-.58 1.95 3.72 3.72 0 0 1-1.64 1.35 6.56 6.56 0 0 1-2.65.46c-1.87 0-3.16-.36-3.88-1.08a4.22 4.22 0 0 1-1.19-2.82zm11.82-7.36H106v11h-3.4zm11.37 7.01v-2.29h5.25v4.69a10.61 10.61 0 0 1-2.66 1.4 9 9 0 0 1-2.75.37 6.67 6.67 0 0 1-3.2-.67 4.52 4.52 0 0 1-1.91-2 6.56 6.56 0 0 1-.68-3 6.32 6.32 0 0 1 .75-3.14 4.83 4.83 0 0 1 2.17-2 7.19 7.19 0 0 1 3-.53 8.53 8.53 0 0 1 2.73.33 3.59 3.59 0 0 1 1.5 1 4.71 4.71 0 0 1 .89 1.76l-3.28.59a1.73 1.73 0 0 0-.68-.95 2.16 2.16 0 0 0-1.24-.33 2.21 2.21 0 0 0-1.78.77 3.77 3.77 0 0 0-.66 2.46 3.84 3.84 0 0 0 .67 2.55 2.36 2.36 0 0 0 1.87.76A3.6 3.6 0 0 0 115 49a6.11 6.11 0 0 0 1.18-.56v-1zm7.29-7.01h3.18l4.14 6.08v-6.08h3.2v11h-3.2l-4.12-6v6h-3.2z"/></svg>