<svg xmlns="http://www.w3.org/2000/svg" viewBox="0 0 24.6 9.79"><path d="M7 7.18c.14-.23.28-.39.48-.39a.38.38 0 0 1 .41.35.36.36 0 0 1-.07.22 5.3 5.3 0 0 1-4.4 2.43A3.1 3.1 0 0 1 0 6.62a6.51 6.51 0 0 1 5.92-6 4.12 4.12 0 0 1 .82.09A3.12 3.12 0 0 1 8.42 0c.34 0 .51.17.51.44s-.13.27-.56.41a3.14 3.14 0 0 0-.59.26 1.87 1.87 0 0 1 .74 1.51 1.73 1.73 0 0 1-1.71 1.8A1.36 1.36 0 0 1 5.3 3a2.54 2.54 0 0 1 .62-1.59c-2.15 0-4.78 2.45-4.78 5.18A2.17 2.17 0 0 0 3.5 8.91 4.36 4.36 0 0 0 7 7.18zm0-5.49A1.94 1.94 0 0 0 6.35 3c0 .36.19.55.47.55s.67-.48.67-.94A1.06 1.06 0 0 0 7 1.69z"/><path d="M11 8.77a2.68 2.68 0 0 1-.72-.09 2.66 2.66 0 0 1-1.63.63A1.55 1.55 0 0 1 7 7.71a3.3 3.3 0 0 1 3-3.11c1.07 0 1.71.56 1.71 1.53a3.32 3.32 0 0 1-.77 2h.25a1.67 1.67 0 0 0 1.34-.94c.14-.23.27-.39.48-.39a.38.38 0 0 1 .41.35.44.44 0 0 1-.07.22A2.68 2.68 0 0 1 11 8.77zM9.93 5.32c-.76 0-1.83 1.2-1.83 2.43 0 .56.32.83.71.83a1.26 1.26 0 0 0 .8-.34.31.31 0 0 1 0-.15.54.54 0 0 1 .56-.5 2.92 2.92 0 0 0 .43-1.48c-.04-.54-.29-.79-.67-.79z"/><path d="M13.57 9.31a1.13 1.13 0 0 1-1.26-1.23c0-1.07 1.13-3.51 2-5.1.31-.59.67-.93.9-.93a.4.4 0 0 1 .44.4 10.08 10.08 0 0 1-1.34 2.73 8.89 8.89 0 0 0-.94 2.93c0 .36.17.54.39.54.46 0 1.06-.7 1.56-1.47.14-.23.27-.39.48-.39a.38.38 0 0 1 .41.35.36.36 0 0 1-.07.22c-.72 1.03-1.62 1.95-2.57 1.95z"/><path d="M19.28 8.77a2.68 2.68 0 0 1-.72-.09 2.66 2.66 0 0 1-1.63.63 1.55 1.55 0 0 1-1.74-1.6 3.3 3.3 0 0 1 3-3.11c1.08 0 1.72.56 1.72 1.53a3.32 3.32 0 0 1-.77 2h.25a1.66 1.66 0 0 0 1.33-.94c.15-.23.28-.39.49-.39a.38.38 0 0 1 .41.35.44.44 0 0 1-.07.22 2.68 2.68 0 0 1-2.27 1.4zm-1.11-3.45c-.76 0-1.84 1.2-1.84 2.43 0 .56.32.83.72.83a1.29 1.29 0 0 0 .8-.34.31.31 0 0 1 0-.15.54.54 0 0 1 .56-.5 3 3 0 0 0 .43-1.48c-.04-.54-.29-.79-.67-.79z"/><path d="M23.93 8.22a.45.45 0 0 1 .38-.22.28.28 0 0 1 .29.28 1.39 1.39 0 0 1-1.3 1.08 1.06 1.06 0 0 1-1.17-1.12c0-.89 1-1.88 1-2.48 0-.19-.19-.32-.38-.42a22.72 22.72 0 0 1-1.18 2.07c-.14.23-.28.4-.49.4a.38.38 0 0 1-.4-.36.46.46 0 0 1 .06-.22A16.72 16.72 0 0 0 22 4.84v-.15a1.2 1.2 0 0 1 .89-1.28.46.46 0 0 1 .52.46 2.21 2.21 0 0 1-.32.85c.45.25 1 .46 1 1 0 .73-1 1.66-1 2.57 0 .24.1.39.28.39s.4-.22.56-.46z"/></svg>