<svg xmlns="http://www.w3.org/2000/svg" viewBox="0 0 114.05 156.9"><path d="M18.07 17.66v36.15M.38 35.73h27.79m-17.25-7.14l14.29 14.29m-1.58-12.71L10.92 42.88m94.46 58.61v33.33m-10.52-15.25h18.81m-15.43-7.14l14.29 14.28m-1.59-12.7l-10.07 10.08" stroke="#000" stroke-width=".75" fill="none" stroke-linecap="round" stroke-miterlimit="10"/><path d="M58.87 2c-.14-2.25-.75-2-.75-2s-.62-.27-.76 2c-4.49 72.92-17.24 109.25-17.24 133.15 0 9.94 8.06 21.75 18 21.75s18-11.81 18-21.75c0-23.9-12.76-60.23-17.25-133.15z"/><path d="M63.4 74c2.71 16 6 35.84 7.42 46.21m1.05 10.96c.47 6.43-3 14.15-6.62 17.17" stroke="#fff" stroke-width="1.89" fill="none" stroke-linecap="round" stroke-miterlimit="10"/></svg>