<svg xmlns="http://www.w3.org/2000/svg" viewBox="0 0 24.39 11.96"><defs><style>.cls-1{fill:#f2ebdf}</style></defs><path class="cls-1" d="M3.54 8.43A1.93 1.93 0 0 0 5.6 6.51C5.6 5.07 4 4.35 4 2.75A2.6 2.6 0 0 1 6.79.36 2.9 2.9 0 0 1 7.7.5 3 3 0 0 1 9.12 0c.25 0 .42.12.42.34s-.09.31-.47.41a2.69 2.69 0 0 0-.53.2 1.55 1.55 0 0 1 .53 1.16 1.68 1.68 0 0 1-1.58 1.72 1.2 1.2 0 0 1-1.31-1.22 2.18 2.18 0 0 1 .62-1.39 1.54 1.54 0 0 0-1.6 1.43c0 1.34 1.6 2.1 1.6 3.74A3.07 3.07 0 0 1 3.54 9.3 3.28 3.28 0 0 1 0 5.9c0-.54.25-.8.55-.8a1.42 1.42 0 0 1 .87.38 5.23 5.23 0 0 0 2.07.91.4.4 0 0 1 .39.43.41.41 0 0 1-.49.36 5.66 5.66 0 0 1-2.21-.81c-.09-.06-.16 0-.15.08a2.49 2.49 0 0 0 2.51 1.98zm4.22-7a1.55 1.55 0 0 0-.63 1.15c0 .27.13.44.38.44s.59-.43.59-.94a.78.78 0 0 0-.34-.62z"/><path class="cls-1" d="M11.12 6.58a.38.38 0 0 1 .41.35.36.36 0 0 1-.07.22C10.79 8.19 9.9 9.1 9 9.1a1.15 1.15 0 0 1-1.3-1.23A8.49 8.49 0 0 1 8.54 5H8.2c-.25 0-.4-.1-.4-.33s.15-.32.4-.32h.63l.58-1.11c.36-.71.67-.94.9-.94a.4.4 0 0 1 .45.39 2.5 2.5 0 0 1-.43.89l-.39.77h.48c.24 0 .38.13.38.31s-.15.34-.38.34h-.79a8.64 8.64 0 0 0-1 2.9c0 .37.17.51.42.51.46 0 1.05-.7 1.55-1.48.18-.19.31-.35.52-.35z"/><path class="cls-1" d="M13.7 4.39a1.07 1.07 0 0 1 1 .56.84.84 0 0 1 .7-.56.37.37 0 0 1 .42.37 2.43 2.43 0 0 1-.45.93A6.53 6.53 0 0 0 14.62 8c0 .34.14.5.32.5.46 0 1-.7 1.54-1.48.14-.23.27-.39.48-.39a.38.38 0 0 1 .41.35.36.36 0 0 1-.07.22c-.67 1-1.55 1.95-2.49 1.95a1.12 1.12 0 0 1-1.2-.95 2.35 2.35 0 0 1-1.61.9 1.32 1.32 0 0 1-1.43-1.41 3.54 3.54 0 0 1 3.13-3.3zm-1.51 4c.44 0 .89-.46 1.31-1.07a10.24 10.24 0 0 0 .88-1.71.63.63 0 0 0-.71-.53c-.86 0-2 1.4-2 2.65 0 .44.22.66.52.66z"/><path class="cls-1" d="M18.39 8.57a3.14 3.14 0 0 1 .08.67c0 1.46-.94 2.72-1.88 2.72a1 1 0 0 1-1.11-1.19 11.61 11.61 0 0 1 .73-3.1 38.07 38.07 0 0 1 1.91-4.46c.47-.93 1.12-1.37 1.68-1.37a1 1 0 0 1 1.06 1c0 1.39-1.53 3.32-3.3 4.25a2.06 2.06 0 0 1 .58.73.68.68 0 0 0 .21 0A2.17 2.17 0 0 0 20 7c.14-.23.28-.39.49-.39a.37.37 0 0 1 .4.35.43.43 0 0 1-.06.22 3.19 3.19 0 0 1-2.44 1.39zm-1-.26a3 3 0 0 1-.31-.31 10.5 10.5 0 0 0-.62 2.7c0 .37.08.51.27.51.41 0 .85-.94.85-2a2.81 2.81 0 0 0-.15-.9zM19 3.44c-.42.86-.87 1.83-1.28 2.81A5.39 5.39 0 0 0 20 2.81c0-.23-.07-.3-.17-.3s-.44.19-.83.93z"/><path class="cls-1" d="M20.12 12A1 1 0 0 1 19 10.77a12 12 0 0 1 .73-3.1 38.07 38.07 0 0 1 1.91-4.46c.47-.93 1.12-1.37 1.68-1.37a1 1 0 0 1 1.06 1c0 1.43-1.64 3.45-3.48 4.34l-.23.66a10.89 10.89 0 0 0-.67 2.9c0 .37.08.51.27.51.46 0 1-1 1-2.15a1.72 1.72 0 0 0-.23-1 .39.39 0 0 1-.12-.28.35.35 0 0 1 .37-.3.52.52 0 0 1 .44.21 1.78 1.78 0 0 1 .43 1.36c-.04 1.55-1.03 2.91-2.04 2.91zm1.17-5.71a5.43 5.43 0 0 0 2.21-3.48c0-.23-.08-.3-.18-.3s-.4.19-.76.93-.87 1.83-1.27 2.81z"/></svg>