<svg xmlns="http://www.w3.org/2000/svg" viewBox="0 0 62 10.01"><defs><style>.cls-1{fill:#f4aa5a;}</style></defs><title>アセット 15</title><g id="レイヤー_2" data-name="レイヤー 2"><g id="情報"><path class="cls-1" d="M6.24,8.41v-.1A4.45,4.45,0,0,1,2.87,10,2.66,2.66,0,0,1,0,7.22C0,5,1.72,2.87,3.81,1.77V1.66C3.81.8,4.3.27,4.68.27A.42.42,0,0,1,5.14.7.73.73,0,0,1,5,1a1.36,1.36,0,0,0-.12.33A5.34,5.34,0,0,1,6.67,1a2.38,2.38,0,0,1,2.1.89c.22-.41.46-.61.71-.61a.45.45,0,0,1,.48.49,5.18,5.18,0,0,1-.94,2c-.19.37-.8,1.67-1.23,2.76a5.64,5.64,0,0,0-.47,1.94c0,.44.23.68.55.68.56,0,1.33-.67,1.84-1.5.15-.22.28-.38.48-.38a.36.36,0,0,1,.4.35.53.53,0,0,1-.13.33C9.79,8.94,8.78,10,7.72,10A1.42,1.42,0,0,1,6.24,8.41ZM7.73,4.19a3,3,0,0,1-1.08.21A2.73,2.73,0,0,1,4,2.74,5.76,5.76,0,0,0,1.11,7.22,1.81,1.81,0,0,0,3,9.13a4.25,4.25,0,0,0,3.13-2A11.44,11.44,0,0,0,7.33,5.08C7.46,4.81,7.59,4.5,7.73,4.19ZM5,2.25a1.74,1.74,0,0,0,1.7,1.29c.79,0,1.37-.43,1.37-.9s-.47-.76-1.29-.76A4.69,4.69,0,0,0,5,2.25Z"/><path class="cls-1" d="M13.33,9.74a1.06,1.06,0,0,1-1.16-1.13c0-.9,1-2,1-2.69,0-.11-.08-.17-.21-.17-.47,0-1.19.73-1.69,1.32a7.2,7.2,0,0,0-1.18,2.24.52.52,0,0,1-.52.43.39.39,0,0,1-.42-.41.68.68,0,0,1,0-.27c.38-1.18.9-2.5,1.32-3.5a.66.66,0,0,1,.61-.48.39.39,0,0,1,.44.39.86.86,0,0,1-.14.37l-.16.38A3.14,3.14,0,0,1,13.16,5a.93.93,0,0,1,1,.93c0,.9-1,1.84-1,2.73,0,.25.12.4.29.4.47,0,1.06-.71,1.56-1.48.14-.23.27-.39.48-.39a.38.38,0,0,1,.41.35.44.44,0,0,1-.07.22C15.17,8.82,14.28,9.74,13.33,9.74Z"/><path class="cls-1" d="M18.62,9.74a1.06,1.06,0,0,1-1.16-1.13c0-.9,1-2,1-2.69,0-.11-.08-.17-.21-.17-.47,0-1.19.73-1.68,1.32a7.21,7.21,0,0,0-1.19,2.24.52.52,0,0,1-.52.43.39.39,0,0,1-.42-.41.68.68,0,0,1,.05-.27c.38-1.18.9-2.5,1.32-3.5a.66.66,0,0,1,.61-.48.39.39,0,0,1,.44.39.86.86,0,0,1-.14.37l-.15.38A3.12,3.12,0,0,1,18.45,5a.93.93,0,0,1,1,.93c0,.9-1,1.84-1,2.73,0,.25.12.4.3.4.46,0,1-.71,1.55-1.48.14-.23.27-.39.48-.39a.38.38,0,0,1,.41.35.36.36,0,0,1-.07.22C20.46,8.82,19.57,9.74,18.62,9.74Z"/><path class="cls-1" d="M24,9.74a1.13,1.13,0,0,1-1.23-1,2.17,2.17,0,0,1-1.5,1,1.11,1.11,0,0,1-1.19-1.23A6.7,6.7,0,0,1,21,6c.36-.71.61-.93.93-.93a.37.37,0,0,1,.42.37,3,3,0,0,1-.56,1.16,5.12,5.12,0,0,0-.63,2c0,.35.19.48.33.48.41,0,.82-.46,1.23-1.07a12.25,12.25,0,0,0,1.05-2.08c.29-.67.54-.84.86-.84a.35.35,0,0,1,.38.36,3,3,0,0,1-.56,1.17,5.12,5.12,0,0,0-.63,2c0,.39.21.55.37.55.46,0,1-.71,1.55-1.48.14-.23.27-.39.48-.39a.38.38,0,0,1,.41.35.36.36,0,0,1-.07.22C25.87,8.82,25,9.74,24,9.74Z"/><path class="cls-1" d="M28.78,5a1,1,0,0,1,1,.56.84.84,0,0,1,.7-.56c.27,0,.42.15.42.37a2.43,2.43,0,0,1-.45.93,6.53,6.53,0,0,0-.75,2.26c0,.34.14.5.32.5.46,0,1-.71,1.54-1.48.14-.23.27-.39.48-.39a.38.38,0,0,1,.41.35.36.36,0,0,1-.07.22c-.67,1-1.55,2-2.49,2a1.12,1.12,0,0,1-1.2-1,2.35,2.35,0,0,1-1.65,1,1.32,1.32,0,0,1-1.43-1.41A3.54,3.54,0,0,1,28.78,5ZM27.27,9c.44,0,.89-.46,1.31-1.08a9.13,9.13,0,0,0,.88-1.7.63.63,0,0,0-.71-.53c-.85,0-2,1.4-2,2.65C26.75,8.81,27,9,27.27,9Z"/><path class="cls-1" d="M33.3,8.65a.45.45,0,0,1,.38-.27.28.28,0,0,1,.29.28,1.44,1.44,0,0,1-1.36,1.08A1.13,1.13,0,0,1,31.35,8.5c0-1.06,1.13-3.51,2-5.09.31-.59.67-.94.9-.94a.41.41,0,0,1,.44.41,10.08,10.08,0,0,1-1.34,2.73h0a8.89,8.89,0,0,0-.94,2.93c0,.36.16.54.36.54A.83.83,0,0,0,33.3,8.65Z"/><path class="cls-1" d="M44.06,3.48C45,2.31,46.43,1,47.82,1a1.71,1.71,0,0,1,1.93,1.8c0,2.47-2.24,5.1-4.55,5.1-1.19,0-1.89-.52-1.89-.85a.48.48,0,0,1,.46-.48.59.59,0,0,1,.38.16,1.73,1.73,0,0,0,1,.31c1.65,0,3.48-2.3,3.48-4.25a.81.81,0,0,0-.87-.92c-1,0-2.39,1.29-3.42,2.52A9.7,9.7,0,0,0,43,6.52c-.41.82-.94,2-1.19,2.59S41.27,10,41,10a.48.48,0,0,1-.5-.52,5.27,5.27,0,0,1,.92-1.94c.17-.32.71-1.43,1.06-2.35a7.11,7.11,0,0,0,.61-2.26,1.09,1.09,0,0,0-.33-.85c-.46,1.59-2,3.36-3.32,3.36A1.3,1.3,0,0,1,37.94,4c0-1.46,2-2.91,3.9-3a1.15,1.15,0,0,0-.08-.47.29.29,0,0,1-.07-.18A.44.44,0,0,1,42.15,0c.39,0,.74.38.74,1.12v0a1.76,1.76,0,0,1,1.22,1.7A4,4,0,0,1,44.06,3.48ZM41.74,1.8C40.39,1.91,39,3,39,4.07a.45.45,0,0,0,.47.5C40.35,4.57,41.42,3.07,41.74,1.8Z"/><path class="cls-1" d="M51.93,5a1,1,0,0,1,1,.56A.84.84,0,0,1,53.64,5a.36.36,0,0,1,.41.37,2.43,2.43,0,0,1-.45.93,6.53,6.53,0,0,0-.75,2.26c0,.34.15.5.32.5.47,0,1-.71,1.54-1.48.15-.23.28-.39.49-.39a.37.37,0,0,1,.4.35.43.43,0,0,1-.06.22c-.67,1-1.55,2-2.5,2a1.12,1.12,0,0,1-1.2-1,2.31,2.31,0,0,1-1.65,1,1.32,1.32,0,0,1-1.43-1.41A3.54,3.54,0,0,1,51.93,5ZM50.42,9c.44,0,.89-.46,1.31-1.08a8.57,8.57,0,0,0,.88-1.7c0-.33-.28-.53-.7-.53-.86,0-2,1.4-2,2.65C49.91,8.81,50.13,9,50.42,9Z"/><path class="cls-1" d="M56,9.74c-1.2,0-1.82-.57-1.82-1.2a2.1,2.1,0,0,1,.46-.93A16,16,0,0,0,55.9,5.29V5.14c0-.73.47-1.23.88-1.23s.57.19.57.47a2.59,2.59,0,0,1-.45,1c.26.8,1,1.64,1,2.64a1.33,1.33,0,0,1-.17.67,4.41,4.41,0,0,0,1.07-1.12c.14-.23.27-.39.48-.39a.38.38,0,0,1,.41.35.44.44,0,0,1-.07.22A4.46,4.46,0,0,1,56,9.74Zm.3-3.38a15.58,15.58,0,0,1-.84,1.43,1.2,1.2,0,0,0-.26.67.7.7,0,0,0,.76.59.89.89,0,0,0,.89-.94A4,4,0,0,0,56.33,6.36Z"/><path class="cls-1" d="M58.29,8.54a2.1,2.1,0,0,1,.46-.93A16,16,0,0,0,60,5.29V5.14a1.13,1.13,0,0,1,.88-1.23c.38,0,.57.19.57.47a2.59,2.59,0,0,1-.45,1c.26.8,1,1.64,1,2.64a1.69,1.69,0,0,1-1.92,1.68C58.9,9.74,58.29,9.17,58.29,8.54Zm2.12-2.18c-.24.47-.52.94-.83,1.43a1.16,1.16,0,0,0-.27.67.7.7,0,0,0,.76.59A.89.89,0,0,0,61,8.11,3.88,3.88,0,0,0,60.41,6.36Z"/></g></g></svg>