<svg xmlns="http://www.w3.org/2000/svg" viewBox="0 0 15.41 9.79"><path d="M7 7.18c.14-.23.28-.39.48-.39a.38.38 0 0 1 .41.35.36.36 0 0 1-.07.22 5.3 5.3 0 0 1-4.4 2.43A3.1 3.1 0 0 1 0 6.62a6.51 6.51 0 0 1 5.92-6 4.12 4.12 0 0 1 .82.09A3.12 3.12 0 0 1 8.42 0c.34 0 .51.17.51.44s-.13.27-.56.41a3.14 3.14 0 0 0-.59.26 1.87 1.87 0 0 1 .74 1.51 1.73 1.73 0 0 1-1.71 1.8A1.36 1.36 0 0 1 5.3 3a2.54 2.54 0 0 1 .62-1.59c-2.15 0-4.78 2.45-4.78 5.18A2.17 2.17 0 0 0 3.5 8.91 4.36 4.36 0 0 0 7 7.18zm0-5.49A1.94 1.94 0 0 0 6.35 3c0 .36.19.55.47.55s.67-.48.67-.94A1.06 1.06 0 0 0 7 1.69z"/><path d="M10.77 9.31a1.12 1.12 0 0 1-1.22-1 2.17 2.17 0 0 1-1.55 1 1.11 1.11 0 0 1-1.15-1.22 6.69 6.69 0 0 1 .86-2.56c.36-.71.62-.93.94-.93a.37.37 0 0 1 .41.4 3 3 0 0 1-.56 1.13 5.08 5.08 0 0 0-.62 2c0 .35.18.48.33.48.4 0 .81-.46 1.23-1.06a13 13 0 0 0 1-2.08c.29-.68.54-.85.86-.85a.36.36 0 0 1 .39.36 3.13 3.13 0 0 1-.56 1.17 5 5 0 0 0-.63 2c0 .39.21.55.36.55.46 0 1.06-.71 1.55-1.48.15-.23.28-.39.49-.39a.37.37 0 0 1 .4.35.43.43 0 0 1-.06.22c-.63.99-1.51 1.91-2.47 1.91z"/><path d="M14.27 8.22a.45.45 0 0 1 .38-.22.28.28 0 0 1 .29.28 1.45 1.45 0 0 1-1.38 1.08 1.16 1.16 0 0 1-1.31-1.23 8.74 8.74 0 0 1 .89-2.83h-.34c-.24 0-.39-.1-.39-.33s.15-.32.39-.32h.64L14 3.49c.37-.71.68-.94.91-.94a.4.4 0 0 1 .45.39 2.5 2.5 0 0 1-.43.89l-.39.77H15c.24 0 .38.13.38.31s-.15.34-.38.34h-.8a8.82 8.82 0 0 0-1 2.9c0 .35.16.5.39.5a.82.82 0 0 0 .68-.43z"/></svg>