<svg xmlns="http://www.w3.org/2000/svg" viewBox="0 0 55.44 63.81"><title>アセット 5</title><g id="レイヤー_2" data-name="レイヤー 2"><g id="情報"><path d="M27.9,14c0,1,.18,1.26.18,1.8,0,2.34-1.62,3.69-4.41,3.69-2.43,0-5-1.71-5-5.67C18.72,6.21,29.7,0,40.14,0c10.17,0,15.3,4.77,15.3,10.8,0,5.58-4,11-14.13,15.66,5.85,1.35,9.27,5.67,9.27,11.88,0,12.33-12.06,25.47-28.8,25.47C5.49,63.81,0,53.55,0,50.58a4.11,4.11,0,0,1,4.14-4.32c2.61,0,3.87,1,5.76,4.59,2.07,3.87,5.76,6.57,11.88,6.57,11.07,0,19.53-10.08,19.53-19.89,0-4.23-2.07-6.39-5.4-6.39a12.59,12.59,0,0,0-4,.63,7.81,7.81,0,0,1-2.52.45A3.1,3.1,0,0,1,26.28,29c0-1.08,1.26-1.71,4.41-3.06,8.82-3.69,15.12-9.72,15.12-15.3,0-2.79-2-4.68-6.12-4.68C33.66,5.94,27.9,9.72,27.9,14Z"/></g></g></svg>