<svg xmlns="http://www.w3.org/2000/svg" viewBox="0 0 308.48 44.38"><defs><style>.cls-1{fill:#6f93dc}</style></defs><path class="cls-1" d="M16.6 7.94C15 13.49 9.76 19.61 5.09 19.61 1.9 19.61 0 17.86 0 14.82c0-5 7.07-10 13.49-10.34a3.48 3.48 0 0 0-.31-1.63 1.23 1.23 0 0 1-.18-.61A1.49 1.49 0 0 1 14.55.91c1.33 0 2.55 1.33 2.55 3.88v.07a5.81 5.81 0 0 1 4.29 5.7c0 2.51-1.67 6.92-3.53 11.21 4.75-1.1 8.55-4.18 12.76-9.84 3.57-4.79 6.16-7.56 8.86-7.56 1.1 0 1.82.53 1.82 1.37s-.23 1.06-1.52 1.78c-1.6.88-3.08 2.28-5.55 5.63-4 5.47-8.2 9-13.48 10.79a11.91 11.91 0 0 1 3.45 4.37c1.48 2.92 2.66 4.06 4.11 4.06 1.78 0 4.33-2.32 6.15-5.13.49-.8.95-1.36 1.67-1.36a1.33 1.33 0 0 1 1.41 1.21 1.38 1.38 0 0 1-.23.76c-2.58 4-6.12 7.48-9.8 7.48-2.85 0-4.75-1.74-6.88-6.23-1.14-2.31-2.66-3.87-4.22-4l-.41.95c-1 2.32-2.21 5-2.7 6.35-.57 1.6-1.3 2.18-2.4 2.18s-1.71-1.07-1.14-2.78c.35-1 1.41-3.42 2.7-6.38 2.28-5.05 5.28-11.93 5.28-14.74a3.39 3.39 0 0 0-1.14-2.74zm-3.45-.8c-4.68.38-9.54 4.07-9.54 7.86a1.55 1.55 0 0 0 1.6 1.71c3.07-.03 6.79-5.2 7.94-9.57z"/><path class="cls-1" d="M45 18.31a3.68 3.68 0 0 1 3.46 1.94 2.92 2.92 0 0 1 2.43-1.94 1.29 1.29 0 0 1 1.44 1.3c0 .53-.45 1.4-1.56 3.19-1.44 3.19-2.58 5.89-2.58 7.82 0 1.18.49 1.71 1.1 1.71 1.6 0 3.61-2.43 5.32-5.09.49-.8 1-1.36 1.67-1.36a1.33 1.33 0 0 1 1.41 1.21 1.38 1.38 0 0 1-.23.76c-2.32 3.57-5.36 6.73-8.62 6.73a3.87 3.87 0 0 1-4.15-3.27c-1.67 1.94-3.64 3.27-5.7 3.27-2.88 0-4.93-1.71-4.93-4.87.03-5.66 5.73-11.4 10.94-11.4zm-5.18 13.83c1.52 0 3.08-1.59 4.52-3.72a31.3 31.3 0 0 0 3-5.89c-.15-1.14-1-1.82-2.43-1.82-3 0-6.91 4.82-6.91 9.15 0 1.52.8 2.28 1.82 2.28z"/><path class="cls-1" d="M66.08 25.88a1.33 1.33 0 0 1 1.41 1.21 1.38 1.38 0 0 1-.23.76c-2.32 3.57-5.4 6.73-8.66 6.73-2.78 0-4.53-1.45-4.53-4.26 0-2.28 1.41-6 3.08-9.76H56c-.83 0-1.36-.35-1.36-1.14s.53-1.11 1.36-1.11h2.21l2-3.83c1.26-2.44 2.32-3.23 3.12-3.23s1.56.53 1.56 1.33c0 .57-.54 1.55-1.49 3.07L62 18.31h1.64c.83 0 1.33.46 1.33 1.07 0 .8-.53 1.18-1.33 1.18h-2.73c-1.78 3.83-3.3 7.71-3.3 10 0 1.25.6 1.74 1.44 1.74 1.6 0 3.65-2.43 5.36-5.09.49-.77.95-1.33 1.67-1.33z"/><path class="cls-1" d="M69 34.58c-4.14 0-6.31-1.94-6.31-4.15 0-.72.57-1.63 1.6-3.19a55.74 55.74 0 0 0 4.25-8v-.54c0-2.5 1.64-4.25 3-4.25s2 .68 2 1.63a9.25 9.25 0 0 1-1.54 3.6c.87 2.74 3.5 5.66 3.5 9.12a4.8 4.8 0 0 1-.61 2.32 14.86 14.86 0 0 0 3.68-3.88c.5-.8.95-1.36 1.67-1.36a1.33 1.33 0 0 1 1.41 1.21 1.38 1.38 0 0 1-.23.76A15.43 15.43 0 0 1 69 34.58zm1-11.67a51.16 51.16 0 0 1-2.88 4.94 4.23 4.23 0 0 0-.92 2.32 2.45 2.45 0 0 0 2.63 2A3.06 3.06 0 0 0 71.89 29c0-2.4-.98-4.15-1.89-6.09z"/><path class="cls-1" d="M91.42 34.58c-2.12 0-4-1.14-4.21-3.39-1.6 2-3.38 3.39-5.21 3.39-2.47 0-4.1-1.45-4.1-4.22 0-2.51 1.59-6.16 3-8.82 1.26-2.47 2.13-3.23 3.23-3.23a1.31 1.31 0 0 1 1.45 1.3c0 .6-.5 1.67-1.94 4-1.29 2.7-2.17 5-2.17 6.84 0 1.22.65 1.68 1.14 1.68 1.41 0 2.81-1.6 4.26-3.69a44.16 44.16 0 0 0 3.61-7.18c1-2.32 1.86-2.93 3-2.93a1.24 1.24 0 0 1 1.33 1.26c0 .61-.49 1.71-1.94 4-1.29 2.7-2.16 5-2.16 6.84 0 1.37.72 1.9 1.25 1.9 1.6 0 3.65-2.43 5.36-5.09.49-.8 1-1.36 1.67-1.36a1.33 1.33 0 0 1 1.41 1.21 1.38 1.38 0 0 1-.23.76c-2.4 3.57-5.44 6.73-8.75 6.73z"/><path class="cls-1" d="M101.8 34.58c-4.14 0-6.31-1.94-6.31-4.15 0-.72.57-1.63 1.6-3.19a54.76 54.76 0 0 0 4.25-8v-.54c0-2.5 1.64-4.25 3-4.25s2 .68 2 1.63a9.25 9.25 0 0 1-1.56 3.61c.88 2.74 3.5 5.66 3.5 9.12a4.8 4.8 0 0 1-.61 2.32 14.86 14.86 0 0 0 3.68-3.88c.5-.8.95-1.36 1.68-1.36a1.25 1.25 0 0 1 1.17 2 15.43 15.43 0 0 1-12.4 6.69zm1-11.67a53.48 53.48 0 0 1-2.89 4.94 4.19 4.19 0 0 0-.91 2.32 2.45 2.45 0 0 0 2.62 2 3.07 3.07 0 0 0 3.11-3.17c0-2.4-.99-4.15-1.9-6.09z"/><path class="cls-1" d="M123.84 34.58c-2.47 0-4-1.45-4-3.88 0-3.12 3.46-6.84 3.46-9.31 0-.34-.27-.57-.72-.57-1.64 0-4.11 2.51-5.82 4.56a25.18 25.18 0 0 0-4.1 7.71 1.79 1.79 0 0 1-1.79 1.49 1.34 1.34 0 0 1-1.44-1.41 2.79 2.79 0 0 1 .15-.91c2.32-7.15 5.66-15 8.21-21A2.44 2.44 0 0 1 120 9.5c1 0 1.56.57 1.56 1.33 0 .53-.38 1.52-1.79 3.84l-3.26 8c2.09-2.31 4.63-4.33 6.68-4.33a3.29 3.29 0 0 1 3.57 3.23c0 3.12-3.49 6.35-3.49 9.43 0 .87.42 1.36 1 1.36 1.6 0 3.65-2.43 5.36-5.09.5-.8.95-1.36 1.67-1.36a1.33 1.33 0 0 1 1.41 1.21 1.38 1.38 0 0 1-.23.76c-2.3 3.54-5.37 6.7-8.64 6.7z"/><path class="cls-1" d="M132.47 30.43c0 1.33.53 1.87 1.21 1.87s1.33-.65 1.86-1.49a1.57 1.57 0 0 1 1.33-.91 1 1 0 0 1 1 1c0 1.26-2 3.73-4.56 3.73S129 33.17 129 30.36c0-2.55 1.52-6.19 2.89-8.82 1.29-2.47 2.24-3.23 3.23-3.23a1.31 1.31 0 0 1 1.44 1.3c0 .64-.57 1.78-2.24 4.44a16.33 16.33 0 0 0-1.85 6.38zm5.39-18.16a1.74 1.74 0 0 1 1.94 1.79 2.59 2.59 0 0 1-2.62 2.47 1.85 1.85 0 0 1-2-1.86 2.67 2.67 0 0 1 2.68-2.4zm43.96 12.84c-2.62 7.15-6.8 10.72-13.07 10.72-6.87 0-13-4.45-13-12.24 0-2.88 1.37-4.36 3.08-4.36a7.79 7.79 0 0 1 2.92.68A35.25 35.25 0 0 0 175.33 23a21.48 21.48 0 0 0 3.53-.27c.3-1 .61-1.94.87-3 2.4-10.07 6.61-11.17 7.79-11.17 1 0 1.64.53 1.64 1.29 0 .42-.27.72-.84 1.14-.95.68-3.38 2.13-5.09 9.35l-.34 1.33a27.53 27.53 0 0 0 4.52-2.13 6.26 6.26 0 0 1 3.08-1.22 1.31 1.31 0 0 1 1.33 1.48 3.16 3.16 0 0 1-.46 1.37 10 10 0 0 0-.76 3.08c-.11 1.21-.57 2-1.63 2s-1.64-.65-1.64-1.94a9 9 0 0 1 .19-1.59 30.44 30.44 0 0 1-5.7 2.39zm-13.11 7.64c4 0 6.84-2.24 8.93-6.8a23.75 23.75 0 0 1-2.39.11 37.52 37.52 0 0 1-13.45-2.54 5.13 5.13 0 0 0-1.71-.53c-.42 0-.61.22-.61.68a9.36 9.36 0 0 0 9.23 9.08zm-4.78-22.07c0-4 4.78-7.34 11.09-8.1a1.79 1.79 0 0 0-.19-.49 1.57 1.57 0 0 1-.19-.72A1.55 1.55 0 0 1 176.31 0c1 0 1.9.84 2.25 2.47 5.92.15 9 2 14.21 2 4.82 0 4.9-2.66 6.38-2.66a1.54 1.54 0 0 1 1.75 1.56 1.46 1.46 0 0 1-.35 1c-.72 1-2.92 3.27-7.82 3.27-5.89 0-8.67-1.79-14.14-2-.79 4.93-5.24 9.8-9.42 9.8-3.23-.05-5.24-1.8-5.24-4.76zm11-4.94c-4.11.64-7.26 2.73-7.26 5a1.57 1.57 0 0 0 1.67 1.64c2.07-.03 4.77-3.38 5.57-6.64zm30.65 28.84c-2.13 0-4-1.14-4.22-3.39-1.6 2-3.38 3.39-5.21 3.39-2.47 0-4.1-1.45-4.1-4.22 0-2.51 1.6-6.16 3-8.82 1.26-2.47 2.13-3.23 3.23-3.23a1.31 1.31 0 0 1 1.45 1.3c0 .6-.5 1.67-1.94 4-1.29 2.7-2.17 5-2.17 6.84 0 1.22.65 1.68 1.14 1.68 1.41 0 2.81-1.6 4.26-3.69a44.16 44.16 0 0 0 3.61-7.18c1-2.32 1.86-2.93 3-2.93a1.24 1.24 0 0 1 1.33 1.26c0 .61-.49 1.71-1.94 4-1.29 2.7-2.16 5-2.16 6.84 0 1.37.72 1.9 1.25 1.9 1.6 0 3.65-2.43 5.36-5.09.49-.8 1-1.36 1.67-1.36a1.33 1.33 0 0 1 1.41 1.21 1.38 1.38 0 0 1-.23.76c-2.4 3.57-5.44 6.73-8.74 6.73z"/><path class="cls-1" d="M220.7 25.88a1.33 1.33 0 0 1 1.41 1.21 1.38 1.38 0 0 1-.23.76 19.87 19.87 0 0 1-10.22 8.32c-1.94 5.24-4.56 8.21-7.94 8.21-2.25 0-4.11-1.26-4.11-3.08 0-3.15 3.12-4.45 8.89-6.15 2.13-6 3.84-10.72 5.32-14.1.84-2.05 1.9-2.74 2.74-2.74 1 0 1.59.54 1.59 1.26 0 .53-.41 1.33-1.48 3.07a104 104 0 0 0-4 10.8 20.08 20.08 0 0 0 6.38-6.2c.47-.8.95-1.36 1.65-1.36zm-13 11.51c-3.12 1.06-4.83 2.16-4.83 3.91a.89.89 0 0 0 .91 1c1.22-.05 2.56-1.68 3.89-4.91zm11.55-25.12a1.7 1.7 0 0 1 1.86 1.79 2.65 2.65 0 0 1-2.7 2.47 1.88 1.88 0 0 1-1.94-1.86 2.72 2.72 0 0 1 2.75-2.4z"/><path class="cls-1" d="M222.75 34.58c-2.62 0-4.33-1.41-4.33-4.22 0-2.55 1.52-6.19 2.89-8.82 1.29-2.47 2.24-3.23 3.23-3.23a1.31 1.31 0 0 1 1.44 1.3c0 .6-.49 1.67-1.94 4-1.29 2.7-2.12 5-2.12 6.84 0 1.37.57 1.9 1.29 1.9 1.59 0 3.65-2.43 5.36-5.09.49-.8 1-1.36 1.67-1.36a1.32 1.32 0 0 1 1.4 1.21 1.37 1.37 0 0 1-.22.76c-2.32 3.55-5.42 6.71-8.67 6.71zm4.56-22.31a1.74 1.74 0 0 1 1.94 1.79 2.59 2.59 0 0 1-2.62 2.47 1.85 1.85 0 0 1-2-1.86 2.67 2.67 0 0 1 2.68-2.4z"/><path class="cls-1" d="M249.05 32.87a9.33 9.33 0 0 1-3.23-.5 7.66 7.66 0 0 1-4.6 2.21c-2.13 0-3.95-1.14-4.22-3.35-1.52 1.94-3.23 3.35-4.94 3.35-2.47 0-4.1-1.45-4.1-4.22 0-2.51 1.59-6.16 3-8.82 1.26-2.47 2.13-3.23 3.23-3.23a1.31 1.31 0 0 1 1.45 1.3c0 .6-.5 1.67-1.94 4-1.29 2.7-2.17 5-2.17 6.84 0 1.18.46 1.68 1 1.68 1.37 0 2.66-1.64 4.1-3.69a43.37 43.37 0 0 0 3.61-7.18c1-2.32 1.86-2.93 3-2.93a1.31 1.31 0 0 1 1.45 1.3c0 .6-.5 1.67-1.94 4-1.29 2.7-2.16 5-2.16 6.84 0 1.22.6 1.75 1.21 1.75a3.57 3.57 0 0 0 2.09-1.25 1.07 1.07 0 0 1-.15-.53 1.87 1.87 0 0 1 1.9-1.71 15.46 15.46 0 0 0 2.66-7.49c0-.64-.23-1-.23-1.36 0-.84.76-1.3 1.94-1.3a2.18 2.18 0 0 1 2.16 2.32c0 3-1.86 6.69-4.25 9.5a3.06 3.06 0 0 0 1.56.3c1.71 0 3.49-.95 5-3.38.49-.8 1-1.36 1.67-1.36a1.33 1.33 0 0 1 1.41 1.21 1.38 1.38 0 0 1-.23.76c-2.24 3.34-5.05 4.94-8.28 4.94z"/><path class="cls-1" d="M265.05 18.31a3.66 3.66 0 0 1 3.45 1.94 2.93 2.93 0 0 1 2.43-1.94 1.29 1.29 0 0 1 1.45 1.3c0 .53-.46 1.4-1.56 3.19-1.44 3.19-2.58 5.89-2.58 7.82 0 1.18.49 1.71 1.1 1.71 1.59 0 3.61-2.43 5.32-5.09.49-.8.95-1.36 1.67-1.36a1.33 1.33 0 0 1 1.41 1.21 1.38 1.38 0 0 1-.23.76c-2.32 3.57-5.36 6.73-8.63 6.73a3.86 3.86 0 0 1-4.14-3.27c-1.67 1.94-3.65 3.27-5.7 3.27-2.89 0-4.94-1.71-4.94-4.87 0-5.66 5.7-11.4 10.95-11.4zm-5.21 13.83c1.52 0 3.08-1.59 4.52-3.72a31.9 31.9 0 0 0 3-5.89c-.15-1.14-1-1.82-2.43-1.82-3 0-6.92 4.82-6.92 9.15.04 1.52.8 2.28 1.83 2.28z"/><path class="cls-1" d="M275.84 29.22a1.33 1.33 0 0 1-1.41-1.22 1.41 1.41 0 0 1 .23-.76 62.27 62.27 0 0 0 4.45-8.09v-.53c0-2.66 1.78-4.41 3.07-4.41a1.6 1.6 0 0 1 1.79 1.6 7.26 7.26 0 0 1-1.14 2.92c1.63.95 3.84 1.67 3.84 3.5 0 2.5-3.35 5.35-3.35 8.47 0 .87.38 1.37 1 1.37 1.56 0 3.53-2.17 5.24-4.83.5-.8 1-1.36 1.67-1.36a1.3 1.3 0 0 1 1.41 1.21 1.24 1.24 0 0 1-.23.76c-2.32 3.57-5.32 6.73-8.55 6.73-2.47 0-4-1.45-4-3.88 0-3 3.26-6.35 3.26-8.4 0-.76-.76-1.18-1.55-1.59a78.8 78.8 0 0 1-4.07 7.14c-.5.8-.94 1.37-1.66 1.37z"/><path class="cls-1" d="M299.78 31.31c-1.68 1.94-3.65 3.27-5.7 3.27-2.89 0-4.94-1.71-4.94-4.87 0-5.62 5.7-11.4 10.94-11.4a3.66 3.66 0 0 1 3.46 1.94 2.92 2.92 0 0 1 2.46-1.94 1.29 1.29 0 0 1 1.44 1.3c0 .53-.45 1.4-1.55 3.19-1.45 3.19-2.59 5.89-2.59 7.82 0 1.14.46 1.68 1 1.68s1.33-.65 1.86-1.49a1.56 1.56 0 0 1 1.33-.91 1 1 0 0 1 1 1c0 1.26-2 3.73-4.56 3.73a3.86 3.86 0 0 1-4.15-3.32zm-4.9.83c1.52 0 3.07-1.59 4.52-3.72a32.52 32.52 0 0 0 3-5.89c-.16-1.14-1-1.82-2.44-1.82-3 0-6.91 4.86-6.91 9.15.04 1.52.8 2.28 1.83 2.28z"/></svg>