<svg xmlns="http://www.w3.org/2000/svg" viewBox="0 0 216.2 268.46"><defs><style>.cls-1,.cls-2{fill:none;stroke:#000;stroke-linecap:round;stroke-linejoin:round;}.cls-2{stroke-width:0.4px;}</style></defs><title>アセット 10</title><g id="レイヤー_2" data-name="レイヤー 2"><g id="情報"><path class="cls-1" d="M5.57,195.51c2.13-4.74,7.58-9.59,20.82.81"/><path class="cls-1" d="M8.76,205.92C8.41,197.35,15,192,28.87,198.06"/><path class="cls-1" d="M12.58,212.86c-1.55-7.08,2.48-15.23,11.68-14.52s18.27,3.82,23.94,8.28"/><path class="cls-1" d="M16.48,221.49c-2.48-2.19,2.62-9.84,7.08-12.17s9.74-5,19.54-3.12c3.61.71,7.76,1,10.26,1.8,3.33,1,7.08,7.83,9.63,9.74"/><path class="cls-1" d="M13.15,214.41c1.63-5.87,3.89-13,18.41-12.81"/><path class="cls-1" d="M22.35,218c7.79,2.41,19.33-.28,28-2.48"/><path class="cls-1" d="M33,208.47c5.17,4.84,15.51,5.94,20.39,7"/><path class="cls-1" d="M45.28,217.74c7.52,2.62,17.64,3,22,5.59"/><path class="cls-1" d="M35.1,225.46c2,8,6.72,12.77,12.25,12.34s11.11-15.28,16.78-14.47a51.57,51.57,0,0,0,10.05.85"/><path class="cls-1" d="M52.51,237.49c6.66,5.53,12,6.59,17.07,4.89s9.7-13.95,11.82-20"/><path class="cls-1" d="M66.39,226.31c7.08-1.14,11-3.76,15.93-5.17"/><path class="cls-1" d="M91.88,226.87c-2,7.44-4.53,15.93-22.3,15.51"/><path class="cls-1" d="M2.53,189.14c4.11-3.9,8.14-4.82,15.58.42"/><path class="cls-1" d="M44.36,163.24c4.38-1.87,14.23-6.33,24.15,3.92s16.58,18.08,17,32.4"/><path class="cls-1" d="M23.86,175.88c-3.64,2.27,4.42,19.56,7,23.38"/><path class="cls-1" d="M18.11,175.88c-3.34,1.66-1.94,10.23,2.11,16.35"/><path class="cls-1" d="M.5,189.23c1.88,1.25,6.37.91,11,0"/><path class="cls-1" d="M5,185.92c-1.87-5.22-.89-16.8,7.3-19.62,6.35-2.19,13-1.16,20.59-.55"/><path class="cls-1" d="M15.14,177.57c-2.82-5.32-4.78-8.62,0-10.81"/><path class="cls-1" d="M83.11,209.74A37.36,37.36,0,0,0,74.36,203a4.68,4.68,0,0,0-4.21.56c-1.52,1.15-4,3.14-3.64,4.73s2.84,6.64,5.43,7.15a2.59,2.59,0,0,0,3-2.61"/><path class="cls-2" d="M68.8,209.9a5.24,5.24,0,0,0,3.47.59"/><path class="cls-1" d="M71.3,208.47a17.78,17.78,0,0,0,4.46,4.78c1.76,1.12,4.45,6,5.43,6.84,4.84,4,12.12,7.93,18,9.24s8.65,2,11.12.69,14.24,5.78,19,6.45"/><path class="cls-1" d="M87.25,202.58c-2,.13-3.85,2-5.69,4.6"/><path class="cls-1" d="M83.47,204.08c1-2.46,3.09-7.25,5.4-7.21s4.88,1.21,7.35,2"/><path class="cls-1" d="M91.87,197.21c1.85-1,4-2.5,6.75-.16a54.83,54.83,0,0,0,7.44,5.72c2.78,1.72,5.41,4.76,9.53,5.7s9.07,2.33,13.69,2.15"/><path class="cls-1" d="M105.29,222.34c.45,3,.74,6,5,7.68"/><path class="cls-1" d="M95.3,228.17c-1.74,1.52-2.7,2.7-4.33,1.85"/><path class="cls-1" d="M78.49,216.38a19.63,19.63,0,0,0-.29,6"/><path class="cls-1" d="M25.28,223.3c0-4.7,2.78-6,6.28-3.41S37,227.08,36.61,233s-1.47,7.82-3.76,8.39S27.35,238.82,28,237s1.07-2.59,2.85-2.65"/><path class="cls-1" d="M28.27,220.81c2.36.58,5.81,2.65,6,5.5s.34,7.21-.87,8.83"/><path class="cls-1" d="M28.56,226.87c1.61,1.36,1.78,3.66,1.26,5.5"/><path class="cls-1" d="M4.74,196.87a120.91,120.91,0,0,0-1.67,13.76"/><path class="cls-1" d="M3.9,215.51c1,1.5,3.56,3.84,3.71,4.6s-.73,1.44-.45,2c.47,1-.71,3.26-.82,6.3-.28,7.38,1.66,9,3.6,12.2s7.91,11.18,9.18,13.31c.75,1.25,0,3.94,1.75,5.62s7.22,4.32,10.94,3.07,4.24,2.07,4.84,5.34"/><path class="cls-2" d="M.2,193.9a11.18,11.18,0,0,1,7-2.29"/><path class="cls-1" d="M6.77,201.43c-.17,4.37-.46,6.07,2,8.47S12,214,12.26,215.47"/><path class="cls-1" d="M2.29,211.52c2.7.14,2.06,2.9,2.09,3.39.07,1.09-2-2-2.09-3.39"/><path class="cls-1" d="M5.76,217.75c-.63.54-.94.74-1.61.68"/><path class="cls-1" d="M39.71,165c-4.65,1.27-10.72.67-13.32,3.15a13.86,13.86,0,0,0-4,6.46"/><path class="cls-1" d="M14.7,179.39c-2.4,2-3.26,3.55-2.08,7.16"/><path class="cls-2" d="M4.43,193.9C.2,195.84,0,199.39.5,202.58"/><path class="cls-1" d="M59.27,246.47c8.67.33,9.5-.12,13.92-3.35"/><path class="cls-1" d="M71.77,244.84c-.17,5.21,2.43,16.13,6.3,18.21s8.7,4.24,10.12,4.91"/><path class="cls-1" d="M37.62,228c4.22,6.36,10.17,7.22,14.89,3.68"/><path class="cls-2" d="M37.62,224.64c6.15,1.25,18-2.7,23.23-2.3"/><path class="cls-2" d="M40.69,226.87c5.58,2.27,14-.31,19.5-3.27"/><path class="cls-2" d="M41.33,229.09c5.19,2.3,11,1.81,16.27-2.78"/><path class="cls-2" d="M59.27,229.24c9.08.73,15.26.48,18.42-3.57"/><path class="cls-2" d="M60.19,235.14c8.25.41,14.5-2.76,19-10.26"/><path class="cls-2" d="M55.19,235.89c5.66,3.91,16.16,2.28,22.5-6.65"/><path class="cls-2" d="M89.84,226.18c-4.4,7.54-9.08,13.49-15,15"/><path class="cls-2" d="M73.77,239.64a21.71,21.71,0,0,0,9.34-17.33"/><path class="cls-2" d="M42,221.49c6.18,1.84,7.07,1.4,14.24.48"/><path class="cls-2" d="M68.8,214.41c-.53,3.39-.4,7.11,1.22,8.89"/><path class="cls-2" d="M70,214.8c0,3.67-1.1,5.25,1.74,7.67"/><path class="cls-2" d="M85.49,199.56a11.56,11.56,0,0,0-6,6.36"/><path class="cls-2" d="M83.85,201.59a10.09,10.09,0,0,0-3.12,3.63"/><path class="cls-2" d="M71.76,216.08c0,2.49.85,6,2.42,7.52"/><path class="cls-2" d="M76.36,214.12c-.47,2.67-1.22,7.16-.33,9.18"/><path class="cls-2" d="M26.9,215.47a53.49,53.49,0,0,0,15.51-.33"/><path class="cls-2" d="M33.65,214.12c4.72,0,8.2.08,10.71-.46"/><path class="cls-2" d="M56.26,216.08c5.81,1.91,7.11,3.59,10.22,4.73"/><path class="cls-2" d="M55.77,199.11c1.09,6.14,3.83,14.46,6.5,17"/><path class="cls-2" d="M59.27,204.88c2.38,3.86,4.51,10.65,5.12,13.22"/><path class="cls-2" d="M12.55,180.1c-3.15-3.61-3.4-12.55-.29-13.8"/><path class="cls-2" d="M10.91,179.09C8.86,175.6,7,172,9.13,168.82"/><path class="cls-2" d="M6.66,198.3c1.85-3.73,4.58-7.88,9.58-6.7"/><path class="cls-2" d="M8.19,201.43c1.49-4.54,1.84-8.41,5.5-9.83"/><path class="cls-2" d="M10.06,208c0-3.78.63-10.08,6.74-12.13"/><path class="cls-2" d="M26.39,168.12c-4,6.46,4,26.57,7.26,31"/><path class="cls-2" d="M29.48,188.33c3.41,6.24,5.4,10,6.36,12.35"/><path class="cls-2" d="M13.69,217.19c.51-2.29,6.73-12.35,16.39-14.3"/><path class="cls-2" d="M15.14,219.84c-.6-2.68,2.82-10.48,13.13-15.28"/><path class="cls-2" d="M34.65,206.82a33.18,33.18,0,0,0,15.79,6.7"/><path class="cls-2" d="M36.34,205.58c4.7,3.44,11.76,6.53,15.8,7.28a25.8,25.8,0,0,1,9.23,3.52"/><path class="cls-2" d="M20.28,218.1c.45,7.48,6.7,30.33,14.37,35.12"/><path class="cls-2" d="M21.67,221.27c3.76,4.67,15.66,14.68,22.69,14.39"/><path class="cls-2" d="M54.07,241.74a14.88,14.88,0,0,0,14.73,2.19"/><path class="cls-2" d="M47.2,163.24c24.56,6.53,30.86,38.89,30.87,41.64"/><path class="cls-2" d="M51,162.49C79.19,174,79.52,196.87,80,204.88"/><path class="cls-2" d="M67.24,216.38c-.59-3.5-6.39-28.81-15.36-38.81-3-3.4-5.61-4.79-8.1-12.6"/><path class="cls-2" d="M51,168.17c9.81,14.8,16.2,25.73,16.49,37.75"/><path class="cls-2" d="M46.32,187.5a110.37,110.37,0,0,1,9.45,22.05"/><path class="cls-2" d="M47.2,189.56c.84,4.38,4.46,15.74,5.31,18.21"/><path class="cls-2" d="M30.86,175.88c1.84,5,7.94,23.32,11.16,27"/><path class="cls-2" d="M48.85,205.58c-3.65-2.2-10.72-19.92-13.75-25.48-1.37-2.5-4.55-9.69-2.25-14.35"/><path class="cls-2" d="M86.93,224.1c-1.65,4.48-8.88,14.93-12.75,17"/><path class="cls-2" d="M71.76,228.17c3.62-2.19,5-4.37,7.76-5.7"/><path class="cls-2" d="M35,222.77A44.45,44.45,0,0,0,43.78,217"/><path class="cls-2" d="M35.41,224.1a48.57,48.57,0,0,0,9.87-5.65"/><path class="cls-2" d="M54.07,216.08A85.84,85.84,0,0,0,63,221.27"/><path class="cls-2" d="M56.26,220.34c-3.21-2.1-5-3-6.8-4.46"/><path class="cls-2" d="M11.87,201.59a11.44,11.44,0,0,1,10.48-5.7"/><path class="cls-2" d="M21.32,181.82a26.09,26.09,0,0,0,1,11.41"/><path class="cls-2" d="M23.35,188.33c-.13,2.24-.13,2.8-.32,5.57"/><path class="cls-2" d="M19.86,174.22c-2.35-2.87-4.38-6.74-.32-8.52"/><path class="cls-2" d="M21.08,173.63c-1.54-3.49-3.76-6-.27-7.93"/><path class="cls-2" d="M37.62,166.76c-.46,3.34,9.7,15.45,12.23,20.81s7.3,17,7.75,23.06"/><path class="cls-1" d="M32.66,171.55c4.63,5.06,14.74,21.21,17.19,33.33"/><path class="cls-2" d="M82.5,219.36c.7-1.86,2.55-4.94,4.43-5.63"/><path class="cls-2" d="M93.14,199.26c3.17,2,9.5,6.05,13.32,7.25"/><path class="cls-1" d="M91.51,196.67A7.7,7.7,0,0,1,87.25,195c-2.33-1.52-2.77-5.25-2.43-5.64s2,.18,3.09,1a19.27,19.27,0,0,0,5.25,2.06c1.83.19,9-2.3,11-3.57s4-.51,5.45,0,8.28,3.14,10.46,4.21,4.15,6.84,7.87,8.54"/><path class="cls-1" d="M104.63,194.3a4.94,4.94,0,0,1-4.44,4.09"/><path class="cls-1" d="M101.51,198.68c1.55,1.36,2.56,1.31,3.41,1.08a6.6,6.6,0,0,0,5.55,3.92c2.81.11,3.66-.14,6.31-1.44"/><path class="cls-2" d="M103.77,198.68a7.13,7.13,0,0,0,2.15-2.93"/><path class="cls-1" d="M116.09,172.71s-1-3.4-1.78-5.17-.71-3.46-.66-5.85-.51-12.51-.51-15.81A34.65,34.65,0,0,0,111.21,134c-1.47-3.66-3.46-8-3.41-10.63s0-7.32,1.12-9.5a49.24,49.24,0,0,0,2.14-5.65,11.11,11.11,0,0,1-1.34-3.94c0-1.53,1.08-3.8.88-6a53.51,53.51,0,0,1-.44-8.91c.24-3.29.34-5.66,3.42-6.61s6.1-2,8.07-2.48c1-6.23,2.84-11.55,5.62-15s7.43-7.91,11-9.62c.85-.41,1.23-2.55,1.43-4.37s.13-3.54.3-4c1.24-1,3-1.68,4.14-1.32a10,10,0,0,1,1.91.79s3.3-1,5.69-1.6,8.26-1.35,11.21.45,4.09,5,7.68,6.56,9.1,4.83,11.89,6.08,5.72,6.43,6.84,9.32.61,5.06,2.34,8.47,3.15,10,4.22,11.69.71,8.08.71,9.3a19.58,19.58,0,0,1-.51,3.36s.51,2.15,1.32,4.45.51,6.54.31,10.54.68,9.83.81,15.29,1,16.67,1,17.69c0,.57-.49.91-.8,1.55s-1.76,3.16-2.61,4.65a4.12,4.12,0,0,1-3.81,2.1c-1.44-.07-2.42.26-2.36,1.4s.06,5.45.73,7.52,1.63,7.08,1.63,7.08"/><path class="cls-1" d="M129.76,172.71c-1.52,0-6.3-2.94-7.37-8-1.17,4.22-1.88,8-1.88,8"/><path class="cls-1" d="M166.22,89.64c-3.2-.69-6.38-5.35-10.55-8.77s-14.54-3.6-19.48-3.33-14.54,2.78-14.54,2.78c-2,.51-5,1.53-8.07,2.48s-3.18,3.32-3.42,6.61a53.51,53.51,0,0,0,.44,8.91c.2,2.2-.88,4.47-.88,6a11.11,11.11,0,0,0,1.34,3.94s2.32,3.34,2.66,5.78.13,5.22,2.64,8.07,4.68,5.67,5.76,6.29c-1.42,3.4-3.45,6.92-3.93,9.64s-3.34,8-3.27,8.86,1.1,1.57,2,1.91,11.79,2.83,19.59,2.83c8.06,0,20.2-.73,20.2-.73"/><path class="cls-2" d="M166,75.58c-.56-4,.33-12.67-1.07-15.3-.66-1.25,2.08-1.5,2.8.46"/><path class="cls-1" d="M167.69,64.45c.33,3.22-.73,9.71-1.24,14.38s0,11.08.27,15.69,1.86,8.58,2,12.78,2,8.3,2,11.32-.34,10.49.88,13.49,4.22,6.09,4.73,8.84a104.21,104.21,0,0,0,3.56,12.5c1.42,4,5,14.44,5.69,16.53"/><path class="cls-2" d="M186.58,149.56c-2.31-3.7-8.41-18.17-9.19-20.95s-3.25-6.2-4.3-5.52-.27,5.66,1.69,7.9,5.66,9.79,7,12.23"/><path class="cls-2" d="M177.73,142.14a105.69,105.69,0,0,1,7.32,11.38,5,5,0,0,0,4.61,2.85"/><path class="cls-2" d="M179.33,146.61c.33,2.51,3.25,8.74,6.54,10.06"/><path class="cls-2" d="M169.7,54.4a38.56,38.56,0,0,1,10.37,14c2.58,5.83,13.62,33.75,15.18,37"/><path class="cls-2" d="M191.86,103.67c1.7,3.87,3.33,7.53,3.8,11.59"/><path class="cls-2" d="M192.75,125.29c-.21,6-1.09,12.41-.89,15.46s3.12,8,3,10.89"/><path class="cls-2" d="M154.11,61.85c-3.52,2.82-4.54,12.2-3.89,16.41"/><path class="cls-2" d="M136.6,60.33c-2.26,4.12-4.65,13.84-5,17.21"/><path class="cls-2" d="M168.82,158.3c1.63-9.07,2.23-26,2.06-29.9"/><path class="cls-2" d="M111.62,121.38c-.36-2.44-.72-4.47-1.43-4.17s-2,2.85-1.32,6.41"/><path class="cls-2" d="M111.62,125.75a140,140,0,0,1,3.3,21.15c.1,3.66,3,8.23,2.8,10.42a63.85,63.85,0,0,0,.76,10.83"/><path class="cls-1" d="M168.16,51.84a16.69,16.69,0,0,0-8.63,2c-2.93,1.4-12,4.2-15.35,4s-4.36-.35-5.79-1.56"/><path class="cls-2" d="M195.25,87.64c-3.53-2-10.15-4-18.41,2"/><path class="cls-1" d="M154.93,81.92c-2.44,1.15-1.83,4.13-1.77,6.71s.68,11.72,1,15.58,1.49,8.48,1.63,11.05,2.37,9.49,2.37,11.25"/><path class="cls-1" d="M155.27,129c-5.83,1-16.49,2.51-21.19,2.37s-9.29-.92-12-3"/><path class="cls-1" d="M168.82,113.64c-4.85,7.13-13.24,15.87-20.67,22.29-.75.75.11,1.56.74,2.54,3.53,5.46,16.87,28.25,20.53,34.24"/><path class="cls-2" d="M168.5,115.74c-1.88,2.59-16.78,20.48-19.27,20.89"/><path class="cls-2" d="M165.35,96.22c-3.36-.77-6.41-1.78-7.48-2"/><path class="cls-2" d="M157.11,96.47c-.1-2.85-.05-8.44-1.32-8s-1.47.86-1.27,4.73.49,11.58,1.26,15.44,2.93,11.54,3.09,15"/><path class="cls-2" d="M167.69,115a30.56,30.56,0,0,1-10.17.29"/><path class="cls-2" d="M165.79,117.74a35.48,35.48,0,0,1-7.92-.06"/><path class="cls-1" d="M198.22,150.94c3.91,2.16,9.62,5.24,11.07,7s3.62,5.5,4.16,6.15c1.34.15,2.2.51,2.23,1.2s.15,3.73-.77,4.7a3.82,3.82,0,0,0-.72,2.73"/><path class="cls-2" d="M214.82,165.57c-.48-.44-1,.3-2.51,1.49s-4.08,3.67-6,4.45"/><path class="cls-2" d="M204.59,157.37c.66-.87,1.08-1.27.75-1.44s-1.24.07-2.09,1.34-4.1,5.61-6.44,7.27-2.88,2.2-4.67,2.91"/><path class="cls-2" d="M190,159c3.47,2.54,15.53,9,18.14,10.2"/><path class="cls-2" d="M165.79,91.42c-3.27-2-8.3-7.07-9.66-8s-2,.07-2,1.8.09,2.3,0,3.73"/><path class="cls-2" d="M165.61,92.63a92.49,92.49,0,0,1-11.46-8"/><path class="cls-2" d="M166,94.76c-2.59-1.61-9.07-6.47-11.87-7.71"/><path class="cls-1" d="M142.51,14.26c-1.1,2.19-1.48,3.92-1.36,4.56a3,3,0,0,0-.72,2.72,6.92,6.92,0,0,0-.52,3.71c-1.24,1.44-2.76,3.08-2.76,5.19a8.12,8.12,0,0,0,.9,8.53c1.37,1.75,2.37,3,6.27,3,2.56,0,4.28-1.72,5.2-2.55,0,1.93.14,6.32.14,6.32"/><path class="cls-1" d="M169.06,24.5c-.24-1.47-1.51-3.15-2.82-2.25s-1.62,2-1.55,4a13.78,13.78,0,0,0,1.55,6.12c.93,1.42.79,2.6,2.06,2.44s1.71-3.23,1-3.77"/><path class="cls-2" d="M167.65,23.25c-.62-.3-1.72.41-1.9,1.7s.75,5,1.83,5.67"/><path class="cls-2" d="M168.14,25.21c-.13-1-.9-1.55-1-.49s-.73,2-.46,2.78.47,2,1.19,2.38"/><path class="cls-1" d="M179.83,17.87c-1,1.08-1.08,3.28-1.93,3.72a5.76,5.76,0,0,0-2.78,3.73c-.4,2-2.54,3.86-3,3.83-1.15-1.56-1.58-4.41-3-5.16"/><path class="cls-2" d="M181.6,17.22c0,1.63-2.43,3.67-4.63,5"/><path class="cls-2" d="M180,16.92c-2.54,2.06-4.54,4.57-8.17,4.71"/><path class="cls-2" d="M179.09,15.8c-3.15,1.9-3.85,2.53-9.79,3.94-7,1.65-23.8,1.89-23.8,1.89"/><path class="cls-2" d="M149.33,14.75c-2.57.64-5.45,3.22-6.5,4"/><path class="cls-2" d="M142.83,15.58c.09,1.25-.76,4.06,0,5.4"/><path class="cls-2" d="M148.33,13.25c-2.15,1.3-4.21,2.27-5.66,4.2"/><path class="cls-2" d="M164.13,24a35.9,35.9,0,0,1-11.69,2.57"/><path class="cls-2" d="M152.55,31.49c-2.76-2.21-6.47-3.55-9.56-3.1"/><path class="cls-2" d="M153.67,36.09c-1.84-3-7.93-6.44-10-6.56"/><path class="cls-2" d="M149.52,39.45c-2.53-1.47-6-5.92-7-7.67"/><path class="cls-2" d="M147.14,41.27c-3.16-1.83-7.45-5.55-7.87-8.33"/><path class="cls-1" d="M154.42,31.94c-.28-3.35-1.4-7.09-6.37-6.67"/><path class="cls-1" d="M150.51,24.75c-2.54-1.21-4.13-2.63-6.25-1.24"/><path class="cls-2" d="M155.93,33.57c-.13,1.75-.65,3-1.63,3.07-1,1.58-2.14,3.23-4.78,2.81"/><path class="cls-2" d="M141,27.18a5.36,5.36,0,0,0-3.86,3.26"/><path class="cls-2" d="M160.06,29.15a56.85,56.85,0,0,1-6,.38"/><path class="cls-2" d="M159,31.26a13.91,13.91,0,0,1-4.61,0"/><path class="cls-1" d="M182.06,12.81c1.62,2,4.07,8.35-.46,11.34a7.22,7.22,0,0,1-1.77,2.75c1,1,1.54,4.05,1.54,6.3a10.34,10.34,0,0,1-1.7,5.85,19.58,19.58,0,0,0-2.76,5.78c-.26,1.47,0,2.93-1,3.69a6.76,6.76,0,0,1-4,1.32,13.81,13.81,0,0,1-5.58-1.13"/><path class="cls-2" d="M179.09,12.81c1.31,1.24,3.27,4.19,2.9,5.67"/><path class="cls-2" d="M163.93,41.38c1.58,2.2,2.87,6.32,4.23,7.13"/><path class="cls-2" d="M174.11,22.77a42.46,42.46,0,0,0-6.54-.63"/><path class="cls-1" d="M175.27,6.69C169.63,0,149.66-4.39,143,10.55"/><path class="cls-1" d="M182.29,26.43a2.45,2.45,0,0,1-1.42-.83"/><path class="cls-2" d="M178.09,14c-2.7,1.94-7.21,3.87-9.36,3.86"/><path class="cls-2" d="M146.48,12.63c-1.47,1-3,2.07-3.65,2.51"/><path class="cls-1" d="M162,25.84c-1,1.56-2.65,5.18-3.48,6.59"/><path class="cls-2" d="M159.62,36.09A12.67,12.67,0,0,1,156.29,35"/><path class="cls-2" d="M157.24,38.58a10.07,10.07,0,0,1-2.94-1.94"/><path class="cls-2" d="M155.77,39.77A10.4,10.4,0,0,0,153,38.35"/><path class="cls-2" d="M138,59c1.55,5.33,3.4,13.8,2.83,17.46"/><path class="cls-2" d="M164.34,78.87c.2,3.15.64,7.66.25,9.55"/><path class="cls-2" d="M173.85,68.5c-3,5.15-6,11.3-6.16,14.49"/><path class="cls-2" d="M189.66,87.62a56.84,56.84,0,0,0,4.65,6c.82.75,1.68,2.71.94,4"/><path class="cls-2" d="M206,157.19c-1.47,1.71-6.86,10.33-9.13,11.28"/><path class="cls-2" d="M188.06,158.66c-1.32,1.68-1.84,4.11-.6,5.75a30.59,30.59,0,0,1,3.47,5.57"/><path class="cls-2" d="M214.82,167.72c-1.76,1.43-5.23,2.55-6.14,3.79"/><path class="cls-2" d="M211.07,171.75a30.88,30.88,0,0,1-5.46,2.46"/><path class="cls-2" d="M118.77,127.6a111.25,111.25,0,0,1-.92,11.75"/><path class="cls-2" d="M159.68,100.61c.24,2.34,1.33,11.21.59,12.19s-1.43-.24-2.16-1-1.36-3-2.18-3.59"/><path class="cls-2" d="M159.06,96.22c-.82.79.05,3.49-1.19,4.19s-1.27.83-2.64.47"/><path class="cls-2" d="M160.76,59c.82,4,1.63,11.36,1.16,14.65"/><path class="cls-2" d="M142.52,127c-5.75-4-24.41-16.14-30-17.54"/><path class="cls-2" d="M122.12,132.19c.22,2.24,3.59,7.08,5.06,9.61"/><path class="cls-2" d="M151.74,131.06a70.4,70.4,0,0,1-10,.85"/><path class="cls-2" d="M147.86,61.32c-1.75,2.56-4.5,5.46-6.12,6.12"/></g></g></svg>