<svg xmlns="http://www.w3.org/2000/svg" viewBox="0 0 394 80.64"><defs><style>.cls-1{fill:#e5d7bf}</style></defs><path class="cls-1" d="M33.73 59.46c-2.76 6.31-5.87 13.43-7.3 17.17-.62 1.6-1.33 2.23-2.75 2.23-1.78 0-2.5-1.69-1.78-3.92.89-2.85 3.64-9.43 7.2-17.53 5.43-12.11 12.46-28.57 12.46-35.34 0-4.71-2-7.83-5.51-9.16-2.14 13.88-15.67 30.17-26.44 30.17-6 0-9.61-3.56-9.61-9.7C0 21.27 17.18 8.46 31.77 8.28a9.65 9.65 0 0 0-1.15-4.9A2.82 2.82 0 0 1 30.08 2a2.08 2.08 0 0 1 2.14-2c2.05 0 4.09 3 4.18 8.81 6.32 1.6 10.15 6.68 10.15 13.26 0 8.1-7.03 24.3-12.82 37.39zM31.51 12.1c-12.37.18-26.79 11.22-26.79 21.63 0 3.47 1.87 5.52 5 5.52 8.7 0 20.01-15.04 21.79-27.15zm26.17 44.69c1 1.77 2 3.73 3.11 6 4.54 9.3 7.21 14.02 11.39 14.02 5.34 0 12-7.92 17.63-16.64a1.76 1.76 0 0 1 1.51-1A1.78 1.78 0 0 1 93.1 61a2.4 2.4 0 0 1-.36 1.24c-6 9.44-13.26 18.43-21.45 18.43-6.05 0-9.25-5-14.51-16.11-1.06-2.14-2-4.1-2.84-5.79a14.58 14.58 0 0 1-5.43 1.07c-5.52 0-8.37-2.58-8.37-5.87 0-3.12 3-5.25 7-5.25 3.65 0 6.14 1.78 8.46 4.89 6.4-4.75 12.67-14.72 18.63-24.42C81.17 18 87.94 8.1 94.26 8.1a2.11 2.11 0 0 1 2.31 2.14c0 1-.71 1.51-3 2.58-3.82 1.69-8.36 7.12-15.31 18.6-6.79 11.21-13.46 20.74-20.58 25.37zM52 55.72c-1.51-2.23-3-3.47-4.9-3.47-1.6 0-2.67.71-2.67 1.78 0 1.42 1.43 2.31 4.28 2.31a8.76 8.76 0 0 0 3.29-.62z"/><path class="cls-1" d="M134.75 60.17s.62-1 1.42-1a1.82 1.82 0 0 1 1.83 1.89 2.85 2.85 0 0 1-.36 1.15c-5.25 8-10.59 12.29-17.44 12.29a11.59 11.59 0 0 1-6.41-1.78c-3.74 3.74-8.36 6.14-13 6.14-7 0-12.11-4.36-12.11-12.73 0-13.26 12.11-24.92 22.52-24.92 7.12 0 11.48 4.27 11.48 11.66a28.25 28.25 0 0 1-6.14 16.73 6.33 6.33 0 0 0 4.32 1.4c4.54 0 9.08-3.54 13.89-10.83zm-23.59-15.31c-7.3 0-17.36 10.68-17.36 21.54 0 5.78 3.3 8.72 7.21 8.72 3.65 0 7.3-2.14 10.24-5.43a1.12 1.12 0 0 1-.09-.53 2.54 2.54 0 0 1 2.4-2.58 26.37 26.37 0 0 0 4.37-13.89c0-5.25-2.67-7.83-6.77-7.83z"/><path class="cls-1" d="M182.81 60.17a1.73 1.73 0 0 1 3.29.8 2.4 2.4 0 0 1-.36 1.24c-5.52 8.55-12 16.65-19.31 16.65-4.45 0-8.19-3.21-8.19-9.26a6.33 6.33 0 0 1 .18-1.87c-4.36 6.23-9.61 11.13-15.13 11.13-6 0-10.24-3.92-10.24-11 0-13.17 13.62-26.61 24.57-26.61 3.91 0 6.94 1.33 8.63 4 2.67-7 6.68-17 8.9-22 .89-2 2.14-3.11 3.29-3.11a2.13 2.13 0 0 1 2.41 2.13c0 2.23-1.78 6.23-5.43 12.11-1.07 2.31-4.36 10.23-6.94 16.91-3.39 8.63-5.52 15-5.52 18.33 0 3.92 1.69 5.7 4.18 5.7 4.72-.02 10.59-7.32 15.67-15.15zm-18.25-10.42c-.44-3-2.85-4.89-7-4.89-8.28 0-19.4 12.37-19.4 23.32 0 4.54 2.49 6.94 5.6 6.94 4.54 0 9.17-4.63 13.35-10.68a73 73 0 0 0 7.45-14.69z"/><path class="cls-1" d="M230.87 60.17a1.76 1.76 0 0 1 1.51-1 1.78 1.78 0 0 1 1.78 1.83 2.4 2.4 0 0 1-.36 1.24c-5.52 8.55-12 16.65-19.31 16.65-4.63 0-8.55-3.21-8.55-9.26a4.71 4.71 0 0 1 .09-1.16c-4.27 5.88-9.34 10.42-14.68 10.42-6 0-10.24-3.92-10.24-11 0-13.17 13.62-26.61 24.57-26.61 4 0 7.12 1.42 8.81 4.36.8-2.67 2.4-4.36 3.83-4.36a2.13 2.13 0 0 1 2.4 2.13c0 1.52-1.51 4.19-4 8.19-2.76 6-6 13.09-6 18.07 0 3.92 1.78 5.7 4.45 5.7 4.75-.07 10.62-7.37 15.7-15.2zm-25.73 4.27a73.49 73.49 0 0 0 7.48-14.69c-.44-3-2.85-4.89-7-4.89-8.28 0-19.4 12.37-19.4 23.32 0 4.54 2.58 6.94 5.6 6.94 4.51 0 9.18-4.63 13.32-10.68z"/><path class="cls-1" d="M290.67 60.17s.63-1 1.43-1a1.82 1.82 0 0 1 1.9 1.89 2.85 2.85 0 0 1-.36 1.15c-5.34 8.19-10.95 12.64-17.44 12.64a12.57 12.57 0 0 1-7.39-2.13c-3.65 3.74-7.57 6.14-10.77 6.14-4.36 0-8-3.21-8-9.26a4 4 0 0 1 .09-1.07c-4 5.7-8.55 10.33-13.09 10.33-4.8 0-8.1-3.12-8.1-9.35 0-5.87 3.57-14.59 6.68-20.74 2.76-5.34 4.18-7.56 5.52-7.56a2.13 2.13 0 0 1 2.4 2.13c0 1.52-1.33 4.19-3.83 8.19-2.84 5.88-5.87 13.09-5.87 18.16 0 3.92 1.69 5.34 3.65 5.34 3.83 0 7.74-4.81 11.75-10.59 3.11-4.45 6.05-11.22 8.45-16.82 2.05-4.72 3.3-6.41 4.72-6.41a2.13 2.13 0 0 1 2.4 2.13c0 1.52-1.51 4.19-4 8.19-2.76 6-6 13.09-6 18.07 0 3.83 1.61 5.61 3.92 5.61 2 0 4.72-2 7.48-5.07-.09 0-.09-.09-.09-.18a1.92 1.92 0 0 1-.36-1.25 2.55 2.55 0 0 1 2.67-2.58 2.51 2.51 0 0 1 .8.18c3.92-5.7 7.21-13.09 7.21-18.87 0-2-.71-2.94-.71-4.18s1-2 2.58-2 2.94 2.13 2.94 5.07c0 7.39-4.27 16.29-9.52 23a6.55 6.55 0 0 0 5.07 2.13c4.2-.08 8.98-3.82 13.87-11.29z"/><path class="cls-1" d="M338.73 60.17a1.74 1.74 0 0 1 3.3.8 2.4 2.4 0 0 1-.36 1.24c-5.52 8.55-12 16.65-19.31 16.65-4.63 0-8.55-3.21-8.55-9.26a4.71 4.71 0 0 1 .09-1.16c-4.27 5.88-9.35 10.42-14.68 10.42-6 0-10.24-3.92-10.24-11 0-13.17 13.62-26.61 24.56-26.61 4 0 7.13 1.42 8.82 4.36.8-2.67 2.4-4.36 3.82-4.36a2.14 2.14 0 0 1 2.41 2.13c0 1.52-1.52 4.19-4 8.19-2.76 6-6 13.09-6 18.07 0 3.92 1.78 5.7 4.45 5.7 4.75-.04 10.62-7.34 15.69-15.17zM313 64.44a73.49 73.49 0 0 0 7.48-14.69c-.45-3-2.85-4.89-7-4.89-8.28 0-19.41 12.37-19.41 23.32 0 4.54 2.58 6.94 5.61 6.94 4.52 0 9.15-4.63 13.32-10.68z"/><path class="cls-1" d="M357.87 75.3c4.71 0 10.59-7.3 15.66-15.13a1.73 1.73 0 0 1 3.29.8 2.47 2.47 0 0 1-.35 1.24c-5.52 8.55-12 16.65-19.32 16.65-4.8 0-7.92-3.3-7.92-8.9 0-7.12 7.75-15 7.75-19.94 0-2.4-3.47-3.38-5.61-4.72-2.76 5.43-6 11-9.7 16.82-.45.72-.89 1.25-1.69 1.25a1.69 1.69 0 0 1-1.78-1.6 2.83 2.83 0 0 1 .53-1.6A129.4 129.4 0 0 0 348 43.26V42.1c0-6 3-10 5.25-10 1.87 0 2.94 1.07 2.94 2.58s-.9 4.1-2.76 7.39c2.93 2.31 8.45 3.56 8.45 7.74 0 6-7.92 13.35-7.92 20.74.04 3.06 1.5 4.75 3.91 4.75z"/><path class="cls-1" d="M386.08 70.49a1.71 1.71 0 0 1 1.42-1.07 1.5 1.5 0 0 1 1.43 1.52c0 2.49-4.19 7.92-9.08 7.92s-8.19-3.12-8.19-9.35c0-6.05 3.47-14.59 6.67-20.74 2.76-5.34 4.19-7.56 5.52-7.56a2.14 2.14 0 0 1 2.41 2.13c0 1.52-1.34 4.19-3.83 8.19-2.94 5.88-5.88 12.82-5.88 18.16 0 4 1.61 5.61 3.83 5.61s4.18-2.3 5.7-4.81zm4.72-43a3 3 0 0 1 3.2 3.12c0 1.6-1.51 4.18-4 4.18a3 3 0 0 1-3.29-3c-.01-1.88 1.86-4.29 4.09-4.29z"/></svg>