<svg xmlns="http://www.w3.org/2000/svg" viewBox="0 0 166.27 107.47"><defs><style>.cls-1,.cls-2{fill:none;stroke:#000;stroke-linecap:round;stroke-linejoin:round;}.cls-1{stroke-width:0.62px;}.cls-2{stroke-width:0.25px;}</style></defs><title>アセット 3</title><g id="レイヤー_2" data-name="レイヤー 2"><g id="情報"><path class="cls-1" d="M3.43,57c1.31-2.92,4.67-5.9,12.83.51"/><path class="cls-1" d="M5.4,63.39c-.22-5.28,3.84-8.6,12.39-4.84"/><path class="cls-1" d="M7.75,67.66c-1-4.36,1.53-9.38,7.2-8.94s11.26,2.36,14.75,5.1"/><path class="cls-1" d="M10.15,73c-1.52-1.36,1.62-6.07,4.37-7.51a16.08,16.08,0,0,1,12-1.92c2.22.44,4.78.64,6.32,1.11,2,.64,4.37,4.83,5.94,6"/><path class="cls-1" d="M8.1,68.62c1-3.62,2.4-8,11.35-7.89"/><path class="cls-1" d="M13.77,70.8c4.8,1.49,11.91-.17,17.24-1.52"/><path class="cls-1" d="M20.32,65c3.18,3,9.55,3.66,12.56,4.32"/><path class="cls-1" d="M27.9,70.67c4.63,1.62,10.87,1.88,13.53,3.45"/><path class="cls-1" d="M21.63,75.43c1.26,4.93,4.14,7.87,7.54,7.61S36,73.62,39.51,74.12a32.56,32.56,0,0,0,6.2.52"/><path class="cls-1" d="M32.36,82.85c4.1,3.4,7.37,4.05,10.51,3s6-8.6,7.29-12.35"/><path class="cls-1" d="M40.91,76c4.36-.7,6.81-2.31,9.82-3.18"/><path class="cls-1" d="M56.62,76.3c-1.23,4.58-2.8,9.82-13.75,9.56"/><path class="cls-1" d="M1.56,53.05c2.53-2.4,5-3,9.6.26"/><path class="cls-1" d="M27.33,37.09c2.7-1.15,8.77-3.9,14.89,2.42s10.22,11.13,10.46,20"/><path class="cls-1" d="M14.71,44.88c-2.25,1.4,2.71,12,4.31,14.41"/><path class="cls-1" d="M11.16,44.88C9.1,45.9,10,51.19,12.46,55"/><path class="cls-1" d="M.31,53.1c1.16.78,3.92.57,6.8,0"/><path class="cls-1" d="M3.06,51.07C1.9,47.85,2.51,40.72,7.55,39c3.92-1.35,8-.72,12.7-.34"/><path class="cls-1" d="M9.33,45.92c-1.74-3.28-2.94-5.31,0-6.66"/><path class="cls-1" d="M51.21,65.74a22.89,22.89,0,0,0-5.39-4.13,2.85,2.85,0,0,0-2.59.35c-.94.7-2.44,1.93-2.24,2.91s1.74,4.09,3.34,4.41a1.61,1.61,0,0,0,1.85-1.62"/><path class="cls-2" d="M42.4,65.84a3.25,3.25,0,0,0,2.14.37"/><path class="cls-1" d="M43.93,65a11,11,0,0,0,2.75,3c1.09.68,2.74,3.72,3.35,4.21a30.07,30.07,0,0,0,11.09,5.7c3.62.81,5.33,1.21,6.85.42s8.78,3.56,11.7,4"/><path class="cls-1" d="M53.76,61.33c-1.25.08-2.37,1.22-3.5,2.83"/><path class="cls-1" d="M51.43,62.26c.64-1.52,1.91-4.47,3.33-4.45a16.84,16.84,0,0,1,4.53,1.25"/><path class="cls-1" d="M56.61,58c1.14-.59,2.49-1.54,4.16-.09a34.26,34.26,0,0,0,4.59,3.52c1.71,1.06,3.33,2.93,5.87,3.51s5.59,1.44,8.44,1.32"/><path class="cls-1" d="M64.88,73.51c.28,1.84.46,3.71,3.09,4.73"/><path class="cls-1" d="M58.73,77.1c-1.08.94-1.67,1.66-2.67,1.14"/><path class="cls-1" d="M48.36,69.84a12,12,0,0,0-.17,3.67"/><path class="cls-1" d="M15.58,74.1c0-2.89,1.71-3.69,3.87-2.1s3.32,4.43,3.11,8.08-.91,4.82-2.31,5.18-3.4-1.6-3-2.73.66-1.6,1.76-1.63"/><path class="cls-1" d="M17.42,72.57c1.45.35,3.58,1.63,3.72,3.38s.21,4.45-.53,5.44"/><path class="cls-1" d="M17.6,76.3a3.26,3.26,0,0,1,.78,3.39"/><path class="cls-1" d="M2.92,57.81a75.45,75.45,0,0,0-1,8.48"/><path class="cls-1" d="M2.41,69.3c.6.92,2.19,2.37,2.28,2.83s-.45.89-.28,1.24c.29.6-.44,2-.51,3.88-.17,4.55,1,5.52,2.22,7.52S11,91.66,11.78,93c.47.77,0,2.43,1.08,3.47s4.45,2.66,6.74,1.89,2.61,1.27,3,3.29"/><path class="cls-2" d="M.12,56a6.94,6.94,0,0,1,4.34-1.41"/><path class="cls-1" d="M4.17,60.62c-.1,2.7-.28,3.75,1.22,5.22a6.43,6.43,0,0,1,2.16,3.44"/><path class="cls-1" d="M1.41,66.84c1.67.09,1.27,1.78,1.29,2.09,0,.67-1.25-1.22-1.29-2.09"/><path class="cls-1" d="M3.55,70.68a1.2,1.2,0,0,1-1,.42"/><path class="cls-1" d="M24.47,38.15c-2.87.79-6.61.42-8.21,2a8.49,8.49,0,0,0-2.49,4"/><path class="cls-1" d="M9.06,47c-1.48,1.25-2,2.19-1.29,4.41"/><path class="cls-2" d="M2.73,56C.12,57.18,0,59.36.31,61.33"/><path class="cls-1" d="M36.52,88.38c5.34.2,5.86-.08,8.58-2.07"/><path class="cls-1" d="M44.22,87.37c-.1,3.21,1.5,9.94,3.89,11.23s5.36,2.61,6.23,3"/><path class="cls-1" d="M23.18,77c2.6,3.91,6.27,4.44,9.18,2.26"/><path class="cls-2" d="M23.18,74.92c3.79.77,11.12-1.66,14.32-1.41"/><path class="cls-2" d="M25.07,76.3c3.44,1.4,8.63-.19,12-2"/><path class="cls-2" d="M25.47,77.67A9,9,0,0,0,35.5,76"/><path class="cls-2" d="M36.52,77.76c5.6.45,9.4.3,11.35-2.2"/><path class="cls-2" d="M37.09,81.39c5.08.26,8.93-1.7,11.71-6.32"/><path class="cls-2" d="M34,81.86c3.49,2.41,10,1.4,13.86-4.1"/><path class="cls-2" d="M55.36,75.88c-2.71,4.64-5.59,8.31-9.27,9.21"/><path class="cls-2" d="M45.46,84.17a13.39,13.39,0,0,0,5.75-10.68"/><path class="cls-2" d="M25.9,73c3.8,1.13,4.35.85,8.77.29"/><path class="cls-2" d="M42.4,68.62c-.33,2.09-.25,4.38.75,5.48"/><path class="cls-2" d="M43.15,68.86c0,2.26-.68,3.24,1.07,4.73"/><path class="cls-2" d="M52.68,59.47A7.15,7.15,0,0,0,49,63.39"/><path class="cls-2" d="M51.67,60.72A6.17,6.17,0,0,0,49.75,63"/><path class="cls-2" d="M44.22,69.65c0,1.53.52,3.72,1.49,4.63"/><path class="cls-2" d="M47.05,68.44c-.29,1.65-.75,4.42-.2,5.66"/><path class="cls-2" d="M16.57,69.28a33,33,0,0,0,9.56-.21"/><path class="cls-2" d="M20.73,68.44a38.69,38.69,0,0,0,6.6-.28"/><path class="cls-2" d="M34.67,69.65c3.58,1.17,4.38,2.21,6.3,2.92"/><path class="cls-2" d="M34.36,59.19c.68,3.79,2.37,8.91,4,10.46"/><path class="cls-2" d="M36.52,62.75a34.78,34.78,0,0,1,3.16,8.14"/><path class="cls-2" d="M7.74,47.48c-1.95-2.23-2.1-7.74-.19-8.5"/><path class="cls-2" d="M6.72,46.86c-1.26-2.16-2.4-4.35-1.09-6.33"/><path class="cls-2" d="M4.1,58.69c1.15-2.3,2.83-4.85,5.91-4.12"/><path class="cls-2" d="M5.05,60.62c.91-2.79,1.13-5.18,3.39-6"/><path class="cls-2" d="M6.2,64.67c0-2.33.39-6.21,4.15-7.47"/><path class="cls-2" d="M16.26,40.1c-2.49,4,2.49,16.37,4.47,19.09"/><path class="cls-2" d="M18.16,52.55c2.11,3.84,3.33,6.15,3.92,7.61"/><path class="cls-2" d="M8.44,70.33c.31-1.4,4.14-7.61,10.1-8.81"/><path class="cls-2" d="M9.33,72c-.37-1.65,1.74-6.46,8.09-9.42"/><path class="cls-2" d="M21.35,64a20.46,20.46,0,0,0,9.73,4.12"/><path class="cls-2" d="M22.39,63.18a28.75,28.75,0,0,0,9.74,4.48,15.87,15.87,0,0,1,5.69,2.18"/><path class="cls-2" d="M12.49,70.89c.28,4.62,4.14,18.69,8.86,21.65"/><path class="cls-2" d="M13.35,72.85c2.32,2.88,9.65,9.05,14,8.87"/><path class="cls-2" d="M33.32,85.46a9.16,9.16,0,0,0,9.08,1.35"/><path class="cls-2" d="M29.08,37.09c15.14,4,19,24,19,25.66"/><path class="cls-2" d="M31.45,36.63C48.8,43.69,49,57.81,49.28,62.75"/><path class="cls-2" d="M41.43,69.84C41.07,67.68,37.5,52.08,32,45.92c-1.88-2.09-3.46-3-5-7.77"/><path class="cls-2" d="M31.45,40.12c6.05,9.13,10,15.86,10.16,23.27"/><path class="cls-2" d="M28.54,52a67.73,67.73,0,0,1,5.82,13.59"/><path class="cls-2" d="M29.08,53.31c.52,2.7,2.75,9.7,3.28,11.22"/><path class="cls-2" d="M19,44.88c1.13,3.1,4.89,14.37,6.87,16.64"/><path class="cls-2" d="M30.1,63.18c-2.25-1.35-6.6-12.27-8.47-15.7-.85-1.54-2.81-6-1.38-8.84"/><path class="cls-2" d="M53.57,74.59c-1,2.76-5.48,9.2-7.86,10.5"/><path class="cls-2" d="M44.22,77.1c2.23-1.35,3.05-2.69,4.78-3.51"/><path class="cls-2" d="M21.57,73.77A27.36,27.36,0,0,0,27,70.24"/><path class="cls-2" d="M21.82,74.59a29.83,29.83,0,0,0,6.08-3.48"/><path class="cls-2" d="M33.32,69.65a52.13,52.13,0,0,0,5.5,3.2"/><path class="cls-2" d="M34.67,72.28c-2-1.3-3.1-1.84-4.19-2.75"/><path class="cls-2" d="M7.31,60.72a7.06,7.06,0,0,1,6.46-3.51"/><path class="cls-2" d="M13.14,48.54a16.12,16.12,0,0,0,.63,7"/><path class="cls-2" d="M14.39,52.55c-.08,1.38-.08,1.73-.2,3.43"/><path class="cls-2" d="M12.24,43.86c-1.45-1.77-2.7-4.16-.2-5.25"/><path class="cls-2" d="M13,43.49c-1-2.15-2.32-3.67-.16-4.88"/><path class="cls-2" d="M23.18,39.26c-.28,2.06,6,9.52,7.54,12.82s4.49,10.46,4.78,14.21"/><path class="cls-1" d="M20.12,42.21c2.86,3.12,9.09,13.07,10.6,20.54"/><path class="cls-2" d="M50.84,71.67c.43-1.15,1.57-3,2.73-3.47"/><path class="cls-2" d="M57.39,59.29c2,1.22,5.86,3.73,8.21,4.46"/><path class="cls-1" d="M56.39,57.69a4.76,4.76,0,0,1-2.63-1,3.88,3.88,0,0,1-1.49-3.48c.2-.25,1.23.12,1.9.59a11.82,11.82,0,0,0,3.24,1.27c1.12.12,5.57-1.41,6.76-2.19a3.59,3.59,0,0,1,3.36,0c.92.32,5.11,1.93,6.45,2.59s2.56,4.22,4.85,5.26"/><path class="cls-1" d="M64.47,56.23a3,3,0,0,1-2.73,2.52"/><path class="cls-1" d="M62.55,58.93a2.09,2.09,0,0,0,2.1.67A4.09,4.09,0,0,0,68.08,62,6.25,6.25,0,0,0,72,61.12"/><path class="cls-2" d="M64,58.93a4.59,4.59,0,0,0,1.32-1.81"/><path class="cls-1" d="M104.58,106.43s-.62-2.1-1.09-3.19a8.22,8.22,0,0,1-.41-3.61c0-1.47-.31-7.7-.31-9.74a21.31,21.31,0,0,0-1.19-7.3c-.91-2.25-2.13-4.91-2.1-6.54s0-4.51.69-5.86a29.52,29.52,0,0,0,1.31-3.48,6.86,6.86,0,0,1-.82-2.43c0-.94.67-2.34.54-3.7a33,33,0,0,1-.27-5.49c.15-2,.21-3.49,2.11-4.07s3.76-1.21,5-1.52c.65-3.85,1.75-7.13,3.47-9.23s4.57-4.88,6.76-5.93c.52-.26.76-1.57.88-2.7s.08-2.18.19-2.47a3.12,3.12,0,0,1,2.55-.81,6.15,6.15,0,0,1,1.17.48s2-.59,3.51-1,5.09-.83,6.91.28,2.52,3.08,4.73,4,5.61,3,7.33,3.74,3.52,4,4.21,5.75.38,3.12,1.44,5.22,1.94,6.13,2.6,7.2.44,5,.44,5.73a12.24,12.24,0,0,1-.31,2.07s.31,1.33.81,2.75.32,4,.19,6.49.42,6.06.5,9.42.61,10.27.61,10.9c0,.35-.3.56-.48,1s-1.09,1.94-1.61,2.86a2.55,2.55,0,0,1-2.35,1.3c-.89,0-1.49.15-1.46.86a22.27,22.27,0,0,0,.46,4.63c.41,1.27,1,4.37,1,4.37"/><path class="cls-1" d="M113,106.43c-.94,0-3.88-1.81-4.54-5-.72,2.6-1.16,5-1.16,5"/><path class="cls-1" d="M135.48,55.23c-2-.42-3.94-3.29-6.5-5.4s-9-2.21-12-2a62.38,62.38,0,0,0-9,1.72c-1.21.31-3.07.94-5,1.52s-2,2-2.11,4.07a33,33,0,0,0,.27,5.49c.13,1.36-.54,2.76-.54,3.7a6.86,6.86,0,0,0,.82,2.43,10.91,10.91,0,0,1,1.64,3.56c.21,1.51.09,3.22,1.63,5s2.88,3.5,3.55,3.88c-.88,2.1-2.13,4.27-2.42,5.94s-2.06,5-2,5.46.68,1,1.27,1.18a57.27,57.27,0,0,0,12.07,1.74c5,0,12.44-.45,12.44-.45"/><path class="cls-2" d="M135.31,46.57c-.34-2.47.21-7.8-.65-9.43-.41-.76,1.28-.92,1.72.29"/><path class="cls-1" d="M136.38,39.71c.2,2-.45,6-.76,8.87a61.16,61.16,0,0,0,.16,9.67c.19,2.84,1.15,5.28,1.21,7.87s1.22,5.11,1.26,7-.21,6.47.54,8.31,2.6,3.76,2.91,5.45a65.09,65.09,0,0,0,2.2,7.71c.87,2.47,3.07,8.9,3.5,10.18"/><path class="cls-2" d="M148,92.16a104,104,0,0,1-5.66-12.91c-.48-1.71-2-3.82-2.65-3.4s-.17,3.49,1,4.87,3.49,6,4.33,7.53"/><path class="cls-2" d="M142.57,87.59a66.26,66.26,0,0,1,4.51,7,3.08,3.08,0,0,0,2.84,1.76"/><path class="cls-2" d="M143.55,90.34c.21,1.55,2,5.39,4,6.2"/><path class="cls-2" d="M137.62,33.52A23.85,23.85,0,0,1,144,42.17c1.59,3.59,8.4,20.8,9.36,22.8"/><path class="cls-2" d="M151.28,63.88A25.5,25.5,0,0,1,153.62,71"/><path class="cls-2" d="M151.82,77.21c-.12,3.67-.67,7.64-.54,9.52s1.92,5,1.88,6.71"/><path class="cls-2" d="M128,38.11c-2.17,1.74-2.79,7.52-2.4,10.11"/><path class="cls-2" d="M117.23,37.18c-1.4,2.53-2.87,8.52-3.12,10.6"/><path class="cls-2" d="M137.08,97.55a127.37,127.37,0,0,0,1.27-18.43"/><path class="cls-2" d="M101.83,74.79c-.22-1.5-.44-2.75-.88-2.56s-1.22,1.75-.81,3.94"/><path class="cls-2" d="M101.83,77.49a85.74,85.74,0,0,1,2,13c.07,2.25,1.82,5.07,1.73,6.42a38.5,38.5,0,0,0,.47,6.67"/><path class="cls-1" d="M136.67,32a10.24,10.24,0,0,0-5.32,1.23c-1.8.87-7.39,2.59-9.45,2.49s-2.69-.21-3.57-1"/><path class="cls-2" d="M153.37,54c-2.18-1.26-6.26-2.49-11.35,1.23"/><path class="cls-1" d="M128.52,50.48c-1.51.71-1.13,2.54-1.09,4.13s.42,7.23.58,9.61.92,5.22,1,6.81,1.46,5.84,1.46,6.93"/><path class="cls-1" d="M128.72,79.5a91.44,91.44,0,0,1-13,1.47c-2.9-.09-5.73-.57-7.37-1.85"/><path class="cls-1" d="M137.08,70a79.72,79.72,0,0,1-12.74,13.74c-.46.46.07,1,.46,1.57,2.17,3.36,10.39,17.41,12.65,21.1"/><path class="cls-2" d="M136.88,71.32c-1.16,1.6-10.34,12.62-11.87,12.87"/><path class="cls-2" d="M134.94,59.29c-2.07-.47-3.95-1.1-4.61-1.25"/><path class="cls-2" d="M129.86,59.45c-.06-1.76,0-5.2-.81-5s-.91.53-.78,2.91a87.23,87.23,0,0,0,.77,9.52c.48,2.38,1.81,7.11,1.9,9.24"/><path class="cls-2" d="M136.38,70.85a19,19,0,0,1-6.27.18"/><path class="cls-2" d="M135.21,72.55a21.75,21.75,0,0,1-4.88,0"/><path class="cls-1" d="M155.19,93c2.42,1.33,5.93,3.23,6.83,4.31s2.23,3.39,2.56,3.79c.82.09,1.35.31,1.37.73s.1,2.31-.47,2.9a2.4,2.4,0,0,0-.45,1.69"/><path class="cls-2" d="M165.42,102c-.29-.28-.61.18-1.54.92a20.37,20.37,0,0,1-3.69,2.73"/><path class="cls-2" d="M159.12,97c.41-.53.67-.78.46-.89s-.76,0-1.29.83a22.35,22.35,0,0,1-4,4.48,11.61,11.61,0,0,1-2.89,1.79"/><path class="cls-2" d="M150.12,97.94a116,116,0,0,0,11.18,6.29"/><path class="cls-2" d="M135.21,56.33c-2-1.25-5.12-4.35-6-5s-1.22.05-1.25,1.11.06,1.42,0,2.3"/><path class="cls-2" d="M135.1,57.08A57,57,0,0,1,128,52.14"/><path class="cls-2" d="M135.35,58.39c-1.6-1-5.59-4-7.31-4.75"/><path class="cls-1" d="M120.86,8.79A6,6,0,0,0,120,11.6a1.81,1.81,0,0,0-.45,1.67,4.3,4.3,0,0,0-.32,2.29c-.76.89-1.7,1.9-1.7,3.2a5,5,0,0,0,.56,5.25A3.94,3.94,0,0,0,122,25.88a4.8,4.8,0,0,0,3.21-1.57c0,1.19.08,3.89.08,3.89"/><path class="cls-1" d="M137.23,15.09c-.15-.9-.94-1.93-1.74-1.38s-1,1.24-1,2.45a8.41,8.41,0,0,0,1,3.77c.57.87.48,1.6,1.27,1.5s1.05-2,.6-2.32"/><path class="cls-2" d="M136.36,14.33c-.39-.19-1.06.25-1.18,1s.47,3.08,1.13,3.5"/><path class="cls-2" d="M136.66,15.54c-.08-.62-.56-1-.61-.31s-.45,1.21-.29,1.72.3,1.24.74,1.46"/><path class="cls-1" d="M143.86,11c-.62.67-.66,2-1.19,2.3A3.51,3.51,0,0,0,141,15.6,3.64,3.64,0,0,1,139.1,18c-.71-1-1-2.72-1.86-3.18"/><path class="cls-2" d="M145,10.61c0,1-1.49,2.26-2.85,3.1"/><path class="cls-2" d="M144,10.42c-1.57,1.28-2.8,2.82-5,2.91"/><path class="cls-2" d="M143.41,9.74a15.17,15.17,0,0,1-6,2.42c-4.31,1-14.66,1.17-14.66,1.17"/><path class="cls-2" d="M125.07,9.09c-1.59.39-3.36,2-4,2.48"/><path class="cls-2" d="M121.06,9.6c.06.77-.47,2.5,0,3.33"/><path class="cls-2" d="M124.45,8.17A11.25,11.25,0,0,0,121,10.75"/><path class="cls-2" d="M134.19,14.78a21.82,21.82,0,0,1-7.2,1.58"/><path class="cls-2" d="M127.05,19.41a8.12,8.12,0,0,0-5.89-1.91"/><path class="cls-2" d="M127.74,22.24c-1.13-1.85-4.89-4-6.15-4"/><path class="cls-2" d="M125.19,24.31a17.05,17.05,0,0,1-4.33-4.73"/><path class="cls-2" d="M123.72,25.43c-2-1.13-4.59-3.42-4.85-5.13"/><path class="cls-1" d="M128.2,19.68c-.17-2.06-.86-4.37-3.92-4.11"/><path class="cls-1" d="M125.8,15.25c-1.57-.74-2.55-1.62-3.86-.76"/><path class="cls-2" d="M129.13,20.69c-.08,1.07-.4,1.83-1,1.89-.63,1-1.32,2-2.94,1.73"/><path class="cls-2" d="M119.94,16.75a3.32,3.32,0,0,0-2.38,2"/><path class="cls-2" d="M131.68,18a33.76,33.76,0,0,1-3.71.24"/><path class="cls-2" d="M131,19.26a8.69,8.69,0,0,1-2.84,0"/><path class="cls-1" d="M145.24,7.89c1,1.23,2.51,5.15-.29,7a4.63,4.63,0,0,1-1.09,1.7,7.14,7.14,0,0,1,.95,3.88,6.41,6.41,0,0,1-1,3.6,12.17,12.17,0,0,0-1.71,3.56c-.16.91,0,1.81-.64,2.28a4.15,4.15,0,0,1-2.49.81,8.49,8.49,0,0,1-3.44-.7"/><path class="cls-2" d="M143.41,7.89c.81.77,2,2.59,1.78,3.5"/><path class="cls-2" d="M134.06,25.5c1,1.35,1.78,3.9,2.61,4.39"/><path class="cls-2" d="M140.34,14a26.19,26.19,0,0,0-4-.39"/><path class="cls-1" d="M141.05,4.12C137.58,0,125.27-2.71,121.16,6.5"/><path class="cls-1" d="M145.38,16.29a1.58,1.58,0,0,1-.88-.52"/><path class="cls-2" d="M142.79,8.64C141.12,9.83,138.34,11,137,11"/><path class="cls-2" d="M123.31,7.78c-.9.62-1.84,1.28-2.25,1.55"/><path class="cls-1" d="M132.86,15.92c-.6,1-1.63,3.19-2.14,4.06"/><path class="cls-2" d="M131.41,22.24a8,8,0,0,1-2-.65"/><path class="cls-2" d="M129.94,23.77a6,6,0,0,1-1.81-1.19"/><path class="cls-2" d="M129,24.51a6.38,6.38,0,0,0-1.69-.88"/><path class="cls-2" d="M118.07,36.38c1,3.28,2.09,8.5,1.74,10.76"/><path class="cls-2" d="M134.32,48.6a33.64,33.64,0,0,1,.15,5.88"/><path class="cls-2" d="M140.17,42.21c-1.88,3.18-3.7,7-3.79,8.93"/><path class="cls-2" d="M149.92,54a35.7,35.7,0,0,0,2.87,3.68,2.31,2.31,0,0,1,.58,2.46"/><path class="cls-2" d="M160,96.86c-.91,1.06-4.23,6.36-5.63,7"/><path class="cls-2" d="M148.93,97.77a3,3,0,0,0-.37,3.54,19.63,19.63,0,0,1,2.14,3.43"/><path class="cls-2" d="M165.42,103.35c-1.08.88-3.22,1.57-3.78,2.33"/><path class="cls-2" d="M163.11,105.83a18.19,18.19,0,0,1-3.36,1.52"/><path class="cls-2" d="M106.23,78.63a67.39,67.39,0,0,1-.56,7.24"/><path class="cls-2" d="M131.45,62c.14,1.44.82,6.9.36,7.51s-.88-.15-1.33-.63-.84-1.85-1.34-2.21"/><path class="cls-2" d="M131.06,59.29c-.5.49,0,2.15-.73,2.59s-.78.51-1.63.28"/><path class="cls-2" d="M132.11,36.38a35.85,35.85,0,0,1,.71,9"/><path class="cls-2" d="M120.87,78.27c-3.54-2.47-15-10-18.46-10.82"/><path class="cls-2" d="M108.3,81.45c.13,1.39,2.21,4.37,3.12,5.93"/><path class="cls-2" d="M126.55,80.76a43,43,0,0,1-6.14.52"/><path class="cls-2" d="M124.16,37.79a12.25,12.25,0,0,1-3.77,3.77"/></g></g></svg>