<svg xmlns="http://www.w3.org/2000/svg" viewBox="0 0 29.14 9.97"><title>アセット 6</title><g id="レイヤー_2" data-name="レイヤー 2"><g id="情報"><path d="M6.12,3.48C7.1,2.31,8.49,1,9.88,1a1.72,1.72,0,0,1,1.94,1.8c0,2.47-2.25,5.1-4.56,5.1-1.19,0-1.89-.52-1.89-.85a.48.48,0,0,1,.46-.48.64.64,0,0,1,.39.16,1.7,1.7,0,0,0,1,.31c1.65,0,3.48-2.3,3.48-4.25a.81.81,0,0,0-.86-.92c-1,0-2.4,1.29-3.43,2.52A9.7,9.7,0,0,0,5,6.52c-.41.82-.94,2-1.19,2.59S3.33,10,3,10a.48.48,0,0,1-.51-.52,5.27,5.27,0,0,1,.92-1.94c.17-.32.71-1.43,1.06-2.35A7.2,7.2,0,0,0,5.13,2.9a1.09,1.09,0,0,0-.33-.85c-.47,1.59-2,3.36-3.33,3.36A1.3,1.3,0,0,1,0,4C0,2.57,2.05,1.12,3.91,1A1.28,1.28,0,0,0,3.82.56.29.29,0,0,1,3.75.38.44.44,0,0,1,4.21,0C4.6,0,5,.38,5,1.12v0a1.76,1.76,0,0,1,1.22,1.7A4,4,0,0,1,6.12,3.48ZM3.81,1.8C2.45,1.91,1,3,1,4.07a.45.45,0,0,0,.47.5C2.41,4.57,3.48,3.07,3.81,1.8Z"/><path d="M14.55,9.74a1.06,1.06,0,0,1-1.16-1.13c0-.9,1-2,1-2.69,0-.1-.08-.17-.21-.17-.47,0-1.19.73-1.68,1.32a7.21,7.21,0,0,0-1.19,2.24.52.52,0,0,1-.52.43.39.39,0,0,1-.42-.41.68.68,0,0,1,.05-.27C11.09,7,12.06,4.72,12.79,3a.73.73,0,0,1,.65-.5.4.4,0,0,1,.45.39A2.91,2.91,0,0,1,13.38,4l-1,2.31A3.22,3.22,0,0,1,14.37,5a1,1,0,0,1,1,.93c0,.9-1,1.84-1,2.73,0,.25.12.4.3.4.46,0,1.05-.71,1.55-1.48.14-.23.27-.39.48-.39a.38.38,0,0,1,.41.35.36.36,0,0,1-.07.22C16.39,8.82,15.5,9.74,14.55,9.74Z"/><path d="M20.25,9.2a3.24,3.24,0,0,1-.73-.09,2.67,2.67,0,0,1-1.62.63,1.55,1.55,0,0,1-1.74-1.6,3.3,3.3,0,0,1,3-3.11c1.08,0,1.72.56,1.72,1.53a3.32,3.32,0,0,1-.77,2l.25,0a1.67,1.67,0,0,0,1.33-.94c.14-.23.28-.39.49-.39a.37.37,0,0,1,.4.35.43.43,0,0,1-.06.22A2.68,2.68,0,0,1,20.25,9.2ZM19.14,5.75c-.76,0-1.84,1.2-1.84,2.42,0,.56.32.84.72.84a1.29,1.29,0,0,0,.8-.34.34.34,0,0,1,0-.16A.54.54,0,0,1,19.34,8a3,3,0,0,0,.43-1.49C19.77,6,19.51,5.75,19.14,5.75Z"/><path d="M25,7.22a.38.38,0,0,1,.41.35.36.36,0,0,1-.07.22c-.67,1-1.56,2-2.5,2A1.16,1.16,0,0,1,21.53,8.5a8.39,8.39,0,0,1,.89-2.82h-.34c-.25,0-.4-.1-.4-.33s.15-.32.4-.32h.63l.58-1.11c.36-.71.67-.94.9-.94a.4.4,0,0,1,.45.39,2.33,2.33,0,0,1-.43.89L23.83,5h.47c.24,0,.38.13.38.3s-.15.35-.38.35h-.79a8.64,8.64,0,0,0-1,2.9c0,.36.18.51.42.51.46,0,1.05-.71,1.55-1.48C24.66,7.38,24.79,7.22,25,7.22Z"/><path d="M26.16,9.74a1.55,1.55,0,0,1-1.74-1.6,3.3,3.3,0,0,1,3-3.11c1.08,0,1.72.56,1.72,1.53A3.38,3.38,0,0,1,26.16,9.74Zm1.24-4c-.76,0-1.84,1.2-1.84,2.42,0,.56.32.84.72.84C27.17,9,28,7.69,28,6.53,28,6,27.77,5.75,27.4,5.75Z"/></g></g></svg>