<svg xmlns="http://www.w3.org/2000/svg" viewBox="0 0 454.21 50.43"><title>アセット 5</title><g id="レイヤー_2" data-name="レイヤー 2"><g id="情報"><path d="M24.42,14.17C28.56,9.37,34.5,4,40.27,4c4.31,0,6.82,2.34,6.82,5.77C47.09,17,35.73,27,35.73,34A2.21,2.21,0,0,0,38,36.53c2.11,0,5.1-2.73,7.21-6,.58-.93,1.1-1.59,1.94-1.59a1.54,1.54,0,0,1,1.63,1.41,1.62,1.62,0,0,1-.26.88c-3,4.62-6.91,8.67-11,8.67-3.52,0-6.29-2.11-6.29-5.9,0-7.57,11.31-17.64,11.31-24.33,0-1.5-1-2.2-2.64-2.2-4,0-10,5.06-14.17,10.12a38.57,38.57,0,0,0-5.55,8.58c-1.63,3.26-3.78,8-4.8,10.34-1.14,2.6-2.15,3.43-3.3,3.43a1.88,1.88,0,0,1-1.93-2.06c0-1.41,1.32-3.92,3.69-7.75.66-1.28,2.82-5.72,4.23-9.42,1.67-4.35,2.46-7.26,2.46-9.28a4.13,4.13,0,0,0-1.23-3.21C17.34,14.57,11.31,21.65,5.9,21.65c-3.7,0-5.9-2-5.9-5.54,0-5.81,8.19-11.62,15.62-12a4.12,4.12,0,0,0-.35-1.9,1.32,1.32,0,0,1-.26-.7A1.72,1.72,0,0,1,16.85,0c1.54,0,2.95,1.54,2.95,4.49v.18a6.85,6.85,0,0,1,4.89,6.6A14.81,14.81,0,0,1,24.42,14.17ZM15.23,7.22c-5.37.44-11,4.71-11,9.06a1.79,1.79,0,0,0,1.85,2C9.73,18.26,14,12.28,15.23,7.22Z"/><path d="M57.42,20.16a4.24,4.24,0,0,1,4,2.24,3.39,3.39,0,0,1,2.81-2.24,1.48,1.48,0,0,1,1.67,1.49c0,.62-.52,1.63-1.8,3.7-1.67,3.69-3,6.82-3,9.06,0,1.37.57,2,1.27,2,1.85,0,4.18-2.81,6.16-5.89.58-.93,1.11-1.59,1.94-1.59a1.54,1.54,0,0,1,1.63,1.41,1.62,1.62,0,0,1-.26.88c-2.69,4.14-6.21,7.79-10,7.79-2.42,0-4.45-1.32-4.8-3.78C55.13,37.45,52.84,39,50.47,39c-3.35,0-5.72-2-5.72-5.63C44.75,26.8,51.35,20.16,57.42,20.16Zm-6,16c1.76,0,3.57-1.84,5.24-4.31A36.71,36.71,0,0,0,60.15,25C60,23.72,59,22.93,57.33,22.93c-3.43,0-8,5.59-8,10.6C49.32,35.29,50.2,36.17,51.39,36.17Z"/><path d="M81.8,28.91a1.46,1.46,0,0,1,1.36,2.29c-2.68,4.14-6.25,7.79-10,7.79-3.21,0-5.24-1.67-5.24-4.93,0-2.64,1.63-7,3.57-11.31H70.09c-1,0-1.58-.39-1.58-1.32s.61-1.27,1.58-1.27h2.55l2.29-4.45C76.38,12.89,77.62,12,78.54,12c1.1,0,1.8.62,1.8,1.54,0,.66-.61,1.8-1.71,3.57l-1.54,3.08H79c1,0,1.54.52,1.54,1.23,0,.92-.62,1.36-1.54,1.36H75.81C73.74,27.2,72,31.68,72,34.37c0,1.45.71,2,1.68,2,1.84,0,4.22-2.81,6.2-5.89C80.43,29.57,81,28.91,81.8,28.91Z"/><path d="M94.82,39c-2.46,0-4.58-1.32-4.88-3.92C88.09,37.36,86,39,83.91,39c-2.86,0-4.76-1.67-4.76-4.88C79.15,31.2,81,27,82.59,23.9,84,21,85.05,20.16,86.33,20.16A1.5,1.5,0,0,1,88,21.65c0,.71-.57,1.94-2.24,4.62-1.5,3.13-2.51,5.77-2.51,7.92,0,1.41.75,1.94,1.32,1.94,1.63,0,3.25-1.85,4.93-4.27a50.49,50.49,0,0,0,4.18-8.32c1.14-2.68,2.15-3.38,3.43-3.38a1.43,1.43,0,0,1,1.54,1.45c0,.7-.57,2-2.24,4.66C94.91,29.4,93.9,32,93.9,34.19c0,1.59.83,2.2,1.45,2.2,1.85,0,4.22-2.81,6.2-5.89.58-.93,1.1-1.59,1.94-1.59a1.46,1.46,0,0,1,1.36,2.29C102.17,35.34,98.65,39,94.82,39Z"/><path d="M102.92,32.79a1.53,1.53,0,0,1-1.63-1.41,1.62,1.62,0,0,1,.26-.88,72.39,72.39,0,0,0,5.15-9.38v-.61c0-3.08,2.07-5.11,3.56-5.11a1.85,1.85,0,0,1,2.07,1.85A8.43,8.43,0,0,1,111,20.64c1.89,1.1,4.45,1.94,4.45,4.05,0,2.9-3.88,6.2-3.88,9.81,0,1,.44,1.58,1.19,1.58,1.81,0,4.1-2.5,6.08-5.58.57-.93,1.1-1.59,1.93-1.59a1.5,1.5,0,0,1,1.63,1.41,1.43,1.43,0,0,1-.26.88C119.46,35.34,116,39,112.24,39c-2.86,0-4.66-1.67-4.66-4.49,0-3.48,3.78-7.35,3.78-9.72,0-.88-.88-1.37-1.8-1.85a88.35,88.35,0,0,1-4.71,8.27C104.28,32.12,103.75,32.79,102.92,32.79Z"/><path d="M131.08,20.16a4.23,4.23,0,0,1,4,2.24,3.39,3.39,0,0,1,2.82-2.24,1.48,1.48,0,0,1,1.67,1.49c0,.62-.53,1.63-1.8,3.7-1.68,3.69-3,6.82-3,9.06,0,1.37.57,2,1.28,2,1.85,0,4.18-2.81,6.16-5.89.57-.93,1.1-1.59,1.94-1.59a1.46,1.46,0,0,1,1.36,2.29c-2.68,4.14-6.2,7.79-10,7.79-2.42,0-4.44-1.32-4.8-3.78-1.93,2.24-4.22,3.78-6.6,3.78-3.34,0-5.72-2-5.72-5.63C118.4,26.8,125,20.16,131.08,20.16Zm-6,16c1.76,0,3.56-1.84,5.23-4.31A36.71,36.71,0,0,0,133.8,25c-.17-1.32-1.14-2.11-2.81-2.11-3.43,0-8,5.59-8,10.6C123,35.29,123.86,36.17,125.05,36.17Z"/><path d="M149.16,34.63a1.79,1.79,0,0,1,1.54-1.05,1.09,1.09,0,0,1,1.14,1.1c0,1.45-2.33,4.31-5.41,4.31s-5.06-1.63-5.06-4.93c0-4.27,4.53-14,7.83-20.37,1.24-2.38,2.69-3.74,3.61-3.74a1.6,1.6,0,0,1,1.76,1.62c0,1.72-2.55,6.12-5.37,10.92h0c-2.11,4.66-3.74,9.06-3.74,11.7,0,1.46.61,2.16,1.45,2.16A3.24,3.24,0,0,0,149.16,34.63Z"/><path d="M186.43,30.5c.57-.93,1.1-1.59,1.93-1.59A1.54,1.54,0,0,1,190,30.32a1.62,1.62,0,0,1-.26.88A15.76,15.76,0,0,1,176,39c-5.23,0-8.18-2.2-8.18-6.38,0-6.82,7.21-12.45,12.54-12.45,3.26,0,5.24,1.58,5.24,3.56,0,2.51-2.12,4.4-3.61,4.4a1.9,1.9,0,0,1-2.16-1.89,7.11,7.11,0,0,1,1.41-3.13,2.27,2.27,0,0,0-1.06-.22c-3,0-7.74,4.62-7.74,9.77,0,2.29,1.58,3.39,4.05,3.39A11.46,11.46,0,0,0,186.43,30.5Z"/><path d="M198.66,20.16a4.21,4.21,0,0,1,4,2.24,3.4,3.4,0,0,1,2.82-2.24,1.48,1.48,0,0,1,1.67,1.49c0,.62-.53,1.63-1.8,3.7-1.67,3.69-3,6.82-3,9.06,0,1.37.58,2,1.28,2,1.85,0,4.18-2.81,6.16-5.89.57-.93,1.1-1.59,1.94-1.59a1.46,1.46,0,0,1,1.36,2.29c-2.68,4.14-6.2,7.79-10,7.79-2.42,0-4.44-1.32-4.79-3.78-1.94,2.24-4.23,3.78-6.6,3.78-3.35,0-5.73-2-5.73-5.63C186,26.8,192.59,20.16,198.66,20.16Zm-6,16c1.76,0,3.56-1.84,5.24-4.31A37.32,37.32,0,0,0,201.39,25c-.18-1.32-1.15-2.11-2.82-2.11-3.43,0-8,5.59-8,10.6C190.56,35.29,191.44,36.17,192.63,36.17Z"/><path d="M211.15,32.79a1.46,1.46,0,0,1-1.36-2.29,72.39,72.39,0,0,0,5.15-9.38v-.61c0-3.08,2.07-5.11,3.56-5.11a1.85,1.85,0,0,1,2.07,1.85,8.43,8.43,0,0,1-1.32,3.39c1.89,1.1,4.44,1.94,4.44,4.05,0,2.9-3.87,6.2-3.87,9.81,0,1,.44,1.58,1.19,1.58,1.8,0,4.09-2.5,6.07-5.58.58-.93,1.1-1.59,1.94-1.59a1.5,1.5,0,0,1,1.63,1.41,1.45,1.45,0,0,1-.27.88c-2.68,4.14-6.16,7.79-9.9,7.79-2.86,0-4.66-1.67-4.66-4.49,0-3.48,3.78-7.35,3.78-9.72,0-.88-.88-1.37-1.8-1.85a90.66,90.66,0,0,1-4.71,8.27C212.52,32.12,212,32.79,211.15,32.79Z"/><path d="M238.61,34c.7-.83,1.28-1.23,1.89-1.23a1.57,1.57,0,0,1,1.63,1.63c0,1.54-3.56,4.66-8.27,4.66-4.54,0-7.13-2.2-7.13-6.24,0-7.27,7-12.63,12.06-12.63,3.34,0,5.28,1.36,5.28,3.78,0,3.39-5.5,6.64-12.77,7.7a8.2,8.2,0,0,0,0,1A3.07,3.07,0,0,0,234.47,36,5.35,5.35,0,0,0,238.61,34ZM232,28.82c4.71-1,7.83-3,7.83-5.1,0-.57-.53-.88-1.27-.88C236.45,22.84,233.42,25.26,232,28.82Z"/><path d="M280.59,20c1.62,0,2.46.57,2.46,1.54,0,1.15-.92,1.81-2.82,1.81-.79,0-1.67-.31-3-.31a8.37,8.37,0,0,0-7.88,8.1c0,3,2.25,4.79,5.59,4.79,5.24,0,8.58-3.91,8.58-7.21a8,8,0,0,0-.08-1c-2.73,1.59-3.35,2.51-3.83,3.22a2.13,2.13,0,0,1-2,1.14,1.66,1.66,0,0,1-1.8-1.8c0-1.28,1.14-2.51,6.51-5.33,3.61-1.93,4.53-2.73,5.15-3.47a3.5,3.5,0,0,1,2.73-1.59,1.6,1.6,0,0,1,1.72,1.81c0,1.1-1.28,2.15-4.67,4a5.84,5.84,0,0,1,.75,3C288,33.62,282.87,39,274.87,39c-5.81,0-10.26-2.91-10.26-7.83s4.62-9,9.64-9.82a5.79,5.79,0,0,1-2.69-5.06c0-4.93,5.33-8.49,10.87-8.49,4.85,0,7.79,2.2,7.79,5.19,0,2.55-1.8,4.53-3.25,4.53a1.91,1.91,0,0,1-2.16-1.93A6.82,6.82,0,0,1,286,12.5c-.44-1-1.76-1.63-3.7-1.63-3.17,0-6,2.24-6,5.46,0,2.33,1,4,1.89,4S280,20,280.59,20Z"/><path d="M335.72,30.58l1.14,1.81c1.5,2.42,3.26,4.09,5.59,4.09,2.55,0,5.77-2.6,7.92-6,.57-.93,1.1-1.59,1.94-1.59a1.46,1.46,0,0,1,1.36,2.29c-3.08,4.75-7.21,8.71-12,8.71-3.87,0-6.64-2.59-9-6.64-.44-.66-.8-1.32-1.15-1.89a22.74,22.74,0,0,1-2.33.13c-2.9,0-4.49-1-4.84-2.29-1.28,2.69-2.55,5.59-3.26,7.26-1.19,2.6-2,3.43-3.21,3.43a1.9,1.9,0,0,1-2-2.06c0-1.41,1.32-3.92,3.69-7.75.66-1.28,2.82-5.72,4.23-9.42,1.63-4.26,2.46-7,2.46-9A4.46,4.46,0,0,0,325,8.23c-1.85,6.38-7.88,13.47-13.29,13.47-3.7,0-5.9-2-5.9-5.55,0-5.81,8.19-11.62,15.63-12a4.16,4.16,0,0,0-.36-1.89,1.48,1.48,0,0,1-.26-.71A1.74,1.74,0,0,1,322.65,0c1.54,0,3,1.54,3,4.49v.18a7.09,7.09,0,0,1,4.88,6.82,15.83,15.83,0,0,1-.22,2.51c4.05-4.75,10-10,15.71-10,4.62,0,7.66,2.6,7.66,7.27C353.63,19.5,345.4,27.86,335.72,30.58ZM321,7.26c-5.41.44-11,4.71-11,9.07a1.79,1.79,0,0,0,1.84,2C315.43,18.31,319.7,12.32,321,7.26Zm4.67,19.28a5.41,5.41,0,0,1,2.81-.71,6.55,6.55,0,0,1,5.11,2c7.52-1.85,15.57-9.37,15.57-16.59,0-2.46-1.32-3.74-3.38-3.74-4.14,0-10.17,5.06-14.35,10.08a38.53,38.53,0,0,0-5.54,8.58Z"/><path d="M370.48,28.91a1.46,1.46,0,0,1,1.36,2.29A15.76,15.76,0,0,1,358.16,39c-5.2,0-8.15-2.2-8.15-6.2,0-7.27,7-12.63,12.06-12.63,3.35,0,5.28,1.36,5.28,3.78,0,3.39-5.5,6.64-12.76,7.7a8.2,8.2,0,0,0,0,1c0,2.2,1.76,3.39,4.09,3.39a11.45,11.45,0,0,0,9.9-5.54C369.11,29.57,369.64,28.91,370.48,28.91Zm-15.19-.09c4.71-1,7.84-3,7.84-5.1,0-.57-.53-.88-1.28-.88C359.74,22.84,356.7,25.26,355.29,28.82Z"/><path d="M376.2,36.88a14.76,14.76,0,0,1,.3,2.68c0,5.86-3.74,10.87-7.52,10.87-2.64,0-4.45-1.54-4.45-4.75,0-2.73,1.24-7.35,3-12.41a149.08,149.08,0,0,1,7.62-17.82c1.89-3.74,4.48-5.5,6.73-5.5,2.55,0,4.22,1.36,4.22,4.09,0,5.54-6.11,13.29-13.2,17A8,8,0,0,1,375.18,34,4.52,4.52,0,0,0,376,34a8.73,8.73,0,0,0,6.73-3.52c.57-.93,1.1-1.59,1.94-1.59a1.46,1.46,0,0,1,1.36,2.29A12.8,12.8,0,0,1,376.2,36.88Zm-3.83-1.06a11,11,0,0,1-1.41-1c-1.45,4.4-2.51,8.4-2.51,10.78,0,1.49.35,2.07,1.1,2.07,1.63,0,3.39-3.79,3.39-8.1A11.74,11.74,0,0,0,372.37,35.82Zm6.38-19.45c-1.67,3.43-3.48,7.31-5.11,11.22,5.11-3.91,8.85-10,8.85-13.77,0-.88-.31-1.19-.71-1.19C381.12,12.63,380.2,13.38,378.75,16.37Z"/><path d="M384.11,32.79a1.46,1.46,0,0,1-1.36-2.29,72.39,72.39,0,0,0,5.15-9.38v-.61c0-3.08,2.07-5.11,3.56-5.11a1.85,1.85,0,0,1,2.07,1.85,8.43,8.43,0,0,1-1.32,3.39c1.89,1.1,4.45,1.94,4.45,4.05,0,2.9-3.88,6.2-3.88,9.81,0,1,.44,1.58,1.19,1.58,1.81,0,4.09-2.5,6.07-5.58.58-.93,1.1-1.59,1.94-1.59a1.5,1.5,0,0,1,1.63,1.41,1.45,1.45,0,0,1-.27.88c-2.68,4.14-6.16,7.79-9.9,7.79-2.86,0-4.66-1.67-4.66-4.49,0-3.48,3.78-7.35,3.78-9.72,0-.88-.88-1.37-1.8-1.85a88.35,88.35,0,0,1-4.71,8.27C385.48,32.12,385,32.79,384.11,32.79Z"/><path d="M420.15,28.91a1.54,1.54,0,0,1,1.63,1.41,1.62,1.62,0,0,1-.26.88A15.79,15.79,0,0,1,407.83,39c-5.19,0-8.14-2.2-8.14-6.2,0-7.27,7-12.63,12.06-12.63,3.34,0,5.28,1.36,5.28,3.78,0,3.39-5.5,6.64-12.76,7.7a6.57,6.57,0,0,0,0,1c0,2.2,1.76,3.39,4.09,3.39a11.47,11.47,0,0,0,9.91-5.54C418.79,29.57,419.32,28.91,420.15,28.91ZM405,28.82c4.71-1,7.83-3,7.83-5.1,0-.57-.52-.88-1.27-.88C409.42,22.84,406.38,25.26,405,28.82Z"/><path d="M423.49,39c-4.79,0-7.3-2.24-7.3-4.8,0-.83.66-1.89,1.85-3.69A65.65,65.65,0,0,0,423,21.21v-.62c0-2.9,1.89-4.92,3.52-4.92s2.28.79,2.28,1.89c0,.79-.61,2.15-1.8,4.18,1,3.17,4,6.56,4,10.56a5.48,5.48,0,0,1-.71,2.69,17.31,17.31,0,0,0,4.27-4.49c.58-.93,1.1-1.59,1.94-1.59a1.46,1.46,0,0,1,1.36,2.29A17.86,17.86,0,0,1,423.49,39Zm1.19-13.51a62.55,62.55,0,0,1-3.34,5.72,4.89,4.89,0,0,0-1.06,2.68,2.83,2.83,0,0,0,3,2.38,3.55,3.55,0,0,0,3.56-3.78C426.88,29.75,425.74,27.72,424.68,25.48Z"/><path d="M451.52,34.63a1.81,1.81,0,0,1,1.54-1.05,1.1,1.1,0,0,1,1.15,1.1c0,1.45-2.29,4.31-5.28,4.31s-4.67-1.67-4.67-4.49c0-3.61,4-7.92,4-10.78,0-.4-.31-.66-.84-.66-1.89,0-4.75,2.9-6.73,5.28a29.44,29.44,0,0,0-4.76,8.93A2.05,2.05,0,0,1,433.88,39a1.56,1.56,0,0,1-1.68-1.63,3.18,3.18,0,0,1,.18-1c2.68-8.28,6.56-17.39,9.51-24.38a2.83,2.83,0,0,1,2.59-2c1.15,0,1.81.66,1.81,1.54,0,.61-.44,1.76-2.07,4.44l-3.79,9.24c2.42-2.68,5.37-5,7.75-5s4.14,1.49,4.14,3.74c0,3.6-4.05,7.35-4.05,10.91,0,1,.44,1.54,1.1,1.54S450.91,35.6,451.52,34.63Z"/></g></g></svg>