<svg xmlns="http://www.w3.org/2000/svg" viewBox="0 0 184.33 48.59"><defs><style>.cls-1{fill:#6f93dc;}</style></defs><title>quatre_kii_1</title><g id="レイヤー_2" data-name="レイヤー 2"><g id="情報"><path class="cls-1" d="M29,23.4a41.91,41.91,0,0,0,4.48-7.82c1.26-2.66,2.81-6.39,3.69-8.25s1.78-2.88,2.77-2.88A1.59,1.59,0,0,1,41.6,6.19c0,1.22-1.14,3.38-3.23,6.73-.64,1.29-2.77,5.77-4.25,9.54C27.55,39.29,23,48.59,13.37,48.59,6.31,48.59,0,43.73,0,35.26c0-2,.91-2.55,2.13-2.55a3.85,3.85,0,0,1,2.66,1.11,20.25,20.25,0,0,0,9.88,4.36c.95.12,1.48.69,1.36,1.49a1.7,1.7,0,0,1-2,1.48,22.89,22.89,0,0,1-10.34-4c-.11-.11-.19,0-.15.11a10.14,10.14,0,0,0,9.77,8.29c6.15,0,9.8-5.63,14.17-15.85-2.85,2.93-6.16,4.94-9.46,4.94-4,0-6.8-2.39-6.8-6.34,0-6.39,8.58-12.69,8.58-18.62A3.36,3.36,0,0,0,18.77,7c-1.6,5.51-6.84,11.66-11.51,11.66-3.19,0-5.09-1.74-5.09-4.78,0-5,7.06-10,13.48-10.34a3.49,3.49,0,0,0-.3-1.63,1.26,1.26,0,0,1-.23-.61A1.5,1.5,0,0,1,16.72,0c1.33,0,2.54,1.33,2.54,3.88V4a5.93,5.93,0,0,1,4.49,5.74c0,6.42-8.44,12.69-8.44,18.62a3.1,3.1,0,0,0,3.19,3.3C22.11,31.61,25.91,27.7,29,23.4ZM15.31,6.23c-4.63.38-9.54,4.07-9.54,7.83a1.55,1.55,0,0,0,1.6,1.71C10.56,15.77,14.21,10.6,15.31,6.23Z"/><path class="cls-1" d="M50.08,33.66c-2.13,0-3.95-1.14-4.22-3.38-1.59,2-3.38,3.38-5.2,3.38-2.47,0-4.1-1.44-4.1-4.21,0-2.51,1.59-6.16,3-8.82,1.25-2.47,2.13-3.23,3.23-3.23a1.3,1.3,0,0,1,1.44,1.29c0,.61-.49,1.68-1.94,4-1.29,2.7-2.16,5-2.16,6.84,0,1.22.64,1.67,1.14,1.67,1.4,0,2.81-1.59,4.25-3.68a43.37,43.37,0,0,0,3.61-7.18c1-2.32,1.87-2.93,3-2.93a1.24,1.24,0,0,1,1.33,1.26c0,.6-.5,1.71-1.94,4-1.29,2.7-2.17,5-2.17,6.84,0,1.37.73,1.9,1.26,1.9,1.59,0,3.65-2.43,5.36-5.09.49-.8.94-1.37,1.67-1.37a1.26,1.26,0,0,1,1.17,2C56.43,30.51,53.39,33.66,50.08,33.66Z"/><path class="cls-1" d="M57.08,28.31a1.33,1.33,0,0,1-1.41-1.22,1.38,1.38,0,0,1,.23-.76,64.2,64.2,0,0,0,4.44-8.09v-.53c0-2.66,1.79-4.41,3.08-4.41a1.59,1.59,0,0,1,1.79,1.59,7.29,7.29,0,0,1-1.14,2.93c1.63.95,3.83,1.67,3.83,3.5,0,2.5-3.34,5.35-3.34,8.47,0,.87.38,1.37,1,1.37,1.55,0,3.53-2.17,5.24-4.83.49-.8,1-1.37,1.67-1.37a1.31,1.31,0,0,1,1.41,1.22,1.28,1.28,0,0,1-.23.76c-2.32,3.57-5.32,6.72-8.55,6.72-2.47,0-4-1.44-4-3.87,0-3,3.27-6.35,3.27-8.4,0-.76-.76-1.18-1.56-1.6a79.76,79.76,0,0,1-4.06,7.15C58.25,27.74,57.8,28.31,57.08,28.31Z"/><path class="cls-1" d="M74.55,33.66c-2.62,0-4.33-1.4-4.33-4.21,0-2.55,1.52-6.2,2.89-8.82,1.29-2.47,2.24-3.23,3.23-3.23a1.3,1.3,0,0,1,1.44,1.29c0,.61-.49,1.68-1.93,4-1.3,2.7-2.13,5-2.13,6.84,0,1.37.57,1.9,1.29,1.9,1.6,0,3.65-2.43,5.36-5.09.49-.8.95-1.37,1.67-1.37a1.33,1.33,0,0,1,1.41,1.22,1.41,1.41,0,0,1-.23.76C80.9,30.51,77.82,33.66,74.55,33.66Zm4.56-22.3a1.74,1.74,0,0,1,1.94,1.79,2.59,2.59,0,0,1-2.62,2.47,1.84,1.84,0,0,1-2-1.87A2.66,2.66,0,0,1,79.11,11.36Z"/><path class="cls-1" d="M90.89,33.66c-3,0-4.9-1.86-6.19-5.32a2.52,2.52,0,0,1-.15-.83c0-.72.45-1.22,1.44-1.41,3.69-.72,7-3.46,7-5.77,0-.38-.27-.61-.76-.61-1.83,0-5.06,2.05-6.77,4.14a25.88,25.88,0,0,0-3.53,7.56c-.34,1.07-.76,2.24-2.24,2.24a1.23,1.23,0,0,1-1.29-1.29,2.55,2.55,0,0,1,.15-.91C80.94,24.35,84.4,16.11,87,9.92a2.32,2.32,0,0,1,2.13-1.33A1.38,1.38,0,0,1,90.7,10c0,.8-.72,2.21-2,4.33l-2.39,5.74c2.09-1.56,4.44-2.66,6.31-2.66,2.31,0,3.87,1.18,3.87,3.08,0,2.85-3.8,5.89-8.24,7.1.68,2.28,1.93,3.73,3.23,3.73,1.71,0,4-2.32,5.73-5,.5-.8,1-1.37,1.67-1.37a1.33,1.33,0,0,1,1.41,1.22,1.41,1.41,0,0,1-.23.76C97.69,30.59,94.81,33.66,90.89,33.66Z"/><path class="cls-1" d="M107.35,30.4c-1.67,1.93-3.65,3.26-5.7,3.26-2.89,0-4.94-1.71-4.94-4.86,0-5.62,5.7-11.4,10.94-11.4a3.66,3.66,0,0,1,3.46,1.94,2.92,2.92,0,0,1,2.43-1.94A1.28,1.28,0,0,1,115,18.69c0,.54-.45,1.41-1.55,3.19-1.45,3.2-2.59,5.89-2.59,7.83,0,1.14.46,1.67,1,1.67s1.33-.64,1.86-1.48a1.56,1.56,0,0,1,1.33-.91,1,1,0,0,1,1,1c0,1.25-2,3.72-4.56,3.72A3.86,3.86,0,0,1,107.35,30.4Zm-4.9.83c1.52,0,3.07-1.59,4.52-3.72a32.85,32.85,0,0,0,3-5.89,2.14,2.14,0,0,0-2.43-1.83c-3,0-6.92,4.87-6.92,9.16C100.66,30.47,101.42,31.23,102.45,31.23Z"/><path class="cls-1" d="M146.75,7c-1.59,5.55-6.84,11.66-11.51,11.66-3.19,0-5.09-1.74-5.09-4.78,0-5,7.06-10,13.49-10.34a3.58,3.58,0,0,0-.31-1.63,1.26,1.26,0,0,1-.23-.61A1.5,1.5,0,0,1,144.7,0c1.33,0,2.55,1.33,2.55,3.88V4a5.81,5.81,0,0,1,4.29,5.7c0,2.51-1.67,6.92-3.53,11.21,4.74-1.1,8.54-4.18,12.76-9.84,3.57-4.79,6.16-7.56,8.85-7.56,1.11,0,1.83.53,1.83,1.37s-.23,1.06-1.52,1.78c-1.6.88-3.08,2.28-5.55,5.62-4,5.48-8.21,9.05-13.49,10.79a12,12,0,0,1,3.46,4.37c1.48,2.93,2.66,4.07,4.1,4.07,1.79,0,4.34-2.32,6.16-5.13.49-.8.95-1.37,1.67-1.37a1.33,1.33,0,0,1,1.41,1.22,1.41,1.41,0,0,1-.23.76c-2.58,4-6.12,7.48-9.8,7.48-2.85,0-4.75-1.74-6.88-6.23-1.14-2.32-2.66-3.87-4.22-4l-.42.95c-1,2.32-2.2,5-2.69,6.35-.57,1.56-1.3,2.16-2.4,2.16s-1.71-1.06-1.14-2.77c.34-1,1.41-3.42,2.7-6.38,2.28-5.06,5.28-11.93,5.28-14.75A3.41,3.41,0,0,0,146.75,7Zm-3.46-.8c-4.67.38-9.53,4.07-9.53,7.83a1.55,1.55,0,0,0,1.59,1.71C138.43,15.77,142.15,10.6,143.29,6.23Z"/><path class="cls-1" d="M168.34,33.66c-2.62,0-4.33-1.4-4.33-4.21,0-2.55,1.52-6.2,2.88-8.82,1.3-2.47,2.25-3.23,3.23-3.23a1.3,1.3,0,0,1,1.45,1.29c0,.61-.5,1.68-1.94,4-1.29,2.7-2.13,5-2.13,6.84,0,1.37.57,1.9,1.29,1.9,1.6,0,3.65-2.43,5.36-5.09.49-.8.95-1.37,1.67-1.37a1.33,1.33,0,0,1,1.41,1.22,1.41,1.41,0,0,1-.23.76C174.68,30.51,171.6,33.66,168.34,33.66Zm4.56-22.3a1.74,1.74,0,0,1,1.93,1.79,2.59,2.59,0,0,1-2.62,2.47,1.84,1.84,0,0,1-2-1.87A2.66,2.66,0,0,1,172.9,11.36Z"/><path class="cls-1" d="M177,29.52c0,1.33.53,1.86,1.22,1.86s1.33-.64,1.86-1.48a1.56,1.56,0,0,1,1.33-.91,1,1,0,0,1,1,1c0,1.25-2,3.72-4.56,3.72s-4.33-1.4-4.33-4.21c0-2.55,1.52-6.2,2.88-8.82,1.3-2.47,2.25-3.23,3.23-3.23a1.3,1.3,0,0,1,1.45,1.29c0,.65-.57,1.79-2.24,4.45A16.33,16.33,0,0,0,177,29.52Zm5.4-18.16a1.74,1.74,0,0,1,1.93,1.79,2.59,2.59,0,0,1-2.62,2.47,1.84,1.84,0,0,1-2-1.87A2.66,2.66,0,0,1,182.4,11.36Z"/></g></g></svg>