<svg xmlns="http://www.w3.org/2000/svg" viewBox="0 0 44.75 9.79"><defs><style>.cls-1{fill:#f2ebdf;}</style></defs><title>アセット 2</title><g id="レイヤー_2" data-name="レイヤー 2"><g id="情報"><path class="cls-1" d="M7,7.18c.14-.23.28-.39.48-.39a.38.38,0,0,1,.41.35.36.36,0,0,1-.07.22A5.3,5.3,0,0,1,3.42,9.79,3.1,3.1,0,0,1,0,6.62a6.51,6.51,0,0,1,5.92-6,4.12,4.12,0,0,1,.82.09A3.12,3.12,0,0,1,8.42,0c.34,0,.51.17.51.44S8.8.71,8.37.85a3.14,3.14,0,0,0-.59.26,1.87,1.87,0,0,1,.74,1.51,1.73,1.73,0,0,1-1.71,1.8A1.36,1.36,0,0,1,5.3,3a2.54,2.54,0,0,1,.62-1.59c-2.15,0-4.78,2.45-4.78,5.18A2.17,2.17,0,0,0,3.5,8.91,4.36,4.36,0,0,0,7,7.18ZM7,1.69A1.94,1.94,0,0,0,6.35,3c0,.36.19.55.47.55s.67-.48.67-.94A1.06,1.06,0,0,0,7,1.69Z"/><path class="cls-1" d="M11,8.77a2.68,2.68,0,0,1-.72-.09,2.66,2.66,0,0,1-1.63.63A1.55,1.55,0,0,1,7,7.71,3.3,3.3,0,0,1,10,4.6c1.07,0,1.71.56,1.71,1.53a3.32,3.32,0,0,1-.77,2l.25,0a1.67,1.67,0,0,0,1.34-.94c.14-.23.27-.39.48-.39a.38.38,0,0,1,.41.35.44.44,0,0,1-.07.22A2.68,2.68,0,0,1,11,8.77ZM9.93,5.33c-.76,0-1.83,1.19-1.83,2.42,0,.56.32.83.71.83a1.26,1.26,0,0,0,.8-.34.31.31,0,0,1,0-.15.54.54,0,0,1,.56-.5,2.92,2.92,0,0,0,.43-1.48C10.56,5.57,10.31,5.33,9.93,5.33Z"/><path class="cls-1" d="M15.53,4.6a1.06,1.06,0,0,1,1,.49c.32-.83.78-1.95,1-2.54a.82.82,0,0,1,.71-.5.36.36,0,0,1,.4.35A3.39,3.39,0,0,1,18,3.8c-.27.59-.61,1.39-.87,2.1a8.44,8.44,0,0,0-.69,2.26c0,.34.14.5.32.5.46,0,1-.71,1.54-1.48.14-.23.27-.39.48-.39a.38.38,0,0,1,.41.35.36.36,0,0,1-.07.22c-.67,1-1.37,2-2.5,2a1.12,1.12,0,0,1-1.2-1,2.31,2.31,0,0,1-1.65,1A1.32,1.32,0,0,1,12.36,7.9,3.55,3.55,0,0,1,15.53,4.6ZM14,8.6c.45,0,.9-.46,1.31-1.07a8.93,8.93,0,0,0,.88-1.71c0-.33-.28-.53-.7-.53-.86,0-2,1.41-2,2.65C13.51,8.38,13.73,8.6,14,8.6Z"/><path class="cls-1" d="M21.37,4.6a1,1,0,0,1,1,.56.86.86,0,0,1,.71-.56A.37.37,0,0,1,23.5,5a2.62,2.62,0,0,1-.45.93,6.53,6.53,0,0,0-.75,2.26c0,.34.14.5.32.5.46,0,1-.71,1.54-1.48.14-.23.27-.39.48-.39a.38.38,0,0,1,.41.35.36.36,0,0,1-.07.22c-.67,1-1.55,2-2.5,2a1.11,1.11,0,0,1-1.19-1,2.35,2.35,0,0,1-1.65,1A1.32,1.32,0,0,1,18.21,7.9,3.53,3.53,0,0,1,21.37,4.6Zm-1.5,4c.44,0,.89-.46,1.31-1.07a10.24,10.24,0,0,0,.88-1.71.63.63,0,0,0-.71-.53c-.86,0-2,1.4-2,2.65C19.35,8.38,19.57,8.6,19.87,8.6Z"/><path class="cls-1" d="M30.07,8.81a2.64,2.64,0,0,1-.93-.14,2.21,2.21,0,0,1-1.33.64,1.12,1.12,0,0,1-1.22-1,2.09,2.09,0,0,1-1.43,1A1.1,1.1,0,0,1,24,8.09a6.69,6.69,0,0,1,.86-2.56c.36-.71.61-.93.93-.93a.37.37,0,0,1,.42.37,3,3,0,0,1-.56,1.16,5.12,5.12,0,0,0-.63,2c0,.34.13.48.3.48.4,0,.77-.47,1.19-1.06a13,13,0,0,0,1-2.08c.29-.68.54-.85.86-.85A.38.38,0,0,1,28.8,5a3,3,0,0,1-.56,1.16,5,5,0,0,0-.63,2c0,.35.18.5.35.5a1,1,0,0,0,.61-.36h0a.24.24,0,0,1-.05-.15.55.55,0,0,1,.55-.5,4.46,4.46,0,0,0,.77-2.17c0-.18-.06-.28-.06-.39s.22-.38.56-.38a.64.64,0,0,1,.63.68,4.69,4.69,0,0,1-1.24,2.75,1,1,0,0,0,.45.08,1.77,1.77,0,0,0,1.47-1c.14-.23.27-.39.48-.39a.38.38,0,0,1,.41.35.36.36,0,0,1-.07.22A2.8,2.8,0,0,1,30.07,8.81Z"/><path class="cls-1" d="M34.71,4.6a1.07,1.07,0,0,1,1,.56.84.84,0,0,1,.7-.56.37.37,0,0,1,.42.37,2.43,2.43,0,0,1-.45.93,6.53,6.53,0,0,0-.75,2.26c0,.34.14.5.32.5.46,0,1-.71,1.54-1.48.14-.23.27-.39.48-.39a.38.38,0,0,1,.41.35.36.36,0,0,1-.07.22c-.67,1-1.55,2-2.49,2a1.12,1.12,0,0,1-1.2-1,2.35,2.35,0,0,1-1.65,1A1.32,1.32,0,0,1,31.54,7.9,3.54,3.54,0,0,1,34.71,4.6Zm-1.51,4c.44,0,.89-.46,1.31-1.07a10.24,10.24,0,0,0,.88-1.71.63.63,0,0,0-.71-.53c-.85,0-2,1.4-2,2.65C32.68,8.38,32.9,8.6,33.2,8.6Z"/><path class="cls-1" d="M37.83,7.76a.39.39,0,0,1-.41-.36.38.38,0,0,1,.07-.22,17.83,17.83,0,0,0,1.28-2.34V4.69a1.19,1.19,0,0,1,.9-1.28.46.46,0,0,1,.51.46,2.11,2.11,0,0,1-.33.85c.48.28,1.11.48,1.11,1,0,.73-1,1.55-1,2.46,0,.25.11.39.29.39.45,0,1-.63,1.52-1.4.14-.23.28-.39.49-.39a.37.37,0,0,1,.4.35.39.39,0,0,1-.06.22c-.67,1-1.54,2-2.48,2A1.06,1.06,0,0,1,39,8.19c0-.87.94-1.84.94-2.44,0-.22-.22-.34-.45-.46a23.8,23.8,0,0,1-1.18,2.07C38.17,7.59,38,7.76,37.83,7.76Z"/><path class="cls-1" d="M42.62,8.11c0,.38.16.54.36.54s.38-.19.54-.43A.45.45,0,0,1,43.9,8a.28.28,0,0,1,.29.28,1.41,1.41,0,0,1-1.32,1.08,1.13,1.13,0,0,1-1.26-1.22,6.53,6.53,0,0,1,.84-2.56c.37-.71.65-.93.93-.93A.37.37,0,0,1,43.8,5c0,.19-.16.52-.65,1.29A4.7,4.7,0,0,0,42.62,8.11Zm1.57-5.26a.5.5,0,0,1,.56.52.76.76,0,0,1-.76.71.53.53,0,0,1-.58-.54A.77.77,0,0,1,44.19,2.85Z"/></g></g></svg>