<svg xmlns="http://www.w3.org/2000/svg" viewBox="0 0 161.9 58.57"><path d="M134.14 12.49a8.11 8.11 0 0 0-2.25-.33c-2.22 0-4.45 1.75-5.5 3.39l.55-3.63c0-.2 0-.43-.21-.45l-11.92-1.81c-.21 0-.4.24-.47.73l-.78 5.16a.35.35 0 0 0 .31.47l3.57.54-1.44 9.28-3.7-.56c-.1 0-.27.13-.31.38l-.82 5.44c0 .21 0 .52.17.54L127.13 34c.15 0 .36-.12.4-.41l.83-5.44c0-.21 0-.47-.18-.49l-3.55-.54.72-4.75c.43-2.84 2.48-4.14 3.41-4a2.11 2.11 0 0 1 1.61 1.35c.45.82 1.26 2.3 2.68 2.51s3.24-1.19 3.7-4.16-1.21-5.13-2.61-5.58zM31.11 33.86L28 34.93l-7-20.64c-.18-.51-.32-.68-.52-.62l-2.61.89a.9.9 0 0 0-.48.65l-.65 4.14c-2-1.83-5.69-2.62-7.8-1.9h-.09a17.77 17.77 0 0 0-3.08 1.08C-.82 21.34-.48 28.53.63 31.8c2.51 7.43 8.08 9.43 12.78 7.84 3.32-1.13 4.4-5.28 4.76-6.64l1.59 4.7-3.24 1.1c-.37.13-.3.68-.1 1.27l1.37 4c.18.56.42.92.6.86L32.93 40c.38-.13.65-.31.51-.7l-1.5-4.43c-.26-.76-.5-1.12-.83-1.01zm-16.5-1.28c-1.4.47-3.72-.51-4.77-3.63-1-2.89.11-5.06 1.57-5.56 1.27-.39 3.65.61 4.59 3.46.93 2.69.13 5.21-1.39 5.73zm77.33-12.1h-2.61c-.13 0-.19.16-.19.37s-.1 3.34-1.63 3.34c-1.25 0-1.5-2-1.5-2.25v-6.18c0-4-1.6-6-4.46-6.88-4.18-1.51-12.42-.57-12.42-.57-3.92.4-6.26 1.61-6.26 5 0 3.09 2.15 3.88 2.9 3.88 2.34 0 3.22-.89 3.76-1.58 1.29-1.69 2.5-2.42 4.23-2.42.88 0 3.22.41 3.22 2.12C77 16.51 75 17 74 17h-3.58c-.94 0-7.7.88-7.7 7s6.12 6.55 8.64 6.55a6.65 6.65 0 0 0 5.64-4.1c.49 1.64 1.68 3.52 3.29 3.95 0 0 2.55 1 7.08 0C89.48 30 92 27.34 92 20.69c0-.13 0-.21-.06-.21zm-15.17 1.18a3.06 3.06 0 0 1-3.22 2.7c-.33 0-1.25-.08-1.25-1 0-1.55 2.62-2.53 2.79-2.6.73-.28 1.73.01 1.68.9zm78.57-3.36a28 28 0 0 0-5.58-1.9l-.4-.1c-2.93-.58-10-1-12.86 7.36-3.4 10 5.28 13.68 9.14 15l2.17.73c7.41 2.51 11.09-2.9 12.3-4.83.06-.11.14-.48 0-.54l-4.65-1.57c-.06 0-.16 0-.28.12-1.6 1.62-3.2 1.52-4.94.93l-2-.66c-1.89-.64-3.62-2.37-2.72-5.55l15.06 5.1c.31.1.47 0 .54-.17l.24-.71c2.02-5.98-2.02-11.27-6.02-13.21zm-8.44 5.75a3.22 3.22 0 0 1 4.18-1.36c1.78.6 2.11 2.16 2.12 3.49zm-35.76-3.6c0-.42 0-.63-.23-.64l-2.38-.15c-.25 0-.34.53-.41.94-.54 2.81-1.31 4.48-2.6 4.4S104 22.61 104 21.4l.35-5.91 4 .24c.25 0 .49-.39.5-.68l.28-4.59c0-.7-.31-.81-.58-.83l-3.88-.23.51-8.49c0-.42-.13-.64-.34-.65L100.57 0c-.12 0-.3.4-.36.81C99.07 7 97.34 9 93.82 8.75l-1.27-.07c-.21 0-.35.23-.38.73l-.29 4.91a.37.37 0 0 0 .35.44l3.56.22-.57 9.62c-.31 5.08 2.88 6.4 3.65 6.45a28.52 28.52 0 0 0 6.14.3 3 3 0 0 0 .43-.07c4.31-.97 5.56-8.95 5.7-10.83zM60.23 24.2l-3.53.43-1.83-15.16c0-.25-.15-.53-.27-.52l-12.24 1.48c-.15 0-.24.16-.2.45l.66 5.51c0 .2.16.44.31.42l3.75-.45.25 2.11c.51 4.19.26 7-2.79 7.36s-3.61-1.2-4.05-4.81l-1-8.74c-.14-1.16-.28-1.44-.57-1.4l-11.49 1.38c-.35 0-.61.28-.52 1.07l.62 5.1c0 .16.07.28.28.26l3.52-.43.94 7.79c.51 4.21 1.75 6.73 4.38 7.23a6.34 6.34 0 0 0 1.26.09 20.21 20.21 0 0 0 6-.71 3.71 3.71 0 0 0 .49-.14 4.4 4.4 0 0 0 1.68-.88 7.12 7.12 0 0 0 2.47-3.05l.37 3.06c0 .21.18.4.36.38l12-1.45c.21 0 .31-.25.25-.75l-.64-5.26a.4.4 0 0 0-.46-.37zM23.28 45.86h3.86v4.37h4.22v-4.37h3.88v12.5h-3.88V53.3h-4.22v5.06h-3.86zm22.21 10.43h-4.38l-.61 2.07h-4l4.7-12.5h4.21l4.7 12.5h-4zm-.8-2.7l-1.38-4.49-1.37 4.49zm6.85-7.73h3.87v12.5h-3.87zm6.69 12.5v-12.5h6.44a9.11 9.11 0 0 1 2.73.31 2.88 2.88 0 0 1 1.53 1.13 3.45 3.45 0 0 1 .58 2 3.52 3.52 0 0 1-.44 1.79 3.59 3.59 0 0 1-1.22 1.23 4.71 4.71 0 0 1-1.36.49 4.26 4.26 0 0 1 1 .46 3.81 3.81 0 0 1 .61.66 4.65 4.65 0 0 1 .54.78l1.87 3.62h-4.35l-2.06-3.79a3 3 0 0 0-.7-1 1.66 1.66 0 0 0-.95-.29h-.34v5.08zm3.88-7.44h1.63a5.22 5.22 0 0 0 1-.17 1 1 0 0 0 .63-.39 1.27 1.27 0 0 0-.14-1.65 2.3 2.3 0 0 0-1.44-.33h-1.7zm15.52-5.06h5.74a6.8 6.8 0 0 1 2.74.46 4.55 4.55 0 0 1 1.73 1.32 5.68 5.68 0 0 1 1 2 9.57 9.57 0 0 1 .3 2.43 8.46 8.46 0 0 1-.45 3.1A5.13 5.13 0 0 1 87.41 57a4.17 4.17 0 0 1-1.74 1 9.21 9.21 0 0 1-2.3.34h-5.74zm3.87 2.83v6.83h.94a3.94 3.94 0 0 0 1.72-.27 1.86 1.86 0 0 0 .81-.94 6 6 0 0 0 .28-2.17 4.24 4.24 0 0 0-.64-2.72 2.75 2.75 0 0 0-2.15-.73zm9.65-2.83h10.35v2.67H95v2h6v2.55h-6v2.47h6.67v2.83H91.15zm11.95 8.36l3.67-.23a2.79 2.79 0 0 0 .49 1.37 2 2 0 0 0 1.7.76 1.9 1.9 0 0 0 1.28-.39 1.19 1.19 0 0 0 .44-.9 1.14 1.14 0 0 0-.42-.87 5 5 0 0 0-2-.73 8.41 8.41 0 0 1-3.62-1.51 3.05 3.05 0 0 1-1.09-2.42 3.31 3.31 0 0 1 .55-1.82 3.74 3.74 0 0 1 1.68-1.34 7.83 7.83 0 0 1 3.08-.49 6.25 6.25 0 0 1 3.65.89 3.84 3.84 0 0 1 1.5 2.83l-3.64.22a1.71 1.71 0 0 0-1.9-1.62 1.54 1.54 0 0 0-1 .29.86.86 0 0 0-.34.69.69.69 0 0 0 .28.54 3 3 0 0 0 1.29.46 16.06 16.06 0 0 1 3.63 1.11 3.86 3.86 0 0 1 1.6 1.38 3.53 3.53 0 0 1 .49 1.85 4 4 0 0 1-.66 2.22 4.17 4.17 0 0 1-1.86 1.54 7.49 7.49 0 0 1-3 .52c-2.12 0-3.6-.41-4.41-1.23a4.8 4.8 0 0 1-1.39-3.12zm13.43-8.36h3.87v12.5h-3.87zm12.93 7.97v-2.6h6v5.33a12.06 12.06 0 0 1-3 1.59 10.33 10.33 0 0 1-3.12.42 7.52 7.52 0 0 1-3.63-.76 5.16 5.16 0 0 1-2.17-2.26 7.35 7.35 0 0 1-.77-3.44 7.21 7.21 0 0 1 .84-3.56 5.51 5.51 0 0 1 2.47-2.3 8.13 8.13 0 0 1 3.42-.6 9.67 9.67 0 0 1 3.1.37 4 4 0 0 1 1.7 1.17 5.2 5.2 0 0 1 1 2l-3.72.67a2.09 2.09 0 0 0-.78-1.08 2.47 2.47 0 0 0-1.41-.38 2.55 2.55 0 0 0-2 .88 4.28 4.28 0 0 0-.75 2.8 4.35 4.35 0 0 0 .76 2.89 2.69 2.69 0 0 0 2.13.87 4.16 4.16 0 0 0 1.23-.18A7.24 7.24 0 0 0 132 55v-1.17zm8.28-7.97h3.61l4.7 6.91v-6.91h3.64v12.5h-3.64l-4.68-6.86v6.86h-3.63z" fill="#f2ebdf"/></svg>