<svg xmlns="http://www.w3.org/2000/svg" viewBox="0 0 161.9 58.57"><defs><style>.cls-1{fill:#f2ebdf;}</style></defs><title>logo</title><g id="レイヤー_2" data-name="レイヤー 2"><g id="情報"><path class="cls-1" d="M134.14,12.49h0a8.11,8.11,0,0,0-2.25-.33h0c-2.22,0-4.45,1.75-5.5,3.39l.55-3.63c0-.2,0-.43-.21-.45L114.81,9.66c-.21,0-.4.24-.47.73l-.78,5.16a.35.35,0,0,0,.31.47l3.57.54L116,25.84l-3.7-.56c-.1,0-.27.13-.31.38l-.82,5.44c0,.21,0,.52.17.54L127.13,34c.15,0,.36-.12.4-.41l.83-5.44c0-.21,0-.47-.18-.49l-3.55-.54.72-4.75c.43-2.84,2.48-4.14,3.41-4a2.11,2.11,0,0,1,1.61,1.35c.45.82,1.26,2.3,2.68,2.51s3.24-1.19,3.7-4.16S135.54,12.94,134.14,12.49Z"/><path class="cls-1" d="M31.11,33.86,28,34.93,21,14.29c-.18-.51-.32-.68-.52-.62l-2.61.89a.9.9,0,0,0-.48.65l-.65,4.14c-2-1.83-5.69-2.62-7.8-1.9l-.09,0a17.77,17.77,0,0,0-3.08,1.08h0C-.82,21.34-.48,28.53.63,31.8c2.51,7.43,8.08,9.43,12.78,7.84,3.32-1.13,4.4-5.28,4.76-6.64l1.59,4.7-3.24,1.1c-.37.13-.3.68-.1,1.27l1.37,4c.18.56.42.92.6.86L32.93,40c.38-.13.65-.31.51-.7l-1.5-4.43C31.68,34.11,31.44,33.75,31.11,33.86Zm-16.5-1.28c-1.4.47-3.72-.51-4.77-3.63-1-2.89.11-5.06,1.57-5.56C12.68,23,15.06,24,16,26.85,16.93,29.54,16.13,32.06,14.61,32.58Z"/><path class="cls-1" d="M91.94,20.48H89.33c-.13,0-.19.16-.19.37s-.1,3.34-1.63,3.34c-1.25,0-1.5-2-1.5-2.25V15.76c0-4-1.6-6-4.46-6.88h0c-4.18-1.51-12.42-.57-12.42-.57h0c-3.92.4-6.26,1.61-6.26,5,0,3.09,2.15,3.88,2.9,3.88,2.34,0,3.22-.89,3.76-1.58,1.29-1.69,2.5-2.42,4.23-2.42.88,0,3.22.41,3.22,2.12C77,16.51,75,17,74,17H70.42c-.94,0-7.7.88-7.7,7s6.12,6.55,8.64,6.55A6.65,6.65,0,0,0,77,26.45c.49,1.64,1.68,3.52,3.29,3.95,0,0,2.55,1,7.08,0C89.48,30,92,27.34,92,20.69,92,20.56,92,20.48,91.94,20.48ZM76.77,21.66a3.06,3.06,0,0,1-3.22,2.7c-.33,0-1.25-.08-1.25-1,0-1.55,2.62-2.53,2.79-2.6h0C75.82,20.48,76.82,20.77,76.77,21.66Z"/><path class="cls-1" d="M155.34,18.3a28,28,0,0,0-5.58-1.9h0l-.4-.1c-2.93-.58-10-1-12.86,7.36-3.4,10,5.28,13.68,9.14,15l2.17.73c7.41,2.51,11.09-2.9,12.3-4.83.06-.11.14-.48,0-.54l-4.65-1.57c-.06,0-.16,0-.28.12-1.6,1.62-3.2,1.52-4.94.93l-2-.66c-1.89-.64-3.62-2.37-2.72-5.55l15.06,5.1c.31.1.47,0,.54-.17l.24-.71C163.38,25.53,159.34,20.24,155.34,18.3Zm-8.44,5.75a3.22,3.22,0,0,1,4.18-1.36c1.78.6,2.11,2.16,2.12,3.49Z"/><path class="cls-1" d="M111.14,20.45c0-.42,0-.63-.23-.64l-2.38-.15c-.25,0-.34.53-.41.94-.54,2.81-1.31,4.48-2.6,4.4S104,22.61,104,21.4l.35-5.91,4,.24c.25,0,.49-.39.5-.68l.28-4.59c0-.7-.31-.81-.58-.83l-3.88-.23.51-8.49c0-.42-.13-.64-.34-.65L100.57,0c-.12,0-.3.4-.36.81C99.07,7,97.34,9,93.82,8.75l-1.27-.07c-.21,0-.35.23-.38.73l-.29,4.91a.37.37,0,0,0,.35.44l3.56.22-.57,9.62c-.31,5.08,2.88,6.4,3.65,6.45a28.52,28.52,0,0,0,6.14.3,3,3,0,0,0,.43-.07h0C109.75,30.31,111,22.33,111.14,20.45Z"/><path class="cls-1" d="M60.23,24.2l-3.53.43L54.87,9.47c0-.25-.15-.53-.27-.52L42.36,10.43c-.15,0-.24.16-.2.45l.66,5.51c0,.2.16.44.31.42l3.75-.45.25,2.11c.51,4.19.26,7-2.79,7.36s-3.61-1.2-4.05-4.81l-1-8.74c-.14-1.16-.28-1.44-.57-1.4L27.23,12.26c-.35,0-.61.28-.52,1.07l.62,5.1c0,.16.07.28.28.26l3.52-.43.94,7.79c.51,4.21,1.75,6.73,4.38,7.23h0a6.34,6.34,0,0,0,1.26.09,20.21,20.21,0,0,0,6-.71,3.71,3.71,0,0,0,.49-.14,4.4,4.4,0,0,0,1.68-.88,7.12,7.12,0,0,0,2.47-3.05l.37,3.06c0,.21.18.4.36.38l12-1.45c.21,0,.31-.25.25-.75l-.64-5.26A.4.4,0,0,0,60.23,24.2Z"/><path class="cls-1" d="M23.28,45.86h3.86v4.37h4.22V45.86h3.88v12.5H31.36V53.3H27.14v5.06H23.28Z"/><path class="cls-1" d="M45.49,56.29H41.11l-.61,2.07h-4l4.7-12.5h4.21l4.7,12.5h-4Zm-.8-2.7L43.31,49.1l-1.37,4.49Z"/><path class="cls-1" d="M51.54,45.86h3.87v12.5H51.54Z"/><path class="cls-1" d="M58.23,58.36V45.86h6.44a9.11,9.11,0,0,1,2.73.31,2.88,2.88,0,0,1,1.53,1.13,3.45,3.45,0,0,1,.58,2,3.52,3.52,0,0,1-.44,1.79,3.59,3.59,0,0,1-1.22,1.23,4.71,4.71,0,0,1-1.36.49,4.26,4.26,0,0,1,1,.46,3.81,3.81,0,0,1,.61.66,4.65,4.65,0,0,1,.54.78l1.87,3.62H66.16L64.1,54.54a3,3,0,0,0-.7-1,1.66,1.66,0,0,0-.95-.29h-.34v5.08Zm3.88-7.44h1.63a5.22,5.22,0,0,0,1-.17,1,1,0,0,0,.63-.39,1.27,1.27,0,0,0-.14-1.65,2.3,2.3,0,0,0-1.44-.33h-1.7Z"/><path class="cls-1" d="M77.63,45.86h5.74a6.8,6.8,0,0,1,2.74.46,4.55,4.55,0,0,1,1.73,1.32,5.68,5.68,0,0,1,1,2,9.57,9.57,0,0,1,.3,2.43,8.46,8.46,0,0,1-.45,3.1A5.13,5.13,0,0,1,87.41,57a4.17,4.17,0,0,1-1.74,1,9.21,9.21,0,0,1-2.3.34H77.63Zm3.87,2.83v6.83h.94a3.94,3.94,0,0,0,1.72-.27,1.86,1.86,0,0,0,.81-.94,6,6,0,0,0,.28-2.17,4.24,4.24,0,0,0-.64-2.72,2.75,2.75,0,0,0-2.15-.73Z"/><path class="cls-1" d="M91.15,45.86H101.5v2.67H95v2h6v2.55H95v2.47h6.67v2.83H91.15Z"/><path class="cls-1" d="M103.1,54.22l3.67-.23a2.79,2.79,0,0,0,.49,1.37,2,2,0,0,0,1.7.76,1.9,1.9,0,0,0,1.28-.39,1.19,1.19,0,0,0,.44-.9,1.14,1.14,0,0,0-.42-.87,5,5,0,0,0-2-.73,8.41,8.41,0,0,1-3.62-1.51,3.05,3.05,0,0,1-1.09-2.42,3.31,3.31,0,0,1,.55-1.82,3.74,3.74,0,0,1,1.68-1.34,7.83,7.83,0,0,1,3.08-.49,6.25,6.25,0,0,1,3.65.89,3.84,3.84,0,0,1,1.5,2.83l-3.64.22a1.71,1.71,0,0,0-1.9-1.62,1.54,1.54,0,0,0-1,.29.86.86,0,0,0-.34.69.69.69,0,0,0,.28.54,3,3,0,0,0,1.29.46,16.06,16.06,0,0,1,3.63,1.11,3.86,3.86,0,0,1,1.6,1.38,3.53,3.53,0,0,1,.49,1.85,4,4,0,0,1-.66,2.22,4.17,4.17,0,0,1-1.86,1.54,7.49,7.49,0,0,1-3,.52c-2.12,0-3.6-.41-4.41-1.23A4.8,4.8,0,0,1,103.1,54.22Z"/><path class="cls-1" d="M116.53,45.86h3.87v12.5h-3.87Z"/><path class="cls-1" d="M129.46,53.83v-2.6h6v5.33a12.06,12.06,0,0,1-3,1.59,10.33,10.33,0,0,1-3.12.42,7.52,7.52,0,0,1-3.63-.76,5.16,5.16,0,0,1-2.17-2.26,7.35,7.35,0,0,1-.77-3.44,7.21,7.21,0,0,1,.84-3.56,5.51,5.51,0,0,1,2.47-2.3,8.13,8.13,0,0,1,3.42-.6,9.67,9.67,0,0,1,3.1.37,4,4,0,0,1,1.7,1.17,5.2,5.2,0,0,1,1,2l-3.72.67a2.09,2.09,0,0,0-.78-1.08,2.47,2.47,0,0,0-1.41-.38,2.55,2.55,0,0,0-2,.88,4.28,4.28,0,0,0-.75,2.8,4.35,4.35,0,0,0,.76,2.89,2.69,2.69,0,0,0,2.13.87,4.16,4.16,0,0,0,1.23-.18A7.24,7.24,0,0,0,132,55V53.83Z"/><path class="cls-1" d="M137.74,45.86h3.61l4.7,6.91V45.86h3.64v12.5h-3.64l-4.68-6.86v6.86h-3.63Z"/></g></g></svg>