<svg xmlns="http://www.w3.org/2000/svg" viewBox="0 0 190.19 96.3"><defs><style>.cls-1{fill:#e5d7bf;}</style></defs><title>アセット 5</title><g id="レイヤー_2" data-name="レイヤー 2"><g id="情報"><path class="cls-1" d="M38.18,20c0,11.21,11.66,19.84,11.66,33.73,0,11.3-9.88,21-23.32,21C11.66,74.76,0,64.88,0,47.26c0-4.36,1.6-6,3.92-6a6.69,6.69,0,0,1,4.8,2.31A34.58,34.58,0,0,0,28,52.51a2.07,2.07,0,0,1,1.78,2.23,2.23,2.23,0,0,1-2.49,2c-8.1-1.07-17.09-5.17-21.9-10.24a1.32,1.32,0,0,0-.27.89c0,14.86,9.62,23.32,21.45,23.32,11.13,0,17.89-7.92,17.89-16.73,0-12.38-11.3-20.83-11.3-33.82C33.11,10,42,2.49,52.42,2.49A19.26,19.26,0,0,1,60.17,4c4.09-2.49,8.45-4,11.39-4,1.51,0,2,.62,2,1.51,0,1.07-.54,1.61-2.5,1.78a24.07,24.07,0,0,0-7.56,2.85,12.17,12.17,0,0,1,4,9.35c0,7.92-5.16,13.35-11,13.35-4.9,0-8.19-3.38-8.19-8.72,0-5.08,3.47-9.8,7.92-13.45a18.84,18.84,0,0,0-4-.44A13.87,13.87,0,0,0,38.18,20ZM60,8.46c-4,3-7.21,7.12-7.21,11.66,0,3.38,1.6,4.89,3.83,4.89,3.65,0,6.58-4.63,6.58-9.34A8.77,8.77,0,0,0,60,8.46Z"/><path class="cls-1" d="M84,54.47c.44-.71.89-1.07,1.51-1.07A1.84,1.84,0,0,1,87.4,55,2.46,2.46,0,0,1,87,56.43c-5.87,9.17-12.1,16.73-19.31,16.73-5.43,0-8.9-3.38-8.9-10,0-5.6,3.56-15.13,7.74-24.21H62.3C60.88,39,60,38.45,60,37.2s.9-1.69,2.32-1.69h5.87c1.61-3.29,3.3-6.58,4.81-9.43,2.76-5.34,4.18-7.57,5.52-7.57a2.14,2.14,0,0,1,2.4,2.14c0,1.51-1.33,4.18-3.83,8.19l-3.38,6.67h5.07c1.43,0,2.23.71,2.23,1.6C81,38.36,80.1,39,78.76,39H72c-4.45,9.44-8.37,19.14-8.37,24.84,0,4.09,2,5.78,4.63,5.78C73,69.6,79.12,62.57,84,54.47Z"/><path class="cls-1" d="M132.08,54.47a1.73,1.73,0,0,1,3.29.8,2.43,2.43,0,0,1-.36,1.25c-5.51,8.54-12,16.64-19.31,16.64-4.63,0-8.54-3.2-8.54-9.25a5.2,5.2,0,0,1,.08-1.16C103,68.62,97.9,73.16,92.56,73.16c-6,0-10.24-3.91-10.24-11,0-13.17,13.62-26.61,24.57-26.61,4,0,7.12,1.43,8.81,4.36.8-2.67,2.4-4.36,3.83-4.36a2.14,2.14,0,0,1,2.4,2.14c0,1.51-1.51,4.18-4,8.19-2.75,6-6,13.08-6,18.07,0,3.91,1.78,5.69,4.45,5.69C121.13,69.6,127,62.3,132.08,54.47Zm-25.73,4.27a72.88,72.88,0,0,0,7.48-14.68c-.44-3-2.85-4.9-7-4.9-8.28,0-19.4,12.37-19.4,23.32C87.4,67,90,69.42,93,69.42,97.54,69.42,102.17,64.79,106.35,58.74Z"/><path class="cls-1" d="M160.2,54.47s.62-1,1.42-1a1.82,1.82,0,0,1,1.87,1.87,3,3,0,0,1-.35,1.16c-5.25,7.92-10.95,12-17.54,12a13.28,13.28,0,0,1-2.58-.26,25,25,0,0,1,1,6.32c0,11.66-6.59,21.71-13.35,21.71-4.27,0-7.21-3-7.21-9.25,0-5.61,2.49-15.13,6-25.46a281.74,281.74,0,0,1,15.94-37.11c3.91-7.75,7.47-10.06,10.41-10.06,3.74,0,6.23,2.49,6.23,7.39,0,11.74-11.48,28.3-24.92,35.51A17.66,17.66,0,0,1,141.6,64a7.71,7.71,0,0,0,4.09,1.07C150.05,65.06,155.39,61.77,160.2,54.47ZM138.57,66.31a13.52,13.52,0,0,1-4.45-4.81l-.53,1.6c-3.3,9.79-5.61,18.69-5.61,23.95,0,3.91,1.33,5.43,3.11,5.43,4.1,0,8.64-7.93,8.64-18A27.52,27.52,0,0,0,138.57,66.31Zm10.77-40c-4.09,8.1-8.37,17.54-12.1,26.8,11.66-7.3,20.65-22.35,20.65-31.33,0-2.76-1-3.74-2.23-3.74S152.81,19.4,149.34,26.34Z"/><path class="cls-1" d="M165.09,66A3,3,0,0,1,164,64.17a1.83,1.83,0,0,1,1.7-1.78,4.07,4.07,0,0,1,2.67,1.34c1.78,1.78,3.82,5.52,3.82,10.86,0,11.66-6.58,21.71-13.35,21.71-4.27,0-7.21-3-7.21-9.25,0-5.61,2.5-15.13,6-25.46a281.74,281.74,0,0,1,15.93-37.11C177.46,16.73,181,14.42,184,14.42c3.74,0,6.23,2.49,6.23,7.39,0,12.19-12.46,29.72-26.61,36.31l-1.78,5c-3.29,9.79-5.61,18.69-5.61,23.95,0,3.91,1.34,5.43,3.12,5.43,4.09,0,8.63-7.93,8.63-18A13.78,13.78,0,0,0,165.09,66Zm.36-12.9c11.66-7.3,20.65-22.35,20.65-31.33,0-2.76-1-3.74-2.23-3.74s-2.85,1.33-6.32,8.27C173.46,34.44,169.19,43.88,165.45,53.14Z"/></g></g></svg>