<svg xmlns="http://www.w3.org/2000/svg" viewBox="0 0 30.67 9.74"><defs><style>.cls-1{fill:#f2ebdf;}</style></defs><title>アセット 6</title><g id="レイヤー_2" data-name="レイヤー 2"><g id="情報"><path class="cls-1" d="M6.24,8.13V8A4.46,4.46,0,0,1,2.87,9.74,2.67,2.67,0,0,1,0,6.94C0,4.73,1.72,2.6,3.81,1.5V1.39C3.81.53,4.3,0,4.68,0a.42.42,0,0,1,.46.43A.7.7,0,0,1,5,.7,1.36,1.36,0,0,0,4.92,1,5.6,5.6,0,0,1,6.67.73a2.38,2.38,0,0,1,2.1.89C9,1.21,9.23,1,9.48,1a.46.46,0,0,1,.48.5A5.1,5.1,0,0,1,9,3.44c-.19.38-.8,1.68-1.23,2.77a5.6,5.6,0,0,0-.47,1.93c0,.44.23.68.55.68.56,0,1.33-.67,1.84-1.49.15-.22.28-.39.48-.39a.36.36,0,0,1,.4.35.51.51,0,0,1-.13.33c-.67,1-1.68,2.06-2.74,2.06A1.42,1.42,0,0,1,6.24,8.13ZM7.73,3.92a3,3,0,0,1-1.08.21A2.74,2.74,0,0,1,4,2.46,5.79,5.79,0,0,0,1.11,6.94,1.82,1.82,0,0,0,3,8.86a4.25,4.25,0,0,0,3.13-2A11.78,11.78,0,0,0,7.33,4.81C7.46,4.53,7.59,4.22,7.73,3.92ZM5,2a1.75,1.75,0,0,0,1.7,1.29c.79,0,1.37-.43,1.37-.9s-.47-.76-1.29-.76A4.69,4.69,0,0,0,5,2Z"/><path class="cls-1" d="M14.28,7.34c.14-.23.27-.4.48-.4a.39.39,0,0,1,.41.35.34.34,0,0,1-.07.22,3.92,3.92,0,0,1-3.42,2c-1.31,0-2-.55-2-1.59a3.43,3.43,0,0,1,3.13-3.12c.82,0,1.31.4,1.31.89a1.1,1.1,0,0,1-.9,1.1c-.34,0-.54-.19-.54-.47A1.79,1.79,0,0,1,13,5.49a.55.55,0,0,0-.26-.06,2.57,2.57,0,0,0-1.94,2.45c0,.57.4.84,1,.84A2.86,2.86,0,0,0,14.28,7.34Z"/><path class="cls-1" d="M18.84,7.34c.15-.23.28-.4.49-.4a.38.38,0,0,1,.4.35.4.4,0,0,1-.06.22,3.94,3.94,0,0,1-3.42,2c-1.31,0-2.05-.55-2.05-1.59a3.43,3.43,0,0,1,3.14-3.12c.81,0,1.31.4,1.31.89a1.1,1.1,0,0,1-.91,1.1c-.34,0-.54-.19-.54-.47a1.73,1.73,0,0,1,.36-.78.63.63,0,0,0-.27-.06,2.56,2.56,0,0,0-1.93,2.45c0,.57.39.84,1,.84A2.85,2.85,0,0,0,18.84,7.34Z"/><path class="cls-1" d="M23.87,6.94a.39.39,0,0,1,.41.35.34.34,0,0,1-.07.22,3.94,3.94,0,0,1-3.42,2c-1.3,0-2-.55-2-1.55a3.32,3.32,0,0,1,3-3.16c.84,0,1.32.34,1.32,1,0,.85-1.38,1.66-3.19,1.92a2.17,2.17,0,0,0,0,.26c0,.55.44.84,1,.84a2.87,2.87,0,0,0,2.48-1.38C23.53,7.11,23.66,6.94,23.87,6.94Zm-3.79,0c1.17-.24,2-.75,2-1.28,0-.14-.13-.22-.32-.22A2.22,2.22,0,0,0,20.08,6.92Z"/><path class="cls-1" d="M24.71,9.46c-1.2,0-1.83-.56-1.83-1.2a2.08,2.08,0,0,1,.46-.92A15.54,15.54,0,0,0,24.57,5V4.86c0-.72.48-1.23.88-1.23s.58.2.58.47a2.84,2.84,0,0,1-.45,1.05c.25.79,1,1.64,1,2.64a1.4,1.4,0,0,1-.18.67,4.41,4.41,0,0,0,1.07-1.12c.14-.23.27-.4.48-.4a.39.39,0,0,1,.41.35.34.34,0,0,1-.07.22A4.45,4.45,0,0,1,24.71,9.46ZM25,6.08a13.18,13.18,0,0,1-.83,1.43,1.26,1.26,0,0,0-.27.68.71.71,0,0,0,.76.59.89.89,0,0,0,.89-.95A3.91,3.91,0,0,0,25,6.08Z"/><path class="cls-1" d="M27,8.26a2.21,2.21,0,0,1,.46-.92A15.54,15.54,0,0,0,28.65,5V4.86a1.14,1.14,0,0,1,.89-1.23c.37,0,.57.2.57.47a2.84,2.84,0,0,1-.45,1.05c.25.79,1,1.64,1,2.64S30,9.46,28.75,9.46,27,8.9,27,8.26Zm2.12-2.18a13.18,13.18,0,0,1-.83,1.43,1.26,1.26,0,0,0-.27.68.71.71,0,0,0,.76.59.89.89,0,0,0,.89-.95A3.91,3.91,0,0,0,29.08,6.08Z"/></g></g></svg>