<svg xmlns="http://www.w3.org/2000/svg" viewBox="0 0 35.32 12.26"><path d="M7 7.18c.14-.23.28-.39.48-.39a.38.38 0 0 1 .41.35.36.36 0 0 1-.07.22 5.3 5.3 0 0 1-4.4 2.43A3.1 3.1 0 0 1 0 6.62a6.51 6.51 0 0 1 5.92-6 4.12 4.12 0 0 1 .82.09A3.12 3.12 0 0 1 8.42 0c.34 0 .51.17.51.44s-.13.27-.56.41a3.14 3.14 0 0 0-.59.26 1.87 1.87 0 0 1 .74 1.51 1.73 1.73 0 0 1-1.71 1.8A1.36 1.36 0 0 1 5.3 3a2.54 2.54 0 0 1 .62-1.59c-2.15 0-4.78 2.45-4.78 5.18A2.17 2.17 0 0 0 3.5 8.91 4.36 4.36 0 0 0 7 7.18zm0-5.49A1.94 1.94 0 0 0 6.35 3c0 .36.19.55.47.55s.67-.48.67-.94A1.06 1.06 0 0 0 7 1.69z"/><path d="M11 8.77a2.68 2.68 0 0 1-.72-.09 2.66 2.66 0 0 1-1.63.63A1.55 1.55 0 0 1 7 7.71a3.3 3.3 0 0 1 3-3.11c1.07 0 1.71.56 1.71 1.53a3.32 3.32 0 0 1-.77 2h.25a1.67 1.67 0 0 0 1.34-.94c.14-.23.27-.39.48-.39a.38.38 0 0 1 .41.35.44.44 0 0 1-.07.22A2.68 2.68 0 0 1 11 8.77zM9.93 5.33c-.76 0-1.83 1.19-1.83 2.42 0 .56.32.83.71.83a1.26 1.26 0 0 0 .8-.34.31.31 0 0 1 0-.15.54.54 0 0 1 .56-.5 2.92 2.92 0 0 0 .43-1.48c-.04-.54-.29-.78-.67-.78z"/><path d="M16.1 9.31a1.06 1.06 0 0 1-1.16-1.12c0-.91 1-2 1-2.7 0-.11-.08-.16-.21-.16-.47 0-1.19.72-1.68 1.31a7.32 7.32 0 0 0-1.19 2.24.52.52 0 0 1-.52.43.39.39 0 0 1-.42-.41.63.63 0 0 1 .08-.26c.38-1.19.9-2.51 1.32-3.51a.66.66 0 0 1 .61-.48.39.39 0 0 1 .44.39.86.86 0 0 1-.14.37l-.15.38a3.12 3.12 0 0 1 1.85-1.19.93.93 0 0 1 1 .93c0 .91-1 1.84-1 2.73 0 .26.12.4.3.4.46 0 1.05-.71 1.55-1.48.14-.23.27-.39.48-.39a.38.38 0 0 1 .41.35.36.36 0 0 1-.07.22c-.66 1.03-1.55 1.95-2.5 1.95z"/><path d="M22.34 7.18c.14-.23.28-.39.49-.39a.37.37 0 0 1 .4.35.43.43 0 0 1-.06.22 4 4 0 0 1-3.42 2c-1.31 0-2.05-.55-2.05-1.6a3.43 3.43 0 0 1 3.13-3.16c.82 0 1.31.4 1.31.89a1.09 1.09 0 0 1-.9 1.1.48.48 0 0 1-.54-.47 1.74 1.74 0 0 1 .35-.78.45.45 0 0 0-.26-.06 2.57 2.57 0 0 0-1.94 2.44c0 .57.4.85 1 .85a2.84 2.84 0 0 0 2.49-1.39z"/><path d="M27.37 6.79a.38.38 0 0 1 .41.35.44.44 0 0 1-.07.22 3.94 3.94 0 0 1-3.42 2c-1.3 0-2-.55-2-1.55a3.32 3.32 0 0 1 3-3.16c.83 0 1.32.34 1.32.94 0 .85-1.38 1.67-3.19 1.93a2 2 0 0 0 0 .25c0 .55.44.85 1 .85a2.84 2.84 0 0 0 2.47-1.39c.11-.23.27-.44.48-.44zm-3.8 0c1.18-.25 2-.75 2-1.28 0-.14-.13-.22-.32-.22a2.23 2.23 0 0 0-1.68 1.48z"/><path d="M32.85 6.79a.37.37 0 0 1 .4.35.43.43 0 0 1-.06.22 4.88 4.88 0 0 1-4.16 2 2.29 2.29 0 0 1-1.24-.26c-.24-.14-.35-.3-.35-.46a.39.39 0 0 1 .39-.39c.17 0 .21.06.42.25a.76.76 0 0 0 .52.2c.95 0 1.9-1.41 1.9-2.69 0-.39-.18-.63-.46-.63-.47 0-1.26.72-1.75 1.31A8.5 8.5 0 0 0 27.17 9l-1 2.71c-.13.37-.25.57-.59.57a.43.43 0 0 1-.43-.41.82.82 0 0 1 .05-.27c.69-1.94 1.85-4.95 2.49-6.45a.66.66 0 0 1 .61-.48.39.39 0 0 1 .44.39.86.86 0 0 1-.14.37l-.16.39a3.27 3.27 0 0 1 2-1.2A1.27 1.27 0 0 1 31.79 6a3.56 3.56 0 0 1-1.15 2.5 3.45 3.45 0 0 0 1.72-1.3c.15-.2.28-.41.49-.41z"/><path d="M34.18 8.22a.45.45 0 0 1 .38-.22.28.28 0 0 1 .29.28 1.45 1.45 0 0 1-1.38 1.08 1.16 1.16 0 0 1-1.31-1.23 8.74 8.74 0 0 1 .89-2.83h-.34c-.24 0-.39-.1-.39-.33s.15-.32.39-.32h.64l.57-1.11c.37-.71.68-.94.91-.94a.4.4 0 0 1 .45.39 2.5 2.5 0 0 1-.43.89l-.39.77h.48c.24 0 .38.13.38.31s-.15.34-.38.34h-.8a8.82 8.82 0 0 0-1 2.9c0 .35.16.5.39.5a.82.82 0 0 0 .65-.48z"/></svg>