<svg xmlns="http://www.w3.org/2000/svg" viewBox="0 0 19.04 19.05"><title>アセット 3</title><g id="レイヤー_2" data-name="レイヤー 2"><g id="pc固定メニュー"><g id="レイヤー_2-2" data-name="レイヤー 2"><g id="Logo"><path d="M9.52,1.71c2.55,0,2.86,0,3.81.06a5.54,5.54,0,0,1,1.77.32,2.89,2.89,0,0,1,1.09.77,2.89,2.89,0,0,1,.76,1,5.35,5.35,0,0,1,.32,1.81c0,1,.06,1.31.06,3.81s0,2.86-.06,3.81A5,5,0,0,1,17,15.1a3.16,3.16,0,0,1-1.81,1.81,5.38,5.38,0,0,1-1.77.33c-1,0-1.3.05-3.81.05s-2.86,0-3.81-.05A5.55,5.55,0,0,1,3.9,17a2.89,2.89,0,0,1-1-.76,3.07,3.07,0,0,1-.77-1.05,5.31,5.31,0,0,1-.32-1.81c0-1-.06-1.3-.06-3.81s0-2.85.06-3.81A5.35,5.35,0,0,1,2.09,3.9a3,3,0,0,1,.77-1,3,3,0,0,1,1-.77,5.35,5.35,0,0,1,1.81-.32c1,0,1.31-.06,3.81-.06M9.52,0C6.93,0,6.61,0,5.6.06A6.76,6.76,0,0,0,3.29.5,4.54,4.54,0,0,0,1.6,1.6,4.54,4.54,0,0,0,.5,3.29,6.76,6.76,0,0,0,.06,5.6C0,6.61,0,6.93,0,9.52s0,2.92.06,3.93A6.76,6.76,0,0,0,.5,15.76a4.68,4.68,0,0,0,1.09,1.69,4.73,4.73,0,0,0,1.69,1.09A7,7,0,0,0,5.59,19c1,.07,1.34.07,3.93.07s2.92,0,3.93-.06a7,7,0,0,0,2.31-.44,4.82,4.82,0,0,0,2.78-2.78A7,7,0,0,0,19,13.46c0-1,.06-1.35.06-3.93S19,6.62,19,5.61a7.12,7.12,0,0,0-.44-2.32,4.69,4.69,0,0,0-1.09-1.68A4.65,4.65,0,0,0,15.76.5,6.76,6.76,0,0,0,13.45.06C12.44,0,12.11,0,9.52,0Z"/><path d="M9.52,4.63a4.9,4.9,0,1,0,4.9,4.89,4.89,4.89,0,0,0-4.9-4.89Zm0,8.06a3.17,3.17,0,1,1,3.17-3.17h0A3.17,3.17,0,0,1,9.52,12.69Z"/><circle cx="14.61" cy="4.44" r="1.14"/></g></g></g></g></svg>