<svg xmlns="http://www.w3.org/2000/svg" viewBox="0 0 114.05 156.9"><defs><style>.cls-1,.cls-2{fill:none;stroke-linecap:round;stroke-miterlimit:10;}.cls-1{stroke:#000;stroke-width:0.75px;}.cls-2{stroke:#fff;stroke-width:1.89px;}</style></defs><title>アセット 8</title><g id="レイヤー_2" data-name="レイヤー 2"><g id="情報"><line class="cls-1" x1="18.07" y1="17.66" x2="18.07" y2="53.81"/><line class="cls-1" x1="0.38" y1="35.73" x2="28.17" y2="35.73"/><line class="cls-1" x1="10.92" y1="28.59" x2="25.21" y2="42.88"/><line class="cls-1" x1="23.63" y1="30.17" x2="10.92" y2="42.88"/><line class="cls-1" x1="105.38" y1="101.49" x2="105.38" y2="134.82"/><line class="cls-1" x1="94.86" y1="119.57" x2="113.67" y2="119.57"/><line class="cls-1" x1="98.24" y1="112.43" x2="112.53" y2="126.71"/><line class="cls-1" x1="110.94" y1="114.01" x2="100.87" y2="124.09"/><path d="M58.87,2c-.14-2.25-.75-2-.75-2s-.62-.27-.76,2C52.87,74.92,40.12,111.25,40.12,135.15c0,9.94,8.06,21.75,18,21.75s18-11.81,18-21.75C76.12,111.25,63.36,74.92,58.87,2Z"/><path class="cls-2" d="M63.4,74c2.71,16,6,35.84,7.42,46.21"/><path class="cls-2" d="M71.87,131.17c.47,6.43-3,14.15-6.62,17.17"/></g></g></svg>