<svg xmlns="http://www.w3.org/2000/svg" viewBox="0 0 142.47 51.54"><title>アセット 1</title><g id="レイヤー_2" data-name="レイヤー 2"><g id="情報"><path d="M118,11h0a7.1,7.1,0,0,0-2-.29h0c-2,0-3.92,1.55-4.85,3l.49-3.2c0-.18,0-.38-.18-.4L101,8.5c-.18,0-.34.21-.41.64l-.69,4.54c0,.26.07.38.27.42l3.14.47-1.24,8.17-3.25-.49c-.09,0-.24.11-.27.33l-.73,4.79c0,.18.05.45.16.47L111.88,30a.39.39,0,0,0,.35-.36L113,24.8c0-.18,0-.42-.15-.44l-3.13-.47.64-4.18c.38-2.5,2.19-3.64,3-3.51a1.84,1.84,0,0,1,1.42,1.18c.39.72,1.1,2,2.36,2.21s2.85-1.05,3.25-3.67S119.27,11.39,118,11Z"/><path d="M27.38,29.8l-2.77.94L18.46,12.58c-.15-.45-.28-.6-.45-.55l-2.3.78a.8.8,0,0,0-.43.57L14.71,17a8,8,0,0,0-6.86-1.67l-.08,0a16,16,0,0,0-2.71.95h0C-.72,18.78-.42,25.11.55,28c2.21,6.54,7.11,8.29,11.25,6.89,2.92-1,3.88-4.65,4.19-5.84l1.4,4.14-2.85,1c-.33.11-.27.59-.09,1.11l1.2,3.55c.17.49.37.81.53.75L29,35.23c.33-.11.57-.27.45-.62l-1.32-3.9C27.88,30,27.67,29.7,27.38,29.8ZM12.86,28.67c-1.24.41-3.27-.45-4.2-3.2C7.8,22.94,8.76,21,10,20.58c1.12-.37,3.21.55,4.06,3.05S14.2,28.21,12.86,28.67Z"/><path d="M80.9,18H78.61c-.11,0-.17.15-.17.33s-.09,2.94-1.43,2.94c-1.1,0-1.32-1.8-1.32-2V13.87c0-3.56-1.4-5.26-3.93-6h0c-3.67-1.34-10.92-.51-10.92-.51h0c-3.45.35-5.51,1.42-5.51,4.43,0,2.72,1.89,3.42,2.55,3.42a3.63,3.63,0,0,0,3.3-1.4c1.15-1.48,2.21-2.13,3.73-2.13.77,0,2.83.37,2.83,1.87,0,1-1.76,1.47-2.63,1.47H62c-.82,0-6.77.77-6.77,6.17s5.38,5.77,7.6,5.77a5.83,5.83,0,0,0,5-3.64c.43,1.45,1.47,3.1,2.89,3.48,0,0,2.25.91,6.23,0C78.74,26.43,81,24.06,81,18.2,81,18.09,80.94,18,80.9,18Zm-13.34,1a2.7,2.7,0,0,1-2.83,2.38c-.3,0-1.1-.08-1.1-.89,0-1.35,2.3-2.22,2.45-2.28h0C66.72,18,67.6,18.27,67.56,19.06Z"/><path d="M136.7,16.11a24.36,24.36,0,0,0-4.91-1.68h0l-.35-.08c-2.58-.52-8.83-.89-11.32,6.47-3,8.84,4.65,12,8,13.19l1.92.65c6.52,2.2,9.76-2.56,10.81-4.25.06-.1.13-.43,0-.48l-4.09-1.38c-.05,0-.14,0-.25.11a3.73,3.73,0,0,1-4.34.81l-1.73-.58a3.65,3.65,0,0,1-2.4-4.88l13.26,4.48c.28.1.42,0,.48-.15l.21-.62C143.77,22.46,140.22,17.81,136.7,16.11Zm-7.43,5.05A2.83,2.83,0,0,1,133,20,2.89,2.89,0,0,1,134.82,23Z"/><path d="M97.81,18c0-.36,0-.55-.21-.56l-2.09-.13c-.22,0-.3.47-.36.83C94.67,20.6,94,22.07,92.86,22s-1.39-2.1-1.32-3.17l.31-5.2,3.55.21c.22,0,.43-.34.44-.6l.24-4c0-.63-.27-.72-.5-.73l-3.41-.2L92.61.8c0-.37-.11-.56-.29-.57L88.5,0c-.11,0-.26.35-.32.72-1,5.42-2.52,7.17-5.62,7l-1.12-.06c-.18,0-.3.2-.33.64l-.26,4.33a.33.33,0,0,0,.31.38l3.14.19-.51,8.47c-.26,4.47,2.54,5.63,3.21,5.67a25.29,25.29,0,0,0,5.41.27,2.32,2.32,0,0,0,.38-.06h0C96.58,26.67,97.71,19.65,97.81,18Z"/><path d="M53,21.3l-3.1.37L48.29,8.33c0-.22-.13-.47-.24-.45L37.27,9.18c-.12,0-.2.14-.17.39l.58,4.85c0,.18.14.39.27.38l3.3-.4.23,1.86c.44,3.68.22,6.15-2.46,6.47s-3.18-1.06-3.56-4.23l-.93-7.69c-.12-1-.25-1.27-.5-1.24L24,10.79c-.31,0-.55.25-.46.94l.54,4.49c0,.14.07.25.25.23l3.1-.38.83,6.86c.44,3.7,1.53,5.91,3.85,6.36h0a5.53,5.53,0,0,0,1.1.08,18,18,0,0,0,5.24-.63l.43-.12a3.82,3.82,0,0,0,1.48-.78,6.27,6.27,0,0,0,2.18-2.68l.32,2.69c0,.19.16.36.32.34l10.57-1.28c.18,0,.27-.22.22-.66l-.56-4.63A.34.34,0,0,0,53,21.3Z"/><path d="M20.49,40.36h3.4v3.85H27.6V40.36H31v11H27.6V46.91H23.89v4.44h-3.4Z"/><path d="M40,49.54H36.17l-.53,1.81H32.17l4.13-11H40l4.13,11H40.58Zm-.7-2.38-1.22-3.95-1.2,3.95Z"/><path d="M45.36,40.36h3.4v11h-3.4Z"/><path d="M51.24,51.35v-11h5.67a8.27,8.27,0,0,1,2.41.27,2.56,2.56,0,0,1,1.34,1A3.38,3.38,0,0,1,60.78,45a3.16,3.16,0,0,1-1.07,1.08,4.12,4.12,0,0,1-1.2.43,3.41,3.41,0,0,1,.89.41,3.89,3.89,0,0,1,.54.57,4.44,4.44,0,0,1,.48.69l1.64,3.18H58.22L56.41,48a2.56,2.56,0,0,0-.62-.84,1.41,1.41,0,0,0-.83-.26h-.3v4.46Zm3.42-6.54h1.43a5,5,0,0,0,.9-.15.87.87,0,0,0,.55-.34,1.05,1.05,0,0,0,.22-.64,1,1,0,0,0-.34-.82,2.07,2.07,0,0,0-1.27-.28H54.66Z"/><path d="M68.32,40.36h5.05a6.06,6.06,0,0,1,2.41.4,4,4,0,0,1,1.52,1.16,4.89,4.89,0,0,1,.87,1.77,8.18,8.18,0,0,1,.27,2.13,7.53,7.53,0,0,1-.4,2.73,4.52,4.52,0,0,1-1.12,1.63,3.49,3.49,0,0,1-1.53.87,7.85,7.85,0,0,1-2,.3H68.32Zm3.4,2.49v6h.83a3.43,3.43,0,0,0,1.51-.24,1.62,1.62,0,0,0,.71-.82A5.24,5.24,0,0,0,75,45.89a3.72,3.72,0,0,0-.57-2.4,2.41,2.41,0,0,0-1.89-.64Z"/><path d="M80.22,40.36h9.1v2.35h-5.7v1.74h5.29V46.7H83.62v2.16h5.87v2.49H80.22Z"/><path d="M90.73,47.72,94,47.51a2.38,2.38,0,0,0,.43,1.2,1.78,1.78,0,0,0,1.5.67A1.65,1.65,0,0,0,97,49a1,1,0,0,0,.39-.79,1,1,0,0,0-.37-.77,4.45,4.45,0,0,0-1.74-.63,7.38,7.38,0,0,1-3.19-1.34,2.67,2.67,0,0,1-1-2.12,2.84,2.84,0,0,1,.49-1.6,3.24,3.24,0,0,1,1.48-1.19,6.86,6.86,0,0,1,2.7-.43A5.57,5.57,0,0,1,99,41a3.43,3.43,0,0,1,1.31,2.5l-3.2.19a1.51,1.51,0,0,0-1.67-1.42,1.35,1.35,0,0,0-.89.25.77.77,0,0,0-.3.61.59.59,0,0,0,.25.47,2.77,2.77,0,0,0,1.14.41,14.17,14.17,0,0,1,3.19,1,3.33,3.33,0,0,1,1.4,1.22,3,3,0,0,1,.44,1.63,3.5,3.5,0,0,1-.58,1.95,3.72,3.72,0,0,1-1.64,1.35,6.56,6.56,0,0,1-2.65.46c-1.87,0-3.16-.36-3.88-1.08A4.22,4.22,0,0,1,90.73,47.72Z"/><path d="M102.55,40.36H106v11h-3.4Z"/><path d="M113.92,47.37V45.08h5.25v4.69a10.61,10.61,0,0,1-2.66,1.4,9,9,0,0,1-2.75.37,6.67,6.67,0,0,1-3.2-.67,4.52,4.52,0,0,1-1.91-2,6.56,6.56,0,0,1-.68-3,6.32,6.32,0,0,1,.75-3.14,4.83,4.83,0,0,1,2.17-2,7.19,7.19,0,0,1,3-.53,8.53,8.53,0,0,1,2.73.33,3.59,3.59,0,0,1,1.5,1,4.71,4.71,0,0,1,.89,1.76l-3.28.59a1.73,1.73,0,0,0-.68-.95,2.16,2.16,0,0,0-1.24-.33,2.21,2.21,0,0,0-1.78.77,3.77,3.77,0,0,0-.66,2.46,3.84,3.84,0,0,0,.67,2.55,2.36,2.36,0,0,0,1.87.76A3.6,3.6,0,0,0,115,49a6.11,6.11,0,0,0,1.18-.56v-1Z"/><path d="M121.21,40.36h3.18l4.14,6.08V40.36h3.2v11h-3.2l-4.12-6v6h-3.2Z"/></g></g></svg>