<svg xmlns="http://www.w3.org/2000/svg" viewBox="0 0 44.27 10.9"><path d="M7.28 2.14c-.4 1.41-1.57 2.71-2.68 2.71a1.25 1.25 0 0 1-1.43-1.3c0-1.23 1.69-2.46 3.24-2.55a.91.91 0 0 0-.1-.4.45.45 0 0 1 0-.2.45.45 0 0 1 .43-.4c.36 0 .69.4.69 1.16A1.87 1.87 0 0 1 8.6 3a7.89 7.89 0 0 1-1.11 3.56 4.78 4.78 0 0 1 2.2 1.83c2-5.9 4.08-7.4 5.6-7.4.66 0 1.07.3 1.07.52a.46.46 0 0 1-.42.5c-.21 0-.23-.14-.65-.14-1.15 0-3.18 1.95-5 8-.17.57-.24.72-.66.72a.44.44 0 0 1-.49-.45 1.68 1.68 0 0 1 0-.2A3.41 3.41 0 0 0 7 7.32C5.75 9.26 3.88 10.9 2.17 10.9.84 10.9 0 10.18 0 9.13 0 7.6 2.11 6 4.93 6a6.24 6.24 0 0 1 1.59.2A7.23 7.23 0 0 0 7.57 3a1.23 1.23 0 0 0-.29-.86zM6.06 7a5.18 5.18 0 0 0-1.14-.12c-2.17 0-3.86 1.21-3.86 2.25 0 .54.43.89 1.1.89C3.48 10 5 8.65 6.06 7zm.25-5.14c-1 .06-2.11.87-2.11 1.69a.4.4 0 0 0 .44.45C5.29 4 6 2.9 6.31 1.86zm9.18 3.62a1.07 1.07 0 0 1 1 .56.84.84 0 0 1 .7-.56c.27 0 .42.15.42.37a2.43 2.43 0 0 1-.45.93A6.53 6.53 0 0 0 16.41 9c0 .34.15.5.32.5.46 0 1.05-.71 1.54-1.48.15-.23.28-.39.49-.39a.37.37 0 0 1 .4.35.43.43 0 0 1-.06.22c-.67 1-1.55 1.95-2.5 1.95a1.12 1.12 0 0 1-1.2-.95 2.33 2.33 0 0 1-1.65.95 1.32 1.32 0 0 1-1.43-1.41 3.54 3.54 0 0 1 3.17-3.26zm-1.49 4c.44 0 .89-.46 1.31-1.07a9.54 9.54 0 0 0 .88-1.71.62.62 0 0 0-.7-.53c-.86 0-2 1.4-2 2.65-.03.44.19.66.51.66z"/><path d="M19.35 10.19A1.13 1.13 0 0 1 18.09 9a6.7 6.7 0 0 1 .84-2.56c.38-.71.65-.93.94-.93a.37.37 0 0 1 .41.37A3 3 0 0 1 19.72 7a5 5 0 0 0-.61 2c0 .39.16.55.37.55.46 0 1.06-.71 1.55-1.48.15-.23.28-.39.49-.39a.37.37 0 0 1 .4.35.43.43 0 0 1-.06.22c-.67 1.02-1.56 1.94-2.51 1.94zm1.32-6.46a.5.5 0 0 1 .56.52.75.75 0 0 1-.76.71.53.53 0 0 1-.58-.54.77.77 0 0 1 .78-.69z"/><path d="M24.24 9.1a.47.47 0 0 1 .39-.27.28.28 0 0 1 .29.28 1.4 1.4 0 0 1-1.3 1.08 1.06 1.06 0 0 1-1.17-1.12c0-.89 1-1.88 1-2.48 0-.19-.19-.32-.38-.42a22.72 22.72 0 0 1-1.18 2.07c-.14.23-.28.4-.49.4a.38.38 0 0 1-.4-.36.46.46 0 0 1 0-.22 17.81 17.81 0 0 0 1.29-2.34v-.15a1.2 1.2 0 0 1 .89-1.28.46.46 0 0 1 .52.46 2.21 2.21 0 0 1-.32.85c.45.25 1 .46 1 1 0 .73-1 1.66-1 2.57 0 .24.1.39.28.39s.43-.22.58-.46zm8.26.42a1.94 1.94 0 0 0 2.06-1.92c0-1.44-1.56-2.17-1.56-3.76a2.61 2.61 0 0 1 2.76-2.39 3.22 3.22 0 0 1 .91.13 3.13 3.13 0 0 1 1.42-.49c.26 0 .42.12.42.34s-.09.31-.47.41a3 3 0 0 0-.53.2A1.55 1.55 0 0 1 38 3.2a1.68 1.68 0 0 1-1.58 1.72 1.2 1.2 0 0 1-1.3-1.22 2.17 2.17 0 0 1 .61-1.39 1.54 1.54 0 0 0-1.6 1.43c0 1.34 1.6 2.1 1.6 3.74a3.06 3.06 0 0 1-3.23 2.9A3.28 3.28 0 0 1 29 7c0-.54.26-.8.55-.8a1.39 1.39 0 0 1 .87.38 5.23 5.23 0 0 0 2.07.91.4.4 0 1 1-.1.79 5.82 5.82 0 0 1-2.21-.81c-.09-.06-.15 0-.14.08a2.47 2.47 0 0 0 2.46 1.97zm4.22-7a1.58 1.58 0 0 0-.63 1.15c0 .27.13.44.39.44s.58-.43.58-.94a.78.78 0 0 0-.34-.62zm5.08 5.15a.38.38 0 0 1 .41.35.36.36 0 0 1-.07.22 3.94 3.94 0 0 1-3.42 1.95c-1.3 0-2-.55-2-1.55a3.32 3.32 0 0 1 3-3.16c.84 0 1.32.34 1.32.94 0 .85-1.38 1.67-3.19 1.93a2 2 0 0 0 0 .25c0 .55.44.85 1 .85a2.86 2.86 0 0 0 2.48-1.39c.13-.23.26-.39.47-.39zm-3.8 0c1.18-.25 2-.75 2-1.28 0-.14-.13-.22-.32-.22A2.23 2.23 0 0 0 38 7.65z"/><path d="M43.13 9.1a.45.45 0 0 1 .39-.27.27.27 0 0 1 .28.28 1.44 1.44 0 0 1-1.37 1.08A1.15 1.15 0 0 1 41.12 9 8.43 8.43 0 0 1 42 6.13h-.34c-.24 0-.4-.1-.4-.33s.16-.32.4-.32h.64l.57-1.11c.36-.71.67-.94.9-.94a.4.4 0 0 1 .45.39 2.33 2.33 0 0 1-.43.89l-.38.77h.47c.24 0 .38.13.38.31s-.15.34-.38.34h-.78a8.64 8.64 0 0 0-1 2.9c0 .35.17.5.4.5a.79.79 0 0 0 .63-.43z"/></svg>