<svg xmlns="http://www.w3.org/2000/svg" viewBox="0 0 240.92 80.73"><defs><style>.cls-1{fill:#e5d7bf;}</style></defs><title>アセット 4</title><g id="レイヤー_2" data-name="レイヤー 2"><g id="情報"><path class="cls-1" d="M44.86,32C52.07,21.63,64.08,8.1,74.32,8.1,80.1,8.1,84.47,12,84.47,20.47a40.24,40.24,0,0,1-1.34,10.24c7.39-10,19.14-22.61,29.28-22.61,6,0,10.33,3.56,10.33,11,0,15.66-22.79,35.6-22.79,49.93,0,4.89,2.67,7.65,6.23,7.65,5.61,0,12.55-7.83,18.16-16.55a1.73,1.73,0,0,1,3.29.8,2.47,2.47,0,0,1-.35,1.24c-6.06,9.44-13.44,18.25-21.81,18.25-6,0-10.68-4.09-10.68-11.48,0-15.58,22.78-35.78,22.78-49.93,0-4.63-2-7-5.6-7C104.4,12.1,93.28,23.67,85.18,35A113.2,113.2,0,0,0,74.76,53C71,60.52,66,71.65,63.64,77.17c-.89,2-2,3.11-3.21,3.11a2.43,2.43,0,0,1-2.58-2.58c0-3.11,2.76-8.81,8-17.27a197.57,197.57,0,0,0,8.37-18.6c3.83-10,5.16-16.91,5.16-21.45,0-5.61-2-8.28-5.52-8.28-7.47,0-18.6,11.57-26.7,22.88A113.16,113.16,0,0,0,36.76,53c-3.83,7.74-8.9,19-11.3,24.65-.9,2-2.05,3.12-3.21,3.12a2.43,2.43,0,0,1-2.58-2.58c0-3.12,2.76-8.82,8-17.27,1.34-2.58,5.7-11.57,8.54-19.05,3.56-9.25,5.17-15.49,5.17-19.76,0-4.8-2-7.92-5.34-9.25C33.91,26.17,21,43.08,9.61,43.08c-6,0-9.61-3.56-9.61-9.7C0,20.83,16.91,8.46,31.77,8.28a9.65,9.65,0,0,0-1.15-4.9A2.82,2.82,0,0,1,30.08,2a2.08,2.08,0,0,1,2.14-2c2.05,0,4.09,3,4.18,8.81,6.14,1.6,10.06,6.68,10.06,13.35A32.67,32.67,0,0,1,44.86,32ZM31.51,12.1C18.87,12.28,4.72,22.87,4.72,33.73c0,3.47,1.87,5.52,5,5.52C19.05,39.25,29.73,23.67,31.51,12.1Z"/><path class="cls-1" d="M160,60.17s.63-1,1.43-1a1.78,1.78,0,0,1,1.87,1.87,2.85,2.85,0,0,1-.36,1.15c-6.23,9.62-16.2,16.65-26.35,16.65-8.63,0-13.44-4.27-13.44-12.11,0-14.68,13.09-25.54,22.61-25.54,5.34,0,8.46,2.67,8.46,7.39,0,7.21-11.4,13.88-25.81,15.22-.09,1-.18,2-.18,3,0,5.43,3.56,8.19,8.81,8.19C144.36,75,154.24,69.16,160,60.17Zm-30.7,0c11.48-1.43,20.11-6.77,20.11-12.11,0-2-1.51-3.2-3.74-3.2C140.26,44.86,132.16,51.27,129.32,60.17Z"/><path class="cls-1" d="M203.63,60.17a1.73,1.73,0,0,1,3.29.8,2.38,2.38,0,0,1-.35,1.24c-5.52,8.55-12,16.65-19.32,16.65-4.62,0-7.65-3-7.65-8.19C179.6,62.75,188,54.2,188,48a2.86,2.86,0,0,0-3.12-3.11c-4.72,0-12.46,5.78-16.82,11-3.65,4.45-6.94,13.18-9.17,20.3-.35,1.15-.89,2.67-2.67,2.67a1.68,1.68,0,0,1-1.78-1.78,6.28,6.28,0,0,1,.36-2.14c3.47-10.68,8.19-22.43,11.92-31.42.63-1.51,1.61-2.31,2.85-2.31a1.92,1.92,0,0,1,2.14,2c0,1.07-.8,2.85-2.14,5.16l-1.24,3c5-5.43,11.48-10.15,16.64-10.15,4.36,0,7.57,2.85,7.57,7.12,0,7.56-8.19,15.13-8.19,23,0,2.58,1.42,4,3.65,4C192.68,75.3,198.56,68,203.63,60.17Z"/><path class="cls-1" d="M238.07,70.49a1.72,1.72,0,0,1,1.43-1.07,1.49,1.49,0,0,1,1.42,1.52c0,2.49-4.18,7.92-9.08,7.92-4.54,0-8.36-3.21-8.36-9.26a4.71,4.71,0,0,1,.09-1.16c-4.19,5.88-8.82,10.42-13.62,10.42s-8.19-3.12-8.19-9.35c0-5.87,3.56-14.59,6.67-20.74,2.76-5.34,4.19-7.56,5.52-7.56a2.14,2.14,0,0,1,2.41,2.13c0,1.52-1.34,4.19-3.83,8.19-2.85,5.88-5.88,13.09-5.88,18.16,0,3.92,1.7,5.34,3.74,5.34,4,0,8.19-4.72,12.29-10.59,3.11-4.45,6-11.22,8.45-16.82,2.05-4.72,3.29-6.41,4.72-6.41a2,2,0,0,1,2.22,2c0,1.51-1.51,4.27-4,8.27-2.76,6-6,13.09-6,18.07,0,3.92,1.7,5.7,4.28,5.7C234.6,75.3,236.56,73,238.07,70.49Z"/></g></g></svg>