<svg xmlns="http://www.w3.org/2000/svg" viewBox="0 0 235.76 80.73"><defs><style>.cls-1{fill:#e5d7bf;}</style></defs><title>アセット 6</title><g id="レイヤー_2" data-name="レイヤー 2"><g id="情報"><path class="cls-1" d="M86.16,22.87c0-7.12-3.47-10.68-8.9-10.68C62.57,12.19,48.33,28.3,42.9,39c-4.72,9.71-13.35,29.11-17.44,38.63-.89,2-2.05,3.12-3.21,3.12a2.43,2.43,0,0,1-2.58-2.58c0-3.12,2.76-8.82,8-17.27,1.6-3,6.41-13.71,9.88-22.52,3-7.65,3.83-12.1,3.83-16.29,0-4.8-2-7.92-5.34-9.25C33.91,26.17,21,43.08,9.61,43.08c-6,0-9.61-3.56-9.61-9.7C0,21.27,17.18,8.46,31.77,8.28a9.65,9.65,0,0,0-1.15-4.9A2.82,2.82,0,0,1,30.08,2a2.08,2.08,0,0,1,2.14-2c2.05,0,4.09,3,4.18,8.9,6.06,1.6,9.88,6.68,9.88,13.26a44.34,44.34,0,0,1-.44,5.16C53.31,17.8,65,8.19,77.17,8.19,85.89,8.19,91.5,13.53,91.5,23c0,19.23-19.67,39.79-37.65,39.79-7.12,0-14.24-4.1-14.24-6.77a2.46,2.46,0,0,1,2-2.22c1,0,1.61.53,2.59,1.51a14.06,14.06,0,0,0,9.52,3.47C70.14,58.74,86.16,39.25,86.16,22.87ZM31.51,12.1C19.14,12.28,4.72,23.32,4.72,33.73c0,3.47,1.87,5.52,5,5.52C19.05,39.25,29.73,23.67,31.51,12.1Z"/><path class="cls-1" d="M98.79,51.27c4.89-5.43,11.39-10.06,16.55-10.06,4.37,0,7.57,2.85,7.57,7.12,0,7.56-8.19,15.13-8.19,23,0,2.58,1.43,4,3.65,4C123.09,75.3,129,68,134,60.17a1.76,1.76,0,0,1,1.51-1A1.78,1.78,0,0,1,137.33,61a2.4,2.4,0,0,1-.36,1.24c-5.52,8.55-12,16.65-19.31,16.65-4.63,0-7.66-3-7.66-8.19,0-7.92,8.37-16.47,8.37-22.7a2.86,2.86,0,0,0-3.12-3.11c-4.71,0-12.46,5.78-16.82,11-3.65,4.45-6.94,13.18-9.16,20.3-.36,1.15-.89,2.67-2.67,2.67a1.68,1.68,0,0,1-1.78-1.78,6.26,6.26,0,0,1,.35-2.14c5.88-17.09,14.06-36.85,20.38-51.71.8-2,2.14-3.11,3.3-3.11a2.13,2.13,0,0,1,2.4,2.13c0,2.05-1.69,5.79-5.16,11.3Z"/><path class="cls-1" d="M179,60.17s.62-1,1.42-1a1.82,1.82,0,0,1,1.87,1.87,3,3,0,0,1-.35,1.15c-5.25,8-10.59,12.29-17.45,12.29a11.59,11.59,0,0,1-6.41-1.78c-3.73,3.74-8.36,6.14-13,6.14-7,0-12.11-4.36-12.11-12.73,0-13.26,12.11-24.92,22.52-24.92,7.12,0,11.48,4.27,11.48,11.66a28.25,28.25,0,0,1-6.14,16.73A6.33,6.33,0,0,0,165.09,71C169.63,71,174.17,67.46,179,60.17ZM155.39,44.86c-7.3,0-17.35,10.68-17.35,21.54,0,5.78,3.29,8.72,7.21,8.72,3.65,0,7.3-2.14,10.23-5.43a1.12,1.12,0,0,1-.09-.53,2.54,2.54,0,0,1,2.41-2.58,26.36,26.36,0,0,0,4.36-13.89C162.16,47.44,159.49,44.86,155.39,44.86Z"/><path class="cls-1" d="M202.65,60.17c.45-.71.89-1.07,1.51-1.07A1.84,1.84,0,0,1,206,60.7a2.42,2.42,0,0,1-.44,1.42c-5.88,9.17-12.11,16.74-19.32,16.74-5.42,0-8.9-3.38-8.9-10,0-5.61,3.56-15.13,7.75-24.21h-4.19c-1.42,0-2.31-.53-2.31-1.78s.89-1.69,2.31-1.69h5.88c1.6-3.29,3.29-6.59,4.8-9.44,2.76-5.34,4.19-7.56,5.52-7.56a2.14,2.14,0,0,1,2.41,2.13c0,1.52-1.34,4.19-3.83,8.19l-3.38,6.68h5.07c1.42,0,2.22.71,2.22,1.6,0,1.25-.89,1.87-2.22,1.87h-6.76c-4.45,9.43-8.37,19.14-8.37,24.83,0,4.1,2,5.79,4.63,5.79C191.61,75.3,197.76,68.27,202.65,60.17Z"/><path class="cls-1" d="M213.86,78.86c-7,0-12.1-4.36-12.1-12.73,0-13.26,12.1-24.92,22.52-24.92,7.12,0,11.48,4.27,11.48,11.66C235.76,65.24,224.81,78.86,213.86,78.86Zm10.33-34.09c-7.3,0-17.62,10.77-17.62,21.63,0,5.78,3.56,8.72,7.47,8.72,8.72,0,17.09-12,17.09-22.43C231.13,47.44,228.28,44.77,224.19,44.77Z"/></g></g></svg>