<svg xmlns="http://www.w3.org/2000/svg" viewBox="0 0 111.6 150.77"><path d="M24.42 150.77C11 150.77 0 145.07 0 138.05V14.43c0-7 11-12.72 24.41-12.72A42 42 0 0 1 38 3.83a1.22 1.22 0 0 1 .5.46V61c6.41 2.35 10.32 6.25 10.5 10.48l.44 66.66c-.62 6.93-11.57 12.63-25.02 12.63zm0-148.06C11.51 2.71 1 8 1 14.43v123.62c0 6.46 10.5 11.72 23.41 11.72s23.4-5.26 23.4-11.72V71.46c0-3.83-3.79-7.44-10.15-9.65a.51.51 0 0 1-.34-.47V4.67a41.17 41.17 0 0 0-12.9-1.96zM62.93 1.1v5.56h-1v-.41h-4.7v-1h4.65v-3.2h-4.59V1.1zm5.55.17c0 .09-.08.16-.21.18 0 2.29-.25 4.15-1.35 5.63a8.34 8.34 0 0 0-.92-.52c1.06-1.24 1.2-3.32 1.2-5.37zm2.06 4.16a4.64 4.64 0 0 0 2.08-2.91 5.65 5.65 0 0 0 .91.55 6 6 0 0 1-3.21 3.66.59.59 0 0 1-.18.2l-.76-.88.13-.17V.2l1.25.06a.24.24 0 0 1-.22.2zm12.07-1.96H80.1h.16a.2.2 0 0 1-.18.1 4.27 4.27 0 0 1-2.41 3.45 8.85 8.85 0 0 0-.77-.68A3.35 3.35 0 0 0 79 3.47h-2.85v-.93h6.46zm-.81-2.21h-4.91V.32h4.91zm5.2.89a8.71 8.71 0 0 1 .57 1.7l-.77.21a10.08 10.08 0 0 0-.55-1.69zm4.66.18a.19.19 0 0 1-.2.11 6.19 6.19 0 0 1-3.72 4.48 3.49 3.49 0 0 0-.55-.63A5.35 5.35 0 0 0 90.63 2zm-2.76-.51a10.53 10.53 0 0 1 .39 1.75l-.82.17A9.72 9.72 0 0 0 88.08 2zm12.7-.13a.45.45 0 0 1-.18.15 8.34 8.34 0 0 1-4.31 5.28 3.62 3.62 0 0 0-.75-.77 6.77 6.77 0 0 0 3.77-4.14h-2.35a8.39 8.39 0 0 1-1.71 1.84 5 5 0 0 0-.82-.66A7.85 7.85 0 0 0 97.76 0L99 .3a.25.25 0 0 1-.26.14c-.13.29-.29.57-.43.83h2.28l.15-.07zm8.97-.75a.24.24 0 0 1-.15.13 12.67 12.67 0 0 1-1.49 2.65 32.4 32.4 0 0 1 2.67 2.46l-.89.78a25.67 25.67 0 0 0-2.44-2.45A13.18 13.18 0 0 1 105.44 7a4.88 4.88 0 0 0-.74-.77 10.37 10.37 0 0 0 4.3-4.71h-3.6v-1h4.18l.16-.06z"/><path d="M7.51 23.58a.46.46 0 0 1-.23-.06C2.59 21.12.18 17.89 0 14.43c-.35-7 10.54-12.76 24.41-12.72A42.41 42.41 0 0 1 38 3.84a.5.5 0 0 1 .09.9L7.77 23.5a.5.5 0 0 1-.26.08zM24.42 2.71C11.51 2.71 1 8 1 14.43c0 3 2.3 5.87 6.48 8.07l29.17-18a41.9 41.9 0 0 0-12.23-1.79zm.47 81.67a40.69 40.69 0 0 1-17.61-3.83.5.5 0 0 1-.28-.43.47.47 0 0 1 .24-.44l30.33-18.77a.5.5 0 0 1 .43 0c6.78 2.35 10.82 6.31 10.82 10.59 0 6.98-10.47 12.88-23.93 12.88zM8.54 80.05a38.3 38.3 0 0 0 15.88 3.14c12.9 0 23.4-5.27 23.4-11.73 0-3.79-3.7-7.36-9.93-9.57z"/><path d="M32.6 65.67a3 3 0 0 0-1-.16c-1 0-1.76.4-1.76.9 0 .25.2.47.52.63a2.65 2.65 0 0 0 1.24.27c1 0 1.75-.4 1.75-.9.02-.31-.28-.58-.75-.74zm5.84 1.26a3 3 0 0 0-1-.16c-1 0-1.75.4-1.75.9 0 .25.19.47.51.63a2.71 2.71 0 0 0 1.24.27c1 0 1.76-.4 1.76-.9.01-.31-.3-.58-.76-.74zM11.07 15.82a3 3 0 0 0-1-.16c-1 0-1.75.4-1.75.9 0 .25.19.47.51.63a2.68 2.68 0 0 0 1.24.27c1 0 1.75-.41 1.75-.9.02-.31-.28-.56-.75-.74zm5.22-.16a3 3 0 0 0-1-.15c-1 0-1.75.4-1.75.89a.78.78 0 0 0 .51.64 2.85 2.85 0 0 0 1.24.26c1 0 1.76-.4 1.76-.9.01-.3-.3-.58-.76-.74zm-3.41-4.58a3 3 0 0 0-1-.15c-1 0-1.75.4-1.75.89a.8.8 0 0 0 .51.64 2.85 2.85 0 0 0 1.24.26c1 0 1.76-.4 1.76-.9.01-.31-.3-.58-.76-.74zm5.71-1.6a3 3 0 0 0-1-.15c-1 0-1.75.4-1.75.89a.8.8 0 0 0 .51.64 2.85 2.85 0 0 0 1.24.26c1 0 1.76-.4 1.76-.9.01-.31-.3-.58-.76-.74zm-5.76-2.12a3 3 0 0 0-1-.16c-1 0-1.75.4-1.75.9 0 .25.2.47.51.63a2.84 2.84 0 0 0 1.25.27c1 0 1.76-.41 1.76-.9 0-.31-.31-.58-.77-.74zm9.95 0a3 3 0 0 0-1-.16c-1 0-1.75.4-1.75.9 0 .25.2.47.51.63a2.84 2.84 0 0 0 1.25.27c1 0 1.76-.41 1.76-.9 0-.31-.31-.58-.77-.74zm-3.6-1.88a3 3 0 0 0-1-.15c-1 0-1.75.4-1.75.89a.78.78 0 0 0 .51.64 2.85 2.85 0 0 0 1.24.26c1 0 1.76-.4 1.76-.9.06-.31-.3-.58-.76-.74zm7.63 0a3 3 0 0 0-1-.15c-1 0-1.75.4-1.75.89a.8.8 0 0 0 .51.64 2.85 2.85 0 0 0 1.24.26c1 0 1.76-.4 1.76-.9.01-.31-.3-.58-.76-.74zm.99 2.62a3 3 0 0 0-1-.16c-1 0-1.75.41-1.75.9 0 .25.2.47.51.63a2.71 2.71 0 0 0 1.24.27c1 0 1.76-.4 1.76-.9.01-.31-.3-.58-.76-.74zm4.38-1.4a3 3 0 0 0-1-.16c-1 0-1.75.4-1.75.9 0 .25.2.47.51.63a2.71 2.71 0 0 0 1.24.27c1 0 1.76-.41 1.76-.9.06-.31-.3-.58-.76-.74zm.39 63.05a3 3 0 0 0-1-.16c-1 0-1.76.4-1.76.9 0 .25.2.47.52.63a2.65 2.65 0 0 0 1.24.27c1 0 1.75-.41 1.75-.9.02-.31-.32-.58-.75-.74zm7.21 1.13a3 3 0 0 0-1-.16c-1 0-1.75.4-1.75.9 0 .25.19.47.51.63a2.71 2.71 0 0 0 1.24.27c1 0 1.76-.4 1.76-.9.01-.31-.3-.62-.76-.74zm-5.34 4.05a3 3 0 0 0-1-.16c-1 0-1.75.4-1.75.9 0 .25.2.47.51.63a2.71 2.71 0 0 0 1.24.27c1 0 1.76-.41 1.76-.9.01-.31-.3-.58-.76-.74zm-3.81-1.55a3 3 0 0 0-1-.16c-1 0-1.75.41-1.75.9 0 .25.2.47.51.64a2.85 2.85 0 0 0 1.24.26c1 0 1.76-.4 1.76-.9.01-.31-.3-.58-.76-.74zM29.79 77a3 3 0 0 0-1-.15c-1 0-1.75.4-1.75.89 0 .25.2.47.51.64a2.85 2.85 0 0 0 1.24.26c1 0 1.76-.4 1.76-.9.01-.33-.3-.6-.76-.74zm-4.74-1.95a3 3 0 0 0-1-.16c-1 0-1.75.4-1.75.9 0 .25.19.47.51.63a2.85 2.85 0 0 0 1.24.26c1 0 1.75-.4 1.75-.89.02-.31-.28-.58-.75-.74zm-6.8.47a3 3 0 0 0-1-.15c-1 0-1.76.4-1.76.89a.79.79 0 0 0 .52.64 2.78 2.78 0 0 0 1.24.26c1 0 1.75-.4 1.75-.9 0-.26-.28-.58-.75-.74zm4.53 3.94a3.27 3.27 0 0 0-1-.15c-1 0-1.75.4-1.75.9a.8.8 0 0 0 .51.63 2.85 2.85 0 0 0 1.24.26c1 0 1.76-.4 1.76-.89.01-.31-.3-.58-.76-.75zM7.51 80.6a.5.5 0 0 1-.24-.06.5.5 0 0 1-.27-.44v-57a.52.52 0 0 1 .24-.43l2.89-1.79a.52.52 0 0 1 .51 0 .51.51 0 0 1 .26.44v57a.51.51 0 0 1-.24.43l-2.9 1.79a.48.48 0 0 1-.25.06zm.63-57.26c.15 1.37.09 55.91.09 55.91L9.91 78V22.18z"/><path stroke-linecap="round" stroke-linejoin="round" fill="none" stroke="#000" d="M34.93 63.13l2.9-1.79V4.31l-2.9 1.8v57.02z"/><path d="M10.41 21.79a.46.46 0 0 1-.23-.06c-3.85-2-6-4.62-6-7.48 0-5.76 9-10.45 20-10.45a34.19 34.19 0 0 1 11.07 1.74.5.5 0 0 1 .33.42.51.51 0 0 1-.23.48L10.67 21.71a.5.5 0 0 1-.26.08zm13.76-17c-10.46 0-19 4.24-19 9.45 0 2.4 1.83 4.69 5.18 6.46L33.9 6.16a34 34 0 0 0-9.73-1.36zm.06 76.95a31.6 31.6 0 0 1-14-3 .52.52 0 0 1-.27-.43.48.48 0 0 1 .23-.44l24.74-15.32a.48.48 0 0 1 .42 0c5.58 1.94 8.92 5.21 8.92 8.75 0 5.7-8.99 10.44-20.04 10.44zm-12.78-3.48a45.06 45.06 0 0 0 12.78 2.48c10.49.44 19-4.26 19-9.49 0-3-3-5.93-8-7.73z"/><path d="M26.35 11.42a9.76 9.76 0 0 0-3.14-.49c-3.1 0-5.61 1.28-5.61 2.86 0 .79.63 1.51 1.64 2l7.11-4.4zm-7.11 61.42a9.77 9.77 0 0 0 3.15.5c3.09 0 5.6-1.29 5.6-2.87a2.5 2.5 0 0 0-1.64-2l-7.11 4.39z"/><path d="M26.35 68.44l-7.1 4.4V15.82l7.1-4.4v57.02z"/><ellipse cx="28.63" cy="14.7" rx="1.32" ry="1.75"/><ellipse cx="32.62" cy="15.55" rx="1.32" ry="1.75"/><ellipse cx="31.96" cy="8.51" rx="1.32" ry="1.75"/><ellipse cx="30.44" cy="21.29" rx="1.32" ry="1.75"/><ellipse cx="29.12" cy="33.72" rx="1.32" ry="1.75"/><ellipse cx="32.74" cy="39.61" rx="1.32" ry="1.75"/><ellipse cx="29.12" cy="46.34" rx="1.32" ry="1.75"/><ellipse cx="32.34" cy="51.75" rx="1.32" ry="1.75"/><ellipse cx="28.78" cy="57.13" rx="1.32" ry="1.75"/><ellipse cx="16.29" cy="62.62" rx="1.32" ry="1.75"/><ellipse cx="13.65" cy="69.14" rx="1.32" ry="1.75"/><ellipse cx="17.11" cy="69.85" rx="1.32" ry="1.75"/><ellipse cx="13.65" cy="56.65" rx="1.32" ry="1.75"/><ellipse cx="16.87" cy="50" rx="1.32" ry="1.75"/><ellipse cx="13.21" cy="43.11" rx="1.32" ry="1.75"/><ellipse cx="16.87" cy="40.41" rx="1.32" ry="1.75"/><ellipse cx="13.21" cy="34.66" rx="1.32" ry="1.75"/><ellipse cx="16.87" cy="28.97" rx="1.32" ry="1.75"/><ellipse cx="13.65" cy="24.79" rx="1.32" ry="1.75"/><ellipse cx="16.87" cy="20.52" rx="1.32" ry="1.75"/><ellipse cx="32.94" cy="61.76" rx="1.32" ry="1.75"/><ellipse cx="32.74" cy="28.16" rx="1.32" ry="1.75"/><path d="M10.41 78.81a.54.54 0 0 1-.25-.06.52.52 0 0 1-.25-.44v-57a.51.51 0 0 1 .23-.43L34.82 5.59a.49.49 0 0 1 .51 0 .48.48 0 0 1 .25.43v57.11a.52.52 0 0 1-.23.43L10.67 78.74a.48.48 0 0 1-.26.07zm.5-57.25v55.86l23.67-14.57V6.91zm31.35 84.37c-2.76 0-4.85-4.56-6.87-9-1.29-2.79-2.74-6-3.76-6.1s-2.4 1.28-3.73 2.8c-1.64 1.88-3.57 3.66-6.11 4-3.66.51-7.23-1.82-10.71-7.58a3.66 3.66 0 0 0-3.42-1.62c-2.64.07-5.12 1.13-6.3 3.33-.13.24-.84 1-1.09.85a.49.49 0 0 1-.2-.61 9.44 9.44 0 0 1 7.57-4.51 4.63 4.63 0 0 1 4.3 2.1c3.26 5.39 6.61 7.45 9.85 7 2.16-.29 3.83-1.83 5.36-3.57s2.93-3.36 4.62-3.13c1.49.21 2.69 2.67 4.53 6.67 1.75 3.83 3.93 8.59 6.1 8.38s2.52-2.83 3-5.39.93-4.87 2.87-5a.5.5 0 1 1 .08 1c-1.18.1-1.56 2.11-2 4.23-.49 2.73-1.65 6.15-4.09 6.15zm-7.07 19.78h-.27c-3.76-.14-5.06-4.66-6.32-9-1.18-4.08-2.29-7.93-5.1-8.18-3-.26-4 3-5.38 6.41-1.26 3.26-2.76 6.66-5.77 6.79s-4-3.24-5.1-6.81c-1.25-4.14-2.61-8.4-6.72-8.19a.5.5 0 0 1-.05-1c4.87-.23 6.53 4.5 7.87 8.77 1 3.33 1.79 6.3 4 6.2 2.35-.1 3.49-3 4.69-6.13 1.41-3.63 2.86-7.38 6.59-7.06 3.5.31 4.75 4.67 6 8.89s2.36 8.19 5.39 8.3c3.32.12 3.89-2.39 4.49-5 .48-2.15 1-4.38 3.24-4.45 2.85-.11 3.63 2.27 4.3 4 .42 1.1.74 1.82 1.13 1.77a.71.71 0 0 1 .71.49.5.5 0 0 1-.43.56c-1.22.16-1.71-1.15-2.19-2.41-.63-1.65-1.33-3.49-3.49-3.45-1.41 0-1.51 1.54-2 3.79-.67 2.6-1.68 5.71-5.59 5.71zm-20.38 15.53c-2.81 0-4.76-1.45-6.83-3s-4.24-3.14-7.53-3.51a.51.51 0 0 1-.44-.56.5.5 0 0 1 .55-.44c3.57.41 5.93 2.16 8 3.71s3.85 2.86 6.39 2.8c2.35-.05 3.19-2.68 4.21-5.16 1.1-2.67 2.42-5.69 5.79-5.56 3.64.13 4.37 2.54 4.88 4.12.41 1.28.69 1.87 1.73 1.86a10 10 0 0 0 4.44-1.59 11.37 11.37 0 0 1 4.47-1.66 4.78 4.78 0 0 1 3.66 1.2 6.9 6.9 0 0 0 4.22 1.55.5.5 0 1 1-.06 1 8 8 0 0 1-4.72-1.75 3.87 3.87 0 0 0-3-1 10.51 10.51 0 0 0-4.08 1.55 10.79 10.79 0 0 1-4.91 1.7c-1.88.09-2.32-1.32-2.71-2.55-.48-1.5-1-3.06-3.93-3.17-2.63-.08-3.66 2.38-4.73 5s-2.21 5.4-5.21 5.46zM1.14 59a2.54 2.54 0 0 1-.78-.13.5.5 0 1 1 .29-.95c1.18.36 1.6-.54 2.34-2.82s1.6-4.9 4.51-4.9a.52.52 0 0 1 .51.5.5.5 0 0 1-.5.5c-2.18 0-2.88 2.14-3.56 4.21C3.39 57.1 2.77 59 1.14 59zM.51 76.29a.5.5 0 0 1-.06-1 4.48 4.48 0 0 0 4-2.63 3.67 3.67 0 0 1 3.05-2.27.5.5 0 0 1 .1 1c-1.31.12-1.72.82-2.29 1.78a5.43 5.43 0 0 1-4.75 3.11zM2.79 31a5 5 0 0 1-2.12-.64.5.5 0 0 1 .43-.9c1.82.89 2.05.58 2.55-.09S5 27.59 7.53 27.66a.5.5 0 0 1 0 1c-2-.07-2.55.63-3 1.3A2 2 0 0 1 2.79 31z"/><path stroke-miterlimit="10" stroke-width=".5" fill="none" stroke="#000" d="M72.21 9.33L32.34 32.91"/></svg>