<svg xmlns="http://www.w3.org/2000/svg" viewBox="0 0 111.6 150.77"><defs><style>.cls-1,.cls-2{fill:none;stroke:#000;}.cls-1{stroke-linecap:round;stroke-linejoin:round;}.cls-2{stroke-miterlimit:10;stroke-width:0.5px;}</style></defs><title>アセット 6</title><g id="レイヤー_2" data-name="レイヤー 2"><g id="情報"><path d="M24.42,150.77C11,150.77,0,145.07,0,138.05V14.43c0-7,11-12.72,24.41-12.72A42,42,0,0,1,38,3.83a1.22,1.22,0,0,1,.5.46V61C44.91,63.35,48.82,67.25,49,71.48l.44,66.66C48.82,145.07,37.87,150.77,24.42,150.77Zm0-148.06C11.51,2.71,1,8,1,14.43V138.05c0,6.46,10.5,11.72,23.41,11.72s23.4-5.26,23.4-11.72V71.46h0c0-3.83-3.79-7.44-10.15-9.65a.51.51,0,0,1-.34-.47V4.67A41.17,41.17,0,0,0,24.42,2.71Z"/><path d="M62.93,1.1V6.66h-1V6.25H57.23v-1h4.65V2.05H57.29V1.1Z"/><path d="M68.48,1.27c0,.09-.08.16-.21.18,0,2.29-.25,4.15-1.35,5.63A8.34,8.34,0,0,0,66,6.56c1.06-1.24,1.2-3.32,1.2-5.37Zm2.06,4.16a4.64,4.64,0,0,0,2.08-2.91,5.65,5.65,0,0,0,.91.55,6,6,0,0,1-3.21,3.66.59.59,0,0,1-.18.2l-.76-.88.13-.17V.2l1.25.06a.24.24,0,0,1-.22.2Z"/><path d="M82.61,3.47H80.1l.16,0a.2.2,0,0,1-.18.1,4.27,4.27,0,0,1-2.41,3.45,8.85,8.85,0,0,0-.77-.68A3.35,3.35,0,0,0,79,3.47H76.15V2.54h6.46ZM81.8,1.26H76.89V.32H81.8Z"/><path d="M87,2.15a8.71,8.71,0,0,1,.57,1.7l-.77.21a10.08,10.08,0,0,0-.55-1.69Zm4.66.18a.19.19,0,0,1-.2.11,6.19,6.19,0,0,1-3.72,4.48,3.49,3.49,0,0,0-.55-.63A5.35,5.35,0,0,0,90.63,2ZM88.9,1.82a10.53,10.53,0,0,1,.39,1.75l-.82.17A9.72,9.72,0,0,0,88.08,2Z"/><path d="M101.6,1.69a.45.45,0,0,1-.18.15,8.34,8.34,0,0,1-4.31,5.28,3.62,3.62,0,0,0-.75-.77,6.77,6.77,0,0,0,3.77-4.14H97.78a8.39,8.39,0,0,1-1.71,1.84,5,5,0,0,0-.82-.66A7.85,7.85,0,0,0,97.76,0L99,.3a.25.25,0,0,1-.26.14c-.13.29-.29.57-.43.83h2.28l.15-.07Z"/><path d="M110.57.94a.24.24,0,0,1-.15.13,12.67,12.67,0,0,1-1.49,2.65,32.4,32.4,0,0,1,2.67,2.46l-.89.78a25.67,25.67,0,0,0-2.44-2.45A13.18,13.18,0,0,1,105.44,7a4.88,4.88,0,0,0-.74-.77A10.37,10.37,0,0,0,109,1.52h-3.6v-1h4.18l.16-.06Z"/><path d="M7.51,23.58a.46.46,0,0,1-.23-.06C2.59,21.12.18,17.89,0,14.43c-.35-7,10.54-12.76,24.41-12.72A42.41,42.41,0,0,1,38,3.84a.5.5,0,0,1,.09.9L7.77,23.5A.5.5,0,0,1,7.51,23.58ZM24.42,2.71C11.51,2.71,1,8,1,14.43c0,3,2.3,5.87,6.48,8.07l29.17-18A41.9,41.9,0,0,0,24.42,2.71Z"/><path d="M24.89,84.38A40.69,40.69,0,0,1,7.28,80.55.5.5,0,0,1,7,80.12a.47.47,0,0,1,.24-.44L37.57,60.91a.5.5,0,0,1,.43,0c6.78,2.35,10.82,6.31,10.82,10.59C48.82,78.48,38.35,84.38,24.89,84.38ZM8.54,80.05a38.3,38.3,0,0,0,15.88,3.14c12.9,0,23.4-5.27,23.4-11.73,0-3.79-3.7-7.36-9.93-9.57Z"/><path d="M32.6,65.67a3,3,0,0,0-1-.16c-1,0-1.76.4-1.76.9,0,.25.2.47.52.63a2.65,2.65,0,0,0,1.24.27c1,0,1.75-.4,1.75-.9C33.37,66.1,33.07,65.83,32.6,65.67Z"/><path d="M38.44,66.93a3,3,0,0,0-1-.16c-1,0-1.75.4-1.75.9,0,.25.19.47.51.63a2.71,2.71,0,0,0,1.24.27c1,0,1.76-.4,1.76-.9C39.21,67.36,38.9,67.09,38.44,66.93Z"/><path d="M11.07,15.82a3,3,0,0,0-1-.16c-1,0-1.75.4-1.75.9,0,.25.19.47.51.63a2.68,2.68,0,0,0,1.24.27c1,0,1.75-.41,1.75-.9C11.84,16.25,11.54,16,11.07,15.82Z"/><path d="M16.29,15.66a3,3,0,0,0-1-.15c-1,0-1.75.4-1.75.89a.78.78,0,0,0,.51.64,2.85,2.85,0,0,0,1.24.26c1,0,1.76-.4,1.76-.9C17.06,16.1,16.75,15.82,16.29,15.66Z"/><path d="M12.88,11.08a3,3,0,0,0-1-.15c-1,0-1.75.4-1.75.89a.8.8,0,0,0,.51.64,2.85,2.85,0,0,0,1.24.26c1,0,1.76-.4,1.76-.9C13.65,11.51,13.34,11.24,12.88,11.08Z"/><path d="M18.59,9.48a3,3,0,0,0-1-.15c-1,0-1.75.4-1.75.89a.8.8,0,0,0,.51.64,2.85,2.85,0,0,0,1.24.26c1,0,1.76-.4,1.76-.9C19.36,9.91,19.05,9.64,18.59,9.48Z"/><path d="M12.83,7.36a3,3,0,0,0-1-.16c-1,0-1.75.4-1.75.9,0,.25.2.47.51.63A2.84,2.84,0,0,0,11.84,9c1,0,1.76-.41,1.76-.9C13.6,7.79,13.29,7.52,12.83,7.36Z"/><path d="M22.78,7.36a3,3,0,0,0-1-.16c-1,0-1.75.4-1.75.9,0,.25.2.47.51.63A2.84,2.84,0,0,0,21.79,9c1,0,1.76-.41,1.76-.9C23.55,7.79,23.24,7.52,22.78,7.36Z"/><path d="M19.18,5.48a3,3,0,0,0-1-.15c-1,0-1.75.4-1.75.89a.78.78,0,0,0,.51.64,2.85,2.85,0,0,0,1.24.26c1,0,1.76-.4,1.76-.9C20,5.91,19.64,5.64,19.18,5.48Z"/><path d="M26.81,5.48a3,3,0,0,0-1-.15c-1,0-1.75.4-1.75.89a.8.8,0,0,0,.51.64,2.85,2.85,0,0,0,1.24.26c1,0,1.76-.4,1.76-.9C27.58,5.91,27.27,5.64,26.81,5.48Z"/><path d="M27.8,8.1a3,3,0,0,0-1-.16c-1,0-1.75.41-1.75.9,0,.25.2.47.51.63a2.71,2.71,0,0,0,1.24.27c1,0,1.76-.4,1.76-.9C28.57,8.53,28.26,8.26,27.8,8.1Z"/><path d="M32.18,6.7a3,3,0,0,0-1-.16c-1,0-1.75.4-1.75.9,0,.25.2.47.51.63a2.71,2.71,0,0,0,1.24.27c1,0,1.76-.41,1.76-.9C33,7.13,32.64,6.86,32.18,6.7Z"/><path d="M32.57,69.75a3,3,0,0,0-1-.16c-1,0-1.76.4-1.76.9,0,.25.2.47.52.63a2.65,2.65,0,0,0,1.24.27c1,0,1.75-.41,1.75-.9C33.34,70.18,33,69.91,32.57,69.75Z"/><path d="M39.78,70.88a3,3,0,0,0-1-.16c-1,0-1.75.4-1.75.9,0,.25.19.47.51.63a2.71,2.71,0,0,0,1.24.27c1,0,1.76-.4,1.76-.9C40.55,71.31,40.24,71,39.78,70.88Z"/><path d="M34.44,74.93a3,3,0,0,0-1-.16c-1,0-1.75.4-1.75.9,0,.25.2.47.51.63a2.71,2.71,0,0,0,1.24.27c1,0,1.76-.41,1.76-.9C35.21,75.36,34.9,75.09,34.44,74.93Z"/><path d="M30.63,73.38a3,3,0,0,0-1-.16c-1,0-1.75.41-1.75.9,0,.25.2.47.51.64a2.85,2.85,0,0,0,1.24.26c1,0,1.76-.4,1.76-.9C31.4,73.81,31.09,73.54,30.63,73.38Z"/><path d="M29.79,77a3,3,0,0,0-1-.15c-1,0-1.75.4-1.75.89,0,.25.2.47.51.64a2.85,2.85,0,0,0,1.24.26c1,0,1.76-.4,1.76-.9C30.56,77.41,30.25,77.14,29.79,77Z"/><path d="M25.05,75.05a3,3,0,0,0-1-.16c-1,0-1.75.4-1.75.9,0,.25.19.47.51.63a2.85,2.85,0,0,0,1.24.26c1,0,1.75-.4,1.75-.89C25.82,75.48,25.52,75.21,25.05,75.05Z"/><path d="M18.25,75.52a3,3,0,0,0-1-.15c-1,0-1.76.4-1.76.89a.79.79,0,0,0,.52.64,2.78,2.78,0,0,0,1.24.26c1,0,1.75-.4,1.75-.9C19,76,18.72,75.68,18.25,75.52Z"/><path d="M22.78,79.46a3.27,3.27,0,0,0-1-.15c-1,0-1.75.4-1.75.9a.8.8,0,0,0,.51.63,2.85,2.85,0,0,0,1.24.26c1,0,1.76-.4,1.76-.89C23.55,79.9,23.24,79.63,22.78,79.46Z"/><path d="M7.51,80.6a.5.5,0,0,1-.24-.06A.5.5,0,0,1,7,80.1v-57a.52.52,0,0,1,.24-.43l2.89-1.79a.52.52,0,0,1,.51,0,.51.51,0,0,1,.26.44v57a.51.51,0,0,1-.24.43l-2.9,1.79A.48.48,0,0,1,7.51,80.6Zm.63-57.26c.15,1.37.09,55.91.09,55.91L9.91,78V22.18Z"/><polygon class="cls-1" points="34.93 63.13 37.83 61.34 37.83 4.31 34.93 6.11 34.93 63.13"/><path d="M10.41,21.79a.46.46,0,0,1-.23-.06c-3.85-2-6-4.62-6-7.48,0-5.76,9-10.45,20-10.45A34.19,34.19,0,0,1,35.25,5.54a.5.5,0,0,1,.33.42.51.51,0,0,1-.23.48L10.67,21.71A.5.5,0,0,1,10.41,21.79Zm13.76-17c-10.46,0-19,4.24-19,9.45,0,2.4,1.83,4.69,5.18,6.46L33.9,6.16A34,34,0,0,0,24.17,4.8Z"/><path d="M24.23,81.74a31.6,31.6,0,0,1-14-3,.52.52,0,0,1-.27-.43.48.48,0,0,1,.23-.44L34.93,62.55a.48.48,0,0,1,.42,0c5.58,1.94,8.92,5.21,8.92,8.75C44.27,77,35.28,81.74,24.23,81.74ZM11.45,78.26a45.06,45.06,0,0,0,12.78,2.48c10.49.44,19-4.26,19-9.49,0-3-3-5.93-8-7.73Z"/><path d="M26.35,11.42a9.76,9.76,0,0,0-3.14-.49c-3.1,0-5.61,1.28-5.61,2.86,0,.79.63,1.51,1.64,2h0l7.11-4.4Z"/><path d="M19.24,72.84a9.77,9.77,0,0,0,3.15.5c3.09,0,5.6-1.29,5.6-2.87a2.5,2.5,0,0,0-1.64-2h0l-7.11,4.39Z"/><polygon points="26.35 68.44 19.25 72.84 19.25 15.82 26.35 11.42 26.35 68.44"/><ellipse cx="28.63" cy="14.7" rx="1.32" ry="1.75"/><ellipse cx="32.62" cy="15.55" rx="1.32" ry="1.75"/><ellipse cx="31.96" cy="8.51" rx="1.32" ry="1.75"/><ellipse cx="30.44" cy="21.29" rx="1.32" ry="1.75"/><ellipse cx="29.12" cy="33.72" rx="1.32" ry="1.75"/><ellipse cx="32.74" cy="39.61" rx="1.32" ry="1.75"/><ellipse cx="29.12" cy="46.34" rx="1.32" ry="1.75"/><ellipse cx="32.34" cy="51.75" rx="1.32" ry="1.75"/><ellipse cx="28.78" cy="57.13" rx="1.32" ry="1.75"/><ellipse cx="16.29" cy="62.62" rx="1.32" ry="1.75"/><ellipse cx="13.65" cy="69.14" rx="1.32" ry="1.75"/><ellipse cx="17.11" cy="69.85" rx="1.32" ry="1.75"/><ellipse cx="13.65" cy="56.65" rx="1.32" ry="1.75"/><ellipse cx="16.87" cy="50" rx="1.32" ry="1.75"/><ellipse cx="13.21" cy="43.11" rx="1.32" ry="1.75"/><ellipse cx="16.87" cy="40.41" rx="1.32" ry="1.75"/><ellipse cx="13.21" cy="34.66" rx="1.32" ry="1.75"/><ellipse cx="16.87" cy="28.97" rx="1.32" ry="1.75"/><ellipse cx="13.65" cy="24.79" rx="1.32" ry="1.75"/><ellipse cx="16.87" cy="20.52" rx="1.32" ry="1.75"/><ellipse cx="32.94" cy="61.76" rx="1.32" ry="1.75"/><ellipse cx="32.74" cy="28.16" rx="1.32" ry="1.75"/><path d="M10.41,78.81a.54.54,0,0,1-.25-.06.52.52,0,0,1-.25-.44v-57a.51.51,0,0,1,.23-.43L34.82,5.59a.49.49,0,0,1,.51,0,.48.48,0,0,1,.25.43V63.13a.52.52,0,0,1-.23.43L10.67,78.74A.48.48,0,0,1,10.41,78.81Zm.5-57.25V77.42L34.58,62.85V6.91Z"/><path d="M42.26,105.93c-2.76,0-4.85-4.56-6.87-9-1.29-2.79-2.74-6-3.76-6.1s-2.4,1.28-3.73,2.8c-1.64,1.88-3.57,3.66-6.11,4-3.66.51-7.23-1.82-10.71-7.58a3.66,3.66,0,0,0-3.42-1.62c-2.64.07-5.12,1.13-6.3,3.33-.13.24-.84,1-1.09.85A.49.49,0,0,1,.07,92a9.44,9.44,0,0,1,7.57-4.51,4.63,4.63,0,0,1,4.3,2.1c3.26,5.39,6.61,7.45,9.85,7,2.16-.29,3.83-1.83,5.36-3.57s2.93-3.36,4.62-3.13c1.49.21,2.69,2.67,4.53,6.67,1.75,3.83,3.93,8.59,6.1,8.38s2.52-2.83,3-5.39.93-4.87,2.87-5a.5.5,0,1,1,.08,1c-1.18.1-1.56,2.11-2,4.23C45.86,102.51,44.7,105.93,42.26,105.93Z"/><path d="M35.19,125.71h-.27c-3.76-.14-5.06-4.66-6.32-9-1.18-4.08-2.29-7.93-5.1-8.18-3-.26-4,3-5.38,6.41-1.26,3.26-2.76,6.66-5.77,6.79s-4-3.24-5.1-6.81C6,110.78,4.64,106.52.53,106.73a.5.5,0,0,1-.05-1c4.87-.23,6.53,4.5,7.87,8.77,1,3.33,1.79,6.3,4,6.2,2.35-.1,3.49-3,4.69-6.13,1.41-3.63,2.86-7.38,6.59-7.06,3.5.31,4.75,4.67,6,8.89s2.36,8.19,5.39,8.3c3.32.12,3.89-2.39,4.49-5,.48-2.15,1-4.38,3.24-4.45,2.85-.11,3.63,2.27,4.3,4,.42,1.1.74,1.82,1.13,1.77a.71.71,0,0,1,.71.49.5.5,0,0,1-.43.56c-1.22.16-1.71-1.15-2.19-2.41-.63-1.65-1.33-3.49-3.49-3.45-1.41,0-1.51,1.54-2,3.79C40.11,122.6,39.1,125.71,35.19,125.71Z"/><path d="M14.81,141.24c-2.81,0-4.76-1.45-6.83-3S3.74,135.1.45,134.73a.51.51,0,0,1-.44-.56.5.5,0,0,1,.55-.44c3.57.41,5.93,2.16,8,3.71s3.85,2.86,6.39,2.8c2.35-.05,3.19-2.68,4.21-5.16,1.1-2.67,2.42-5.69,5.79-5.56,3.64.13,4.37,2.54,4.88,4.12.41,1.28.69,1.87,1.73,1.86A10,10,0,0,0,36,133.91a11.37,11.37,0,0,1,4.47-1.66,4.78,4.78,0,0,1,3.66,1.2A6.9,6.9,0,0,0,48.35,135a.5.5,0,1,1-.06,1,8,8,0,0,1-4.72-1.75,3.87,3.87,0,0,0-3-1,10.51,10.51,0,0,0-4.08,1.55,10.79,10.79,0,0,1-4.91,1.7c-1.88.09-2.32-1.32-2.71-2.55-.48-1.5-1-3.06-3.93-3.17-2.63-.08-3.66,2.38-4.73,5S18,141.18,15,141.24Z"/><path d="M1.14,59a2.54,2.54,0,0,1-.78-.13.5.5,0,1,1,.29-.95c1.18.36,1.6-.54,2.34-2.82s1.6-4.9,4.51-4.9a.52.52,0,0,1,.51.5.5.5,0,0,1-.5.5h0c-2.18,0-2.88,2.14-3.56,4.21C3.39,57.1,2.77,59,1.14,59Z"/><path d="M.51,76.29a.5.5,0,0,1-.06-1,4.48,4.48,0,0,0,4-2.63,3.67,3.67,0,0,1,3.05-2.27.5.5,0,0,1,.1,1c-1.31.12-1.72.82-2.29,1.78A5.43,5.43,0,0,1,.56,76.28Z"/><path d="M2.79,31a5,5,0,0,1-2.12-.64.5.5,0,0,1,.43-.9c1.82.89,2.05.58,2.55-.09S5,27.59,7.53,27.66a.5.5,0,0,1,0,1c-2-.07-2.55.63-3,1.3A2,2,0,0,1,2.79,31Z"/><line class="cls-2" x1="72.21" y1="9.33" x2="32.34" y2="32.91"/></g></g></svg>