<svg xmlns="http://www.w3.org/2000/svg" viewBox="0 0 58.23 69.66"><path d="M50 2.88C51 .9 52 0 54.27 0c2.43 0 4 1.53 4 4.14 0 4.23-5.76 8.28-13.41 8.28H33.93c-1.89 0-3 .36-4 2.43L25 25.38A18.79 18.79 0 0 1 34 23c10.55 0 16.4 5.8 16.4 16.15 0 14.76-12.69 30.51-30.78 30.51C4.68 69.66 0 59.76 0 56.88a4 4 0 0 1 3.78-4c2.61 0 3.78 1.17 5.31 3.69 1.53 2.7 4.41 6.75 10.53 6.75 12.24 0 21.24-12.6 21.24-24.48 0-6.66-2.88-9.81-7.29-9.81a18.82 18.82 0 0 0-8.82 2.52C22.23 32.85 21 34 18.72 34c-1.89 0-4-1.17-4-3.42a6 6 0 0 1 .63-2.43l7.2-16.65c1.8-4 4.05-5.67 7.83-5.67h11.74c4.59.02 6.75-.97 7.88-2.95z"/></svg>