<svg xmlns="http://www.w3.org/2000/svg" viewBox="0 0 216.2 268.46"><defs><style>.cls-1,.cls-2{fill:none;stroke:#000;stroke-linecap:round;stroke-linejoin:round}.cls-2{stroke-width:.4px}</style></defs><path class="cls-1" d="M5.57 195.51c2.13-4.74 7.58-9.59 20.82.81m-17.63 9.6c-.35-8.57 6.24-13.92 20.11-7.86"/><path class="cls-1" d="M12.58 212.86c-1.55-7.08 2.48-15.23 11.68-14.52s18.27 3.82 23.94 8.28"/><path class="cls-1" d="M16.48 221.49c-2.48-2.19 2.62-9.84 7.08-12.17s9.74-5 19.54-3.12c3.61.71 7.76 1 10.26 1.8 3.33 1 7.08 7.83 9.63 9.74m-49.84-3.33c1.63-5.87 3.89-13 18.41-12.81M22.35 218c7.79 2.41 19.33-.28 28-2.48M33 208.47c5.17 4.84 15.51 5.94 20.39 7m-8.11 2.27c7.52 2.62 17.64 3 22 5.59m-32.18 2.13c2 8 6.72 12.77 12.25 12.34s11.11-15.28 16.78-14.47a51.57 51.57 0 0 0 10.05.85m-21.67 13.31c6.66 5.53 12 6.59 17.07 4.89s9.7-13.95 11.82-20m-15.01 3.93c7.08-1.14 11-3.76 15.93-5.17m9.56 5.73c-2 7.44-4.53 15.93-22.3 15.51M2.53 189.14c4.11-3.9 8.14-4.82 15.58.42m26.25-26.32c4.38-1.87 14.23-6.33 24.15 3.92s16.58 18.08 17 32.4m-61.65-23.68c-3.64 2.27 4.42 19.56 7 23.38m-12.75-23.38c-3.34 1.66-1.94 10.23 2.11 16.35m-19.72-3c1.88 1.25 6.37.91 11 0"/><path class="cls-1" d="M5 185.92c-1.87-5.22-.89-16.8 7.3-19.62 6.35-2.19 13-1.16 20.59-.55m-17.75 11.82c-2.82-5.32-4.78-8.62 0-10.81m67.97 42.98a37.36 37.36 0 0 0-8.75-6.74 4.68 4.68 0 0 0-4.21.56c-1.52 1.15-4 3.14-3.64 4.73s2.84 6.64 5.43 7.15a2.59 2.59 0 0 0 3-2.61"/><path class="cls-2" d="M68.8 209.9a5.24 5.24 0 0 0 3.47.59"/><path class="cls-1" d="M71.3 208.47a17.78 17.78 0 0 0 4.46 4.78c1.76 1.12 4.45 6 5.43 6.84 4.84 4 12.12 7.93 18 9.24s8.65 2 11.12.69 14.24 5.78 19 6.45m-42.06-33.89c-2 .13-3.85 2-5.69 4.6"/><path class="cls-1" d="M83.47 204.08c1-2.46 3.09-7.25 5.4-7.21s4.88 1.21 7.35 2"/><path class="cls-1" d="M91.87 197.21c1.85-1 4-2.5 6.75-.16a54.83 54.83 0 0 0 7.44 5.72c2.78 1.72 5.41 4.76 9.53 5.7s9.07 2.33 13.69 2.15m-23.99 11.72c.45 3 .74 6 5 7.68m-14.99-1.85c-1.74 1.52-2.7 2.7-4.33 1.85m-12.48-13.64a19.63 19.63 0 0 0-.29 6m-52.92.92c0-4.7 2.78-6 6.28-3.41S37 227.08 36.61 233s-1.47 7.82-3.76 8.39-5.5-2.57-4.85-4.39 1.07-2.59 2.85-2.65"/><path class="cls-1" d="M28.27 220.81c2.36.58 5.81 2.65 6 5.5s.34 7.21-.87 8.83m-4.84-8.27c1.61 1.36 1.78 3.66 1.26 5.5m-25.08-35.5a120.91 120.91 0 0 0-1.67 13.76m.83 4.88c1 1.5 3.56 3.84 3.71 4.6s-.73 1.44-.45 2c.47 1-.71 3.26-.82 6.3-.28 7.38 1.66 9 3.6 12.2s7.91 11.18 9.18 13.31c.75 1.25 0 3.94 1.75 5.62s7.22 4.32 10.94 3.07 4.24 2.07 4.84 5.34"/><path class="cls-2" d="M.2 193.9a11.18 11.18 0 0 1 7-2.29"/><path class="cls-1" d="M6.77 201.43c-.17 4.37-.46 6.07 2 8.47s3.23 4.1 3.49 5.57m-9.97-3.95c2.7.14 2.06 2.9 2.09 3.39.07 1.09-2-2-2.09-3.39m3.47 6.23c-.63.54-.94.74-1.61.68M39.71 165c-4.65 1.27-10.72.67-13.32 3.15a13.86 13.86 0 0 0-4 6.46m-7.69 4.78c-2.4 2-3.26 3.55-2.08 7.16"/><path class="cls-2" d="M4.43 193.9C.2 195.84 0 199.39.5 202.58"/><path class="cls-1" d="M59.27 246.47c8.67.33 9.5-.12 13.92-3.35m-1.42 1.72c-.17 5.21 2.43 16.13 6.3 18.21s8.7 4.24 10.12 4.91M37.62 228c4.22 6.36 10.17 7.22 14.89 3.68"/><path class="cls-2" d="M37.62 224.64c6.15 1.25 18-2.7 23.23-2.3m-20.16 4.53c5.58 2.27 14-.31 19.5-3.27m-18.86 5.49c5.19 2.3 11 1.81 16.27-2.78m1.67 2.93c9.08.73 15.26.48 18.42-3.57m-17.5 9.47c8.25.41 14.5-2.76 19-10.26m-24 11.01c5.66 3.91 16.16 2.28 22.5-6.65m12.15-3.06c-4.4 7.54-9.08 13.49-15 15m-1.07-1.54a21.71 21.71 0 0 0 9.34-17.33M42 221.49c6.18 1.84 7.07 1.4 14.24.48m12.56-7.56c-.53 3.39-.4 7.11 1.22 8.89m-.02-8.5c0 3.67-1.1 5.25 1.74 7.67m13.75-22.91a11.56 11.56 0 0 0-6 6.36m4.36-4.33a10.09 10.09 0 0 0-3.12 3.63m-8.97 10.86c0 2.49.85 6 2.42 7.52m2.18-9.48c-.47 2.67-1.22 7.16-.33 9.18m-49.13-7.83a53.49 53.49 0 0 0 15.51-.33m-8.76-1.02c4.72 0 8.2.08 10.71-.46m11.9 2.42c5.81 1.91 7.11 3.59 10.22 4.73m-10.71-21.7c1.09 6.14 3.83 14.46 6.5 17m-3-11.23c2.38 3.86 4.51 10.65 5.12 13.22m-51.84-38c-3.15-3.61-3.4-12.55-.29-13.8m-1.35 12.79C8.86 175.6 7 172 9.13 168.82M6.66 198.3c1.85-3.73 4.58-7.88 9.58-6.7m-8.05 9.83c1.49-4.54 1.84-8.41 5.5-9.83M10.06 208c0-3.78.63-10.08 6.74-12.13m9.59-27.75c-4 6.46 4 26.57 7.26 31m-4.17-10.79c3.41 6.24 5.4 10 6.36 12.35m-22.15 16.51c.51-2.29 6.73-12.35 16.39-14.3m-14.94 16.95c-.6-2.68 2.82-10.48 13.13-15.28m6.38 2.26a33.18 33.18 0 0 0 15.79 6.7m-14.1-7.94c4.7 3.44 11.76 6.53 15.8 7.28a25.8 25.8 0 0 1 9.23 3.52m-41.09 1.72c.45 7.48 6.7 30.33 14.37 35.12m-12.98-31.95c3.76 4.67 15.66 14.68 22.69 14.39m9.71 6.08a14.88 14.88 0 0 0 14.73 2.19m-21.6-80.69c24.56 6.53 30.86 38.89 30.87 41.64M51 162.49c28.19 11.51 28.52 34.38 29 42.39m-12.76 11.5c-.59-3.5-6.39-28.81-15.36-38.81-3-3.4-5.61-4.79-8.1-12.6m7.22 3.2c9.81 14.8 16.2 25.73 16.49 37.75M46.32 187.5a110.37 110.37 0 0 1 9.45 22.05m-8.57-19.99c.84 4.38 4.46 15.74 5.31 18.21m-21.65-31.89c1.84 5 7.94 23.32 11.16 27m6.83 2.7c-3.65-2.2-10.72-19.92-13.75-25.48-1.37-2.5-4.55-9.69-2.25-14.35m54.08 58.35c-1.65 4.48-8.88 14.93-12.75 17m-2.42-12.93c3.62-2.19 5-4.37 7.76-5.7m-44.52.3a44.45 44.45 0 0 0 8.78-5.77m-8.37 7.1a48.57 48.57 0 0 0 9.87-5.65m8.79-2.37a85.84 85.84 0 0 0 8.93 5.19m-6.74-.93c-3.21-2.1-5-3-6.8-4.46m-37.59-14.29a11.44 11.44 0 0 1 10.48-5.7m-1.03-14.07a26.09 26.09 0 0 0 1 11.41m1.03-4.9c-.13 2.24-.13 2.8-.32 5.57m-3.17-19.68c-2.35-2.87-4.38-6.74-.32-8.52m1.54 7.93c-1.54-3.49-3.76-6-.27-7.93"/><path class="cls-2" d="M37.62 166.76c-.46 3.34 9.7 15.45 12.23 20.81s7.3 17 7.75 23.06"/><path class="cls-1" d="M32.66 171.55c4.63 5.06 14.74 21.21 17.19 33.33"/><path class="cls-2" d="M82.5 219.36c.7-1.86 2.55-4.94 4.43-5.63m6.21-14.47c3.17 2 9.5 6.05 13.32 7.25"/><path class="cls-1" d="M91.51 196.67a7.7 7.7 0 0 1-4.26-1.67c-2.33-1.52-2.77-5.25-2.43-5.64s2 .18 3.09 1a19.27 19.27 0 0 0 5.25 2.06c1.83.19 9-2.3 11-3.57s4-.51 5.45 0 8.28 3.14 10.46 4.21 4.15 6.84 7.87 8.54m-23.31-7.3a4.94 4.94 0 0 1-4.44 4.09m1.32.29c1.55 1.36 2.56 1.31 3.41 1.08a6.6 6.6 0 0 0 5.55 3.92c2.81.11 3.66-.14 6.31-1.44"/><path class="cls-2" d="M103.77 198.68a7.13 7.13 0 0 0 2.15-2.93"/><path class="cls-1" d="M116.09 172.71s-1-3.4-1.78-5.17-.71-3.46-.66-5.85-.51-12.51-.51-15.81a34.65 34.65 0 0 0-1.93-11.88c-1.47-3.66-3.46-8-3.41-10.63s0-7.32 1.12-9.5a49.24 49.24 0 0 0 2.14-5.65 11.11 11.11 0 0 1-1.34-3.94c0-1.53 1.08-3.8.88-6a53.51 53.51 0 0 1-.44-8.91c.24-3.29.34-5.66 3.42-6.61s6.1-2 8.07-2.48c1-6.23 2.84-11.55 5.62-15s7.43-7.91 11-9.62c.85-.41 1.23-2.55 1.43-4.37s.13-3.54.3-4c1.24-1 3-1.68 4.14-1.32a10 10 0 0 1 1.91.79s3.3-1 5.69-1.6 8.26-1.35 11.21.45 4.09 5 7.68 6.56 9.1 4.83 11.89 6.08 5.72 6.43 6.84 9.32.61 5.06 2.34 8.47 3.15 10 4.22 11.69.71 8.08.71 9.3a19.58 19.58 0 0 1-.51 3.36s.51 2.15 1.32 4.45.51 6.54.31 10.54.68 9.83.81 15.29 1 16.67 1 17.69c0 .57-.49.91-.8 1.55s-1.76 3.16-2.61 4.65a4.12 4.12 0 0 1-3.81 2.1c-1.44-.07-2.42.26-2.36 1.4s.06 5.45.73 7.52 1.63 7.08 1.63 7.08"/><path class="cls-1" d="M129.76 172.71c-1.52 0-6.3-2.94-7.37-8-1.17 4.22-1.88 8-1.88 8m45.71-83.07c-3.2-.69-6.38-5.35-10.55-8.77s-14.54-3.6-19.48-3.33-14.54 2.78-14.54 2.78c-2 .51-5 1.53-8.07 2.48s-3.18 3.32-3.42 6.61a53.51 53.51 0 0 0 .44 8.91c.2 2.2-.88 4.47-.88 6a11.11 11.11 0 0 0 1.34 3.94s2.32 3.34 2.66 5.78.13 5.22 2.64 8.07 4.68 5.67 5.76 6.29c-1.42 3.4-3.45 6.92-3.93 9.64s-3.34 8-3.27 8.86 1.1 1.57 2 1.91 11.79 2.83 19.59 2.83c8.06 0 20.2-.73 20.2-.73"/><path class="cls-2" d="M166 75.58c-.56-4 .33-12.67-1.07-15.3-.66-1.25 2.08-1.5 2.8.46"/><path class="cls-1" d="M167.69 64.45c.33 3.22-.73 9.71-1.24 14.38s0 11.08.27 15.69 1.86 8.58 2 12.78 2 8.3 2 11.32-.34 10.49.88 13.49 4.22 6.09 4.73 8.84a104.21 104.21 0 0 0 3.56 12.5c1.42 4 5 14.44 5.69 16.53"/><path class="cls-2" d="M186.58 149.56c-2.31-3.7-8.41-18.17-9.19-20.95s-3.25-6.2-4.3-5.52-.27 5.66 1.69 7.9 5.66 9.79 7 12.23m-4.05-1.08a105.69 105.69 0 0 1 7.32 11.38 5 5 0 0 0 4.61 2.85m-10.33-9.76c.33 2.51 3.25 8.74 6.54 10.06M169.7 54.4a38.56 38.56 0 0 1 10.37 14c2.58 5.83 13.62 33.75 15.18 37m-3.39-1.73c1.7 3.87 3.33 7.53 3.8 11.59m-2.91 10.03c-.21 6-1.09 12.41-.89 15.46s3.12 8 3 10.89m-40.75-89.79c-3.52 2.82-4.54 12.2-3.89 16.41M136.6 60.33c-2.26 4.12-4.65 13.84-5 17.21m37.22 80.76c1.63-9.07 2.23-26 2.06-29.9m-59.26-7.02c-.36-2.44-.72-4.47-1.43-4.17s-2 2.85-1.32 6.41m2.75 2.13a140 140 0 0 1 3.3 21.15c.1 3.66 3 8.23 2.8 10.42a63.85 63.85 0 0 0 .76 10.83"/><path class="cls-1" d="M168.16 51.84a16.69 16.69 0 0 0-8.63 2c-2.93 1.4-12 4.2-15.35 4s-4.36-.35-5.79-1.56"/><path class="cls-2" d="M195.25 87.64c-3.53-2-10.15-4-18.41 2"/><path class="cls-1" d="M154.93 81.92c-2.44 1.15-1.83 4.13-1.77 6.71s.68 11.72 1 15.58 1.49 8.48 1.63 11.05 2.37 9.49 2.37 11.25m-2.89 2.49c-5.83 1-16.49 2.51-21.19 2.37s-9.29-.92-12-3"/><path class="cls-1" d="M168.82 113.64c-4.85 7.13-13.24 15.87-20.67 22.29-.75.75.11 1.56.74 2.54 3.53 5.46 16.87 28.25 20.53 34.24"/><path class="cls-2" d="M168.5 115.74c-1.88 2.59-16.78 20.48-19.27 20.89m16.12-40.41c-3.36-.77-6.41-1.78-7.48-2m-.76 2.25c-.1-2.85-.05-8.44-1.32-8s-1.47.86-1.27 4.73.49 11.58 1.26 15.44 2.93 11.54 3.09 15m8.82-8.64a30.56 30.56 0 0 1-10.17.29m8.27 2.45a35.48 35.48 0 0 1-7.92-.06"/><path class="cls-1" d="M198.22 150.94c3.91 2.16 9.62 5.24 11.07 7s3.62 5.5 4.16 6.15c1.34.15 2.2.51 2.23 1.2s.15 3.73-.77 4.7a3.82 3.82 0 0 0-.72 2.73"/><path class="cls-2" d="M214.82 165.57c-.48-.44-1 .3-2.51 1.49s-4.08 3.67-6 4.45m-1.72-14.14c.66-.87 1.08-1.27.75-1.44s-1.24.07-2.09 1.34-4.1 5.61-6.44 7.27-2.88 2.2-4.67 2.91M190 159c3.47 2.54 15.53 9 18.14 10.2m-42.35-77.78c-3.27-2-8.3-7.07-9.66-8s-2 .07-2 1.8.09 2.3 0 3.73m11.48 3.68a92.49 92.49 0 0 1-11.46-8M166 94.76c-2.59-1.61-9.07-6.47-11.87-7.71"/><path class="cls-1" d="M142.51 14.26c-1.1 2.19-1.48 3.92-1.36 4.56a3 3 0 0 0-.72 2.72 6.92 6.92 0 0 0-.52 3.71c-1.24 1.44-2.76 3.08-2.76 5.19a8.12 8.12 0 0 0 .9 8.53c1.37 1.75 2.37 3 6.27 3 2.56 0 4.28-1.72 5.2-2.55 0 1.93.14 6.32.14 6.32m19.4-21.24c-.24-1.47-1.51-3.15-2.82-2.25s-1.62 2-1.55 4a13.78 13.78 0 0 0 1.55 6.12c.93 1.42.79 2.6 2.06 2.44s1.71-3.23 1-3.77"/><path class="cls-2" d="M167.65 23.25c-.62-.3-1.72.41-1.9 1.7s.75 5 1.83 5.67"/><path class="cls-2" d="M168.14 25.21c-.13-1-.9-1.55-1-.49s-.73 2-.46 2.78.47 2 1.19 2.38"/><path class="cls-1" d="M179.83 17.87c-1 1.08-1.08 3.28-1.93 3.72a5.76 5.76 0 0 0-2.78 3.73c-.4 2-2.54 3.86-3 3.83-1.15-1.56-1.58-4.41-3-5.16"/><path class="cls-2" d="M181.6 17.22c0 1.63-2.43 3.67-4.63 5m3.03-5.3c-2.54 2.06-4.54 4.57-8.17 4.71m7.26-5.83c-3.15 1.9-3.85 2.53-9.79 3.94-7 1.65-23.8 1.89-23.8 1.89m3.83-6.88c-2.57.64-5.45 3.22-6.5 4m0-3.17c.09 1.25-.76 4.06 0 5.4m5.5-7.73c-2.15 1.3-4.21 2.27-5.66 4.2M164.13 24a35.9 35.9 0 0 1-11.69 2.57m.11 4.92c-2.76-2.21-6.47-3.55-9.56-3.1m10.68 7.7c-1.84-3-7.93-6.44-10-6.56m5.85 9.92c-2.53-1.47-6-5.92-7-7.67m4.62 9.49c-3.16-1.83-7.45-5.55-7.87-8.33"/><path class="cls-1" d="M154.42 31.94c-.28-3.35-1.4-7.09-6.37-6.67m2.46-.52c-2.54-1.21-4.13-2.63-6.25-1.24"/><path class="cls-2" d="M155.93 33.57c-.13 1.75-.65 3-1.63 3.07-1 1.58-2.14 3.23-4.78 2.81M141 27.18a5.36 5.36 0 0 0-3.86 3.26m22.92-1.29a56.85 56.85 0 0 1-6 .38m4.94 1.73a13.91 13.91 0 0 1-4.61 0"/><path class="cls-1" d="M182.06 12.81c1.62 2 4.07 8.35-.46 11.34a7.22 7.22 0 0 1-1.77 2.75c1 1 1.54 4.05 1.54 6.3a10.34 10.34 0 0 1-1.7 5.85 19.58 19.58 0 0 0-2.76 5.78c-.26 1.47 0 2.93-1 3.69a6.76 6.76 0 0 1-4 1.32 13.81 13.81 0 0 1-5.58-1.13"/><path class="cls-2" d="M179.09 12.81c1.31 1.24 3.27 4.19 2.9 5.67m-18.06 22.9c1.58 2.2 2.87 6.32 4.23 7.13m5.95-25.74a42.46 42.46 0 0 0-6.54-.63"/><path class="cls-1" d="M175.27 6.69C169.63 0 149.66-4.39 143 10.55m39.29 15.88a2.45 2.45 0 0 1-1.42-.83"/><path class="cls-2" d="M178.09 14c-2.7 1.94-7.21 3.87-9.36 3.86m-22.25-5.23c-1.47 1-3 2.07-3.65 2.51"/><path class="cls-1" d="M162 25.84c-1 1.56-2.65 5.18-3.48 6.59"/><path class="cls-2" d="M159.62 36.09a12.67 12.67 0 0 1-3.33-1.09m.95 3.58a10.07 10.07 0 0 1-2.94-1.94m1.47 3.13a10.4 10.4 0 0 0-2.77-1.42M138 59c1.55 5.33 3.4 13.8 2.83 17.46m23.51 2.41c.2 3.15.64 7.66.25 9.55m9.26-19.92c-3 5.15-6 11.3-6.16 14.49m21.97 4.63a56.84 56.84 0 0 0 4.65 6c.82.75 1.68 2.71.94 4M206 157.19c-1.47 1.71-6.86 10.33-9.13 11.28m-8.81-9.81c-1.32 1.68-1.84 4.11-.6 5.75a30.59 30.59 0 0 1 3.47 5.57m23.89-2.26c-1.76 1.43-5.23 2.55-6.14 3.79m2.39.24a30.88 30.88 0 0 1-5.46 2.46m-86.84-46.61a111.25 111.25 0 0 1-.92 11.75m41.83-38.74c.24 2.34 1.33 11.21.59 12.19s-1.43-.24-2.16-1-1.36-3-2.18-3.59m3.13-11.99c-.82.79.05 3.49-1.19 4.19s-1.27.83-2.64.47M160.76 59c.82 4 1.63 11.36 1.16 14.65M142.52 127c-5.75-4-24.41-16.14-30-17.54m9.6 22.73c.22 2.24 3.59 7.08 5.06 9.61m24.56-10.74a70.4 70.4 0 0 1-10 .85m6.12-70.59c-1.75 2.56-4.5 5.46-6.12 6.12"/></svg>