<svg xmlns="http://www.w3.org/2000/svg" viewBox="0 0 27.02 9.97"><title>アセット 8</title><g id="レイヤー_2" data-name="レイヤー 2"><g id="情報"><path d="M6.12,3.48C7.1,2.31,8.49,1,9.88,1a1.72,1.72,0,0,1,1.94,1.8c0,2.47-2.25,5.1-4.56,5.1-1.19,0-1.89-.52-1.89-.85a.48.48,0,0,1,.46-.48.64.64,0,0,1,.39.16,1.7,1.7,0,0,0,1,.31c1.65,0,3.48-2.3,3.48-4.25a.81.81,0,0,0-.86-.92c-1,0-2.4,1.29-3.43,2.52A9.7,9.7,0,0,0,5,6.52c-.41.82-.94,2-1.19,2.59S3.33,10,3,10a.48.48,0,0,1-.51-.52,5.27,5.27,0,0,1,.92-1.94c.17-.32.71-1.43,1.06-2.35A7.2,7.2,0,0,0,5.13,2.9a1.09,1.09,0,0,0-.33-.85c-.47,1.59-2,3.36-3.33,3.36A1.3,1.3,0,0,1,0,4C0,2.57,2.05,1.12,3.91,1A1.28,1.28,0,0,0,3.82.56.29.29,0,0,1,3.75.38.44.44,0,0,1,4.21,0C4.6,0,5,.38,5,1.12v0a1.76,1.76,0,0,1,1.22,1.7A4,4,0,0,1,6.12,3.48ZM3.81,1.8C2.45,1.91,1,3,1,4.07a.45.45,0,0,0,.47.5C2.41,4.57,3.48,3.07,3.81,1.8Z"/><path d="M16,7.22a.38.38,0,0,1,.41.35.36.36,0,0,1-.07.22,3.94,3.94,0,0,1-3.42,2c-1.3,0-2-.55-2-1.56a3.31,3.31,0,0,1,3-3.15c.84,0,1.32.34,1.32.94,0,.85-1.37,1.66-3.19,1.93a2,2,0,0,0,0,.25c0,.55.44.85,1,.85a2.87,2.87,0,0,0,2.48-1.39C15.62,7.38,15.75,7.22,16,7.22Zm-3.79,0c1.17-.24,1.95-.74,1.95-1.27,0-.14-.13-.22-.31-.22A2.2,2.2,0,0,0,12.17,7.19Z"/><path d="M15.82,8.18a.36.36,0,0,1-.34-.57,17.83,17.83,0,0,0,1.28-2.34V5.12a1.19,1.19,0,0,1,.89-1.28.46.46,0,0,1,.52.46,2.11,2.11,0,0,1-.33.85c.47.27,1.11.48,1.11,1,0,.73-1,1.55-1,2.45,0,.26.11.4.3.4.45,0,1-.63,1.52-1.4.14-.23.28-.39.48-.39a.38.38,0,0,1,.41.35.39.39,0,0,1-.06.22c-.68,1-1.55,2-2.48,2A1.07,1.07,0,0,1,17,8.61c0-.86.95-1.83.95-2.43,0-.22-.22-.34-.45-.46A23.8,23.8,0,0,1,16.3,7.79C16.16,8,16,8.18,15.82,8.18Z"/><path d="M26.35,8.65a.45.45,0,0,1,.38-.27.28.28,0,0,1,.29.28A1.41,1.41,0,0,1,25.7,9.74a1.06,1.06,0,0,1-1.17-1.13c0-.9,1-2,1-2.69,0-.1-.08-.17-.21-.17-.36,0-.92.64-1.3,1.15a9.13,9.13,0,0,0-1.16,2.34c-.08.24-.19.5-.57.5a.38.38,0,0,1-.41-.4,1.15,1.15,0,0,1,.06-.29c.25-.69.64-1.78.9-2.52A3.07,3.07,0,0,0,23,6a.18.18,0,0,0-.2-.2c-.38,0-1,.65-1.41,1.17a7.68,7.68,0,0,0-1.23,2.39.52.52,0,0,1-.52.43.38.38,0,0,1-.41-.41.88.88,0,0,1,0-.27c.38-1.18.9-2.5,1.32-3.5a.67.67,0,0,1,.62-.48.4.4,0,0,1,.44.39.91.91,0,0,1-.15.37l-.13.31C21.93,5.48,22.47,5,23,5a.84.84,0,0,1,1,.91.83.83,0,0,1,0,.22C24.48,5.49,25,5,25.51,5a.92.92,0,0,1,1,.93c0,.9-1,1.84-1,2.73,0,.24.11.39.28.39S26.19,8.89,26.35,8.65Z"/></g></g></svg>