<svg xmlns="http://www.w3.org/2000/svg" viewBox="0 0 67.8 12.68"><title>アセット 9</title><g id="レイヤー_2" data-name="レイヤー 2"><g id="情報"><path d="M3.54,9.06A1.93,1.93,0,0,0,5.6,7.15C5.6,5.71,4,5,4,3.39A2.6,2.6,0,0,1,6.79,1a2.9,2.9,0,0,1,.91.13A3.13,3.13,0,0,1,9.12.64c.25,0,.42.12.42.34s-.09.31-.47.41a3.42,3.42,0,0,0-.53.19,1.59,1.59,0,0,1,.53,1.17A1.68,1.68,0,0,1,7.49,4.47,1.21,1.21,0,0,1,6.18,3.25,2.18,2.18,0,0,1,6.8,1.86h0a1.54,1.54,0,0,0-1.6,1.43c0,1.34,1.6,2.1,1.6,3.74a3.06,3.06,0,0,1-3.23,2.9A3.28,3.28,0,0,1,0,6.53c0-.53.25-.79.55-.79a1.42,1.42,0,0,1,.87.38A5.23,5.23,0,0,0,3.49,7a.4.4,0,0,1,.39.43.42.42,0,0,1-.49.36A5.82,5.82,0,0,1,1.18,7C1.09,7,1,7,1,7.08A2.48,2.48,0,0,0,3.54,9.06Zm4.22-7a1.54,1.54,0,0,0-.63,1.15c0,.27.13.44.38.44s.59-.43.59-.94A.75.75,0,0,0,7.76,2.1Z"/><path d="M11.12,7.22a.38.38,0,0,1,.41.35.36.36,0,0,1-.07.22c-.67,1-1.56,2-2.51,2A1.15,1.15,0,0,1,7.65,8.5a8.39,8.39,0,0,1,.89-2.82H8.2c-.25,0-.4-.1-.4-.33S8,5,8.2,5h.63l.58-1.11c.36-.71.67-.94.9-.94a.4.4,0,0,1,.45.39,2.5,2.5,0,0,1-.43.89L9.94,5h.48c.24,0,.38.13.38.3s-.15.35-.38.35H9.63a8.64,8.64,0,0,0-1,2.9c0,.36.17.51.42.51.46,0,1.05-.71,1.55-1.48C10.78,7.38,10.91,7.22,11.12,7.22Z"/><path d="M11,8.18a.36.36,0,0,1-.34-.57,17.83,17.83,0,0,0,1.28-2.34V5.12a1.19,1.19,0,0,1,.89-1.28.46.46,0,0,1,.52.46,2.11,2.11,0,0,1-.33.85c.48.27,1.11.48,1.11,1,0,.73-1,1.55-1,2.45,0,.26.1.4.29.4.45,0,1-.63,1.52-1.4.14-.23.28-.39.48-.39a.38.38,0,0,1,.41.35.39.39,0,0,1-.06.22c-.68,1-1.54,2-2.48,2a1.07,1.07,0,0,1-1.17-1.13c0-.86.95-1.83.95-2.43,0-.22-.22-.34-.45-.46a23.8,23.8,0,0,1-1.18,2.07C11.32,8,11.19,8.18,11,8.18Z"/><path d="M18,5a1,1,0,0,1,1,.56.84.84,0,0,1,.7-.56c.27,0,.42.15.42.37a2.43,2.43,0,0,1-.45.93,6.53,6.53,0,0,0-.75,2.26c0,.34.14.5.32.5.46,0,1-.71,1.54-1.48.14-.23.28-.39.49-.39a.37.37,0,0,1,.4.35.43.43,0,0,1-.06.22c-.67,1-1.55,2-2.5,2a1.12,1.12,0,0,1-1.2-1,2.33,2.33,0,0,1-1.65,1,1.32,1.32,0,0,1-1.43-1.41A3.54,3.54,0,0,1,18,5ZM16.51,9C17,9,17.4,8.57,17.82,8a9.13,9.13,0,0,0,.88-1.7.62.62,0,0,0-.7-.53c-.86,0-2,1.4-2,2.65C16,8.81,16.21,9,16.51,9Z"/><path d="M21.88,9.74a1.13,1.13,0,0,1-1.26-1.23A6.54,6.54,0,0,1,21.46,6c.37-.71.65-.93.94-.93a.37.37,0,0,1,.41.37,3,3,0,0,1-.56,1.16,5,5,0,0,0-.61,2c0,.39.16.55.37.55.46,0,1.06-.71,1.55-1.48.14-.23.28-.39.49-.39a.37.37,0,0,1,.4.35.43.43,0,0,1-.06.22C23.72,8.82,22.82,9.74,21.88,9.74ZM23.2,3.28a.5.5,0,0,1,.56.51.75.75,0,0,1-.76.72A.53.53,0,0,1,22.42,4,.77.77,0,0,1,23.2,3.28Z"/><path d="M29.51,7.22a.38.38,0,0,1,.41.35.36.36,0,0,1-.07.22,5.82,5.82,0,0,1-3,2.49c-.58,1.38-1.5,2.4-2.58,2.4-.72,0-1.31-.38-1.31-1,0-1,1.09-1.29,3.05-1.85.12-.33.22-.62.29-.87a2.1,2.1,0,0,1-1.45.74,1.3,1.3,0,0,1-1.43-1.37A3.58,3.58,0,0,1,26.61,5a1,1,0,0,1,1,.56.84.84,0,0,1,.7-.56c.27,0,.42.15.42.37a2.85,2.85,0,0,1-.5,1C28,7,27.68,8,27.49,8.56l-.29.81A5.5,5.5,0,0,0,29,7.61C29.17,7.38,29.3,7.22,29.51,7.22Zm-3.77,3.37c-1.14.33-1.8.61-1.8,1.13a.32.32,0,0,0,.36.33C24.75,12.05,25.32,11.49,25.74,10.59ZM26.41,8a9.13,9.13,0,0,0,.88-1.7.62.62,0,0,0-.7-.53c-.86,0-2,1.43-2,2.7,0,.42.21.61.52.61S26,8.57,26.41,8Z"/><path d="M32.65,9.74a1.06,1.06,0,0,1-1.17-1.13c0-.9,1-2,1-2.69,0-.1-.07-.17-.21-.17-.47,0-1.18.73-1.68,1.32A7.42,7.42,0,0,0,29.4,9.31a.5.5,0,0,1-.51.43.39.39,0,0,1-.42-.41.88.88,0,0,1,0-.27C29.18,7,30.15,4.72,30.89,3a.71.71,0,0,1,.65-.5.4.4,0,0,1,.45.39A2.84,2.84,0,0,1,31.47,4l-.95,2.31A3.27,3.27,0,0,1,32.46,5a1,1,0,0,1,1,.93c0,.9-1,1.84-1,2.73,0,.25.12.4.3.4.46,0,1.06-.71,1.55-1.48.14-.23.28-.39.48-.39a.38.38,0,0,1,.41.35.43.43,0,0,1-.06.22C34.49,8.82,33.59,9.74,32.65,9.74Z"/><path d="M36.15,8.65a.45.45,0,0,1,.38-.27.28.28,0,0,1,.29.28,1.45,1.45,0,0,1-1.38,1.08A1.16,1.16,0,0,1,34.13,8.5,8.62,8.62,0,0,1,35,5.68h-.34c-.24,0-.39-.1-.39-.33s.15-.32.39-.32h.64l.57-1.11c.37-.71.67-.94.9-.94s.46.15.46.39a2.5,2.5,0,0,1-.43.89L36.43,5h.47c.25,0,.39.13.39.3s-.15.35-.39.35h-.79a8.82,8.82,0,0,0-1,2.9c0,.35.16.5.39.5A.82.82,0,0,0,36.15,8.65Z"/><path d="M46.9,3.48C47.88,2.31,49.28,1,50.67,1a1.72,1.72,0,0,1,1.93,1.8c0,2.47-2.24,5.1-4.55,5.1-1.19,0-1.89-.52-1.89-.85a.48.48,0,0,1,.46-.48.59.59,0,0,1,.38.16A1.72,1.72,0,0,0,48,7c1.65,0,3.49-2.3,3.49-4.25a.81.81,0,0,0-.87-.92c-1,0-2.4,1.29-3.42,2.52a9.73,9.73,0,0,0-1.39,2.14c-.4.82-.93,2-1.18,2.59s-.51.86-.81.86a.47.47,0,0,1-.5-.52,5.27,5.27,0,0,1,.92-1.94c.17-.32.71-1.43,1.06-2.35a7.4,7.4,0,0,0,.61-2.26,1.09,1.09,0,0,0-.33-.85c-.46,1.59-2,3.36-3.32,3.36A1.3,1.3,0,0,1,40.79,4c0-1.46,2-2.91,3.9-3A1,1,0,0,0,44.6.56a.35.35,0,0,1-.06-.18A.44.44,0,0,1,45,0c.39,0,.74.38.74,1.12v0A1.76,1.76,0,0,1,47,2.87,3,3,0,0,1,46.9,3.48ZM44.59,1.8c-1.35.11-2.76,1.18-2.76,2.27a.45.45,0,0,0,.46.5C43.2,4.57,44.26,3.07,44.59,1.8Z"/><path d="M56.75,7.22a.38.38,0,0,1,.41.35.44.44,0,0,1-.07.22,3.94,3.94,0,0,1-3.42,2c-1.3,0-2-.55-2-1.56a3.32,3.32,0,0,1,3-3.15C55.48,5,56,5.37,56,6c0,.85-1.38,1.66-3.19,1.93a2,2,0,0,0,0,.25c0,.55.44.85,1,.85a2.86,2.86,0,0,0,2.47-1.39C56.41,7.38,56.54,7.22,56.75,7.22Zm-3.8,0c1.18-.24,2-.74,2-1.27,0-.14-.13-.22-.32-.22A2.2,2.2,0,0,0,53,7.19Z"/><path d="M56.6,8.18a.37.37,0,0,1-.4-.35.46.46,0,0,1,.06-.22,16.72,16.72,0,0,0,1.29-2.34V5.12a1.19,1.19,0,0,1,.89-1.28A.46.46,0,0,1,59,4.3a2.11,2.11,0,0,1-.33.85c.47.27,1.11.48,1.11,1,0,.73-1,1.55-1,2.45,0,.26.11.4.3.4.45,0,1-.63,1.52-1.4.14-.23.27-.39.48-.39a.38.38,0,0,1,.41.35.34.34,0,0,1-.07.22c-.67,1-1.54,2-2.47,2a1.06,1.06,0,0,1-1.17-1.13c0-.86.95-1.83.95-2.43,0-.22-.22-.34-.45-.46-.35.68-.72,1.34-1.18,2.07C57,8,56.81,8.18,56.6,8.18Z"/><path d="M67.13,8.65a.46.46,0,0,1,.39-.27.27.27,0,0,1,.28.28,1.4,1.4,0,0,1-1.32,1.08,1.06,1.06,0,0,1-1.16-1.13c0-.9,1-2,1-2.69,0-.1-.08-.17-.21-.17-.36,0-.92.64-1.3,1.15a8.81,8.81,0,0,0-1.16,2.34c-.08.24-.19.5-.58.5a.38.38,0,0,1-.4-.4,1.15,1.15,0,0,1,.06-.29c.24-.69.64-1.78.89-2.52A2.58,2.58,0,0,0,63.77,6a.18.18,0,0,0-.2-.2c-.39,0-1,.65-1.41,1.17a7.68,7.68,0,0,0-1.23,2.39.52.52,0,0,1-.52.43A.39.39,0,0,1,60,9.33a.68.68,0,0,1,0-.27c.38-1.18.9-2.5,1.32-3.5A.66.66,0,0,1,62,5.08a.39.39,0,0,1,.44.39.86.86,0,0,1-.14.37l-.13.31C62.72,5.48,63.26,5,63.78,5a.83.83,0,0,1,1,.91,1.64,1.64,0,0,1,0,.22C65.26,5.49,65.79,5,66.3,5a.92.92,0,0,1,1,.93c0,.9-1,1.84-1,2.73,0,.24.11.39.27.39S67,8.89,67.13,8.65Z"/></g></g></svg>