<svg xmlns="http://www.w3.org/2000/svg" viewBox="0 0 60.75 63.81"><path d="M26.46 23.94c0 2.34-1.62 3.69-4.5 3.69-2.61 0-5.31-1.89-5.31-6.21C16.65 9.72 30.69 0 43.47 0c11.88 0 17.28 6.12 17.28 14 0 15.84-20.52 32.67-37.89 42.21a64.49 64.49 0 0 0 12.24 1.3c7 0 10.35-2.79 11.43-4 1.62-1.8 2.79-3.33 5.22-3.33a2.79 2.79 0 0 1 3.06 2.88c0 2.79-5.58 10.71-20 10.71-7.11 0-16.56-2-22-2.79a20.28 20.28 0 0 1-8 2.07C1.71 63.09 0 61.92 0 59.58s4.14-4.95 11.25-4.95a22.07 22.07 0 0 1 2.43.18C28.26 47.07 51.21 30 51.21 13.86c0-4.68-2.52-7.56-8.28-7.56-8 0-16.74 7-16.74 14.94 0 1.53.27 1.89.27 2.7z"/></svg>