<svg xmlns="http://www.w3.org/2000/svg" viewBox="0 0 42.47 11.97"><path d="M5.61 3a1.69 1.69 0 0 1-.19-.8c0-1 1.21-1.93 2.83-1.93a3.47 3.47 0 0 1 3.06 1.51 1.64 1.64 0 0 0 .29-.93V.5c0-.29.28-.5.64-.5s.5.24.5.75a2.93 2.93 0 0 1-.94 2.06 4.89 4.89 0 0 1 .15 1.26A5.3 5.3 0 0 1 6.8 9.36a6.17 6.17 0 0 1-3.17-.93 3.1 3.1 0 0 1-2.1.92C.64 9.35 0 8.91 0 8.25S.81 7 1.8 7a3.88 3.88 0 0 1 1.59.33A18.85 18.85 0 0 0 5.61 3zM2.76 8a2.57 2.57 0 0 0-1-.2c-.42 0-.74.2-.74.45s.17.3.49.3A1.81 1.81 0 0 0 2.76 8zm3.63-4.27a16.71 16.71 0 0 1-2.13 4 5.17 5.17 0 0 0 2.54.77 4.33 4.33 0 0 0 4-4.43 4.93 4.93 0 0 0 0-.57 5.64 5.64 0 0 1-2.58.59 4 4 0 0 1-1.83-.36zm4.16-1.19A2.38 2.38 0 0 0 8.25 1c-1 0-1.67.53-1.67 1.16s.67 1 1.64 1a4.06 4.06 0 0 0 2.33-.62zm2.02 4.93a.37.37 0 0 1-.4-.35.4.4 0 0 1 .06-.22 18.65 18.65 0 0 0 1.29-2.35V4.4a1.2 1.2 0 0 1 .89-1.28.47.47 0 0 1 .52.47 2.09 2.09 0 0 1-.33.84c.47.28 1.11.49 1.11 1 0 .72-1 1.55-1 2.45 0 .25.11.39.3.39.45 0 1-.62 1.52-1.39.14-.23.27-.4.48-.4a.38.38 0 0 1 .41.35.32.32 0 0 1-.07.22C16.71 8.11 15.84 9 14.9 9a1.06 1.06 0 0 1-1.16-1.1c0-.87.94-1.84.94-2.43 0-.22-.22-.34-.45-.46a22.11 22.11 0 0 1-1.17 2.06c-.15.23-.28.4-.49.4z"/><path d="M21.58 6.5a.39.39 0 0 1 .41.35.34.34 0 0 1-.07.22A3.94 3.94 0 0 1 18.5 9c-1.3 0-2-.55-2-1.55a3.32 3.32 0 0 1 3-3.16c.84 0 1.32.34 1.32 1 0 .85-1.37 1.66-3.19 1.92a2.17 2.17 0 0 0 0 .26c0 .55.44.84 1 .84A2.86 2.86 0 0 0 21.1 6.9c.14-.23.27-.4.48-.4zm-3.79 0c1.17-.24 1.95-.75 1.95-1.28 0-.14-.13-.22-.31-.22a2.22 2.22 0 0 0-1.64 1.48z"/><path d="M22.42 9c-1.2 0-1.83-.56-1.83-1.2a2.21 2.21 0 0 1 .46-.92 16.5 16.5 0 0 0 1.24-2.32v-.14c0-.72.47-1.23.88-1.23s.57.2.57.47a2.84 2.84 0 0 1-.45 1c.25.79 1 1.64 1 2.64a1.4 1.4 0 0 1-.18.67 4.41 4.41 0 0 0 1.08-1.07c.14-.23.27-.4.48-.4a.39.39 0 0 1 .41.35.34.34 0 0 1-.07.22A4.45 4.45 0 0 1 22.42 9zm.29-3.38a13.18 13.18 0 0 1-.83 1.43 1.26 1.26 0 0 0-.27.68.71.71 0 0 0 .76.59.89.89 0 0 0 .89-1 3.91 3.91 0 0 0-.55-1.68z"/><path d="M26.5 9c-1.2 0-1.83-.56-1.83-1.2a2.21 2.21 0 0 1 .46-.92 15.52 15.52 0 0 0 1.24-2.32v-.14c0-.72.47-1.23.88-1.23s.57.2.57.47a2.84 2.84 0 0 1-.45 1c.25.79 1 1.64 1 2.64a1.4 1.4 0 0 1-.17.7 4.41 4.41 0 0 0 1.07-1.1c.14-.23.28-.4.48-.4a.38.38 0 0 1 .41.35.4.4 0 0 1-.06.22A4.47 4.47 0 0 1 26.5 9zm.3-3.38a15.2 15.2 0 0 1-.8 1.45 1.22 1.22 0 0 0-.26.68.71.71 0 0 0 .75.59.9.9 0 0 0 .9-1 4 4 0 0 0-.59-1.7z"/><path d="M30.34 9a1.13 1.13 0 0 1-1.26-1.2 6.49 6.49 0 0 1 .84-2.55c.37-.72.65-.94.93-.94a.38.38 0 0 1 .42.38 3 3 0 0 1-.56 1.15 5 5 0 0 0-.61 2c0 .4.16.55.37.55.46 0 1.06-.7 1.55-1.47.14-.23.28-.4.48-.4a.39.39 0 0 1 .41.35.4.4 0 0 1-.06.22C32.17 8.11 31.28 9 30.34 9zm1.32-6.46a.5.5 0 0 1 .56.52.75.75 0 0 1-.76.71.52.52 0 0 1-.58-.53.77.77 0 0 1 .78-.68z"/><path d="M35.65 9a1.06 1.06 0 0 1-1.17-1.1c0-.9 1-2 1-2.7 0-.11-.08-.16-.21-.16-.48 0-1.19.72-1.69 1.32a7.25 7.25 0 0 0-1.18 2.23.52.52 0 0 1-.52.43.39.39 0 0 1-.42-.41.82.82 0 0 1 0-.26c.39-1.19.91-2.51 1.32-3.51a.67.67 0 0 1 .62-.47c.28 0 .44.16.44.38a.94.94 0 0 1-.14.38l-.16.37a3.15 3.15 0 0 1 1.88-1.19.94.94 0 0 1 1 .94c0 .9-1 1.83-1 2.73 0 .25.12.39.29.39.46 0 1.06-.7 1.55-1.47.15-.23.28-.4.49-.4a.39.39 0 0 1 .41.35.41.41 0 0 1-.07.22C37.49 8.11 36.6 9 35.65 9z"/><path d="M40.06 8.28a2.06 2.06 0 0 1-1.45.72 1.3 1.3 0 0 1-1.43-1.36 3.59 3.59 0 0 1 3.17-3.35 1.07 1.07 0 0 1 1 .56.84.84 0 0 1 .7-.56.37.37 0 0 1 .42.38 2.76 2.76 0 0 1-.51 1c-.26.61-.54 1.58-.73 2.12l-.45 1.31C40.23 10.76 39.2 12 38 12s-1.49-.63-1.49-.94a.4.4 0 0 1 .45-.41.44.44 0 0 1 .44.29.61.61 0 0 0 .6.39c.52 0 1.18-.66 1.6-1.71.21-.55.4-.97.46-1.34zm1-2.75c0-.33-.29-.52-.7-.52-.86 0-2 1.43-2 2.69 0 .43.21.62.52.62s.89-.47 1.31-1.08A9.21 9.21 0 0 0 41 5.53z"/></svg>