<svg xmlns="http://www.w3.org/2000/svg" viewBox="0 0 52.21 9.97"><title>アセット 13</title><g id="レイヤー_2" data-name="レイヤー 2"><g id="情報"><path d="M7.48,7.63l.29.46a1.73,1.73,0,0,0,1.39,1,2.86,2.86,0,0,0,2-1.5c.15-.23.28-.39.49-.39a.38.38,0,0,1,.41.35.44.44,0,0,1-.07.22C11.2,9,10.17,10,9,10A2.69,2.69,0,0,1,6.73,8.31c-.11-.17-.2-.33-.28-.48a5.85,5.85,0,0,1-.59,0c-.72,0-1.12-.26-1.21-.58C4.33,8,4,8.69,3.84,9.11c-.3.65-.51.86-.8.86a.48.48,0,0,1-.51-.52,5.27,5.27,0,0,1,.92-1.94c.17-.32.71-1.43,1.06-2.35A7.2,7.2,0,0,0,5.13,2.9a1.09,1.09,0,0,0-.33-.85c-.47,1.59-2,3.36-3.33,3.36A1.3,1.3,0,0,1,0,4C0,2.57,2.05,1.12,3.91,1A1.28,1.28,0,0,0,3.82.56.29.29,0,0,1,3.75.38.44.44,0,0,1,4.21,0C4.6,0,5,.38,5,1.12v0a1.76,1.76,0,0,1,1.22,1.7,4.34,4.34,0,0,1,0,.63C7.13,2.31,8.61,1,10,1A1.72,1.72,0,0,1,12,2.8C12,4.86,9.9,7,7.48,7.63ZM3.81,1.8C2.45,1.91,1,3,1,4.07a.45.45,0,0,0,.47.5C2.41,4.57,3.48,3.07,3.81,1.8ZM5,6.62a1.38,1.38,0,0,1,.71-.17A1.62,1.62,0,0,1,7,6.94c1.88-.46,3.9-2.34,3.9-4.15A.81.81,0,0,0,10,1.86c-1,0-2.54,1.26-3.59,2.52A9.7,9.7,0,0,0,5,6.52Z"/><path d="M16.17,7.22a.38.38,0,0,1,.41.35.36.36,0,0,1-.07.22,3.94,3.94,0,0,1-3.42,2c-1.3,0-2-.55-2-1.56a3.32,3.32,0,0,1,3-3.15c.84,0,1.32.34,1.32.94,0,.85-1.38,1.66-3.19,1.93a2,2,0,0,0,0,.25c0,.55.44.85,1,.85a2.88,2.88,0,0,0,2.48-1.39C15.83,7.38,16,7.22,16.17,7.22Zm-3.8,0c1.18-.24,2-.74,2-1.27,0-.14-.13-.22-.32-.22A2.23,2.23,0,0,0,12.37,7.19Z"/><path d="M16.77,9.74A1.13,1.13,0,0,1,15.51,8.5c0-1.06,1.13-3.51,2-5.09.31-.59.67-.94.9-.94a.41.41,0,0,1,.44.41,10.08,10.08,0,0,1-1.34,2.73h0a8.89,8.89,0,0,0-.94,2.93c0,.36.17.54.39.54.46,0,1.06-.7,1.56-1.47.14-.23.27-.39.48-.39a.38.38,0,0,1,.41.35.36.36,0,0,1-.07.22C18.62,8.82,17.72,9.74,16.77,9.74Z"/><path d="M21.53,5a1,1,0,0,1,1,.56.84.84,0,0,1,.7-.56c.27,0,.42.15.42.37a2.43,2.43,0,0,1-.45.93,6.53,6.53,0,0,0-.75,2.26c0,.34.14.5.32.5.46,0,1-.71,1.54-1.48.14-.23.27-.39.48-.39a.38.38,0,0,1,.41.35.43.43,0,0,1-.06.22c-.68,1-1.56,2-2.5,2a1.12,1.12,0,0,1-1.2-1,2.35,2.35,0,0,1-1.65,1,1.32,1.32,0,0,1-1.43-1.41A3.54,3.54,0,0,1,21.53,5ZM20,9c.44,0,.89-.46,1.31-1.08a9.13,9.13,0,0,0,.88-1.7.63.63,0,0,0-.71-.53c-.85,0-2,1.4-2,2.65C19.5,8.81,19.72,9,20,9Z"/><path d="M26.78,5a.74.74,0,0,1,.71.34,4.39,4.39,0,0,1,.31,1.19C28.6,5.8,29.55,5,30,5c.25,0,.4.13.4.3s-.07.31-.32.45A12.35,12.35,0,0,0,28,7.55c.21,1.1.45,1.45.79,1.45.5,0,1.17-.64,1.64-1.39.15-.23.28-.39.49-.39a.37.37,0,0,1,.4.35.43.43,0,0,1-.06.22,3.67,3.67,0,0,1-2.63,2c-.71,0-1.2-.28-1.51-1.33A4.67,4.67,0,0,1,25,9.72c-.29,0-.46-.12-.46-.31a.38.38,0,0,1,.31-.36,6.45,6.45,0,0,0,2-1.59,1,1,0,0,1,0-.17C26.72,6.09,26.65,6,26.56,6S25.61,7,25.13,7.79c-.14.23-.27.39-.48.39a.38.38,0,0,1-.41-.35.47.47,0,0,1,.07-.22C25.18,6.27,26,5,26.78,5Z"/><path d="M33.45,5a1,1,0,0,1,1,.56A.84.84,0,0,1,35.16,5a.36.36,0,0,1,.41.37,2.43,2.43,0,0,1-.45.93,6.53,6.53,0,0,0-.75,2.26c0,.34.15.5.32.5.47,0,1.05-.71,1.54-1.48.15-.23.28-.39.49-.39a.37.37,0,0,1,.4.35.43.43,0,0,1-.06.22c-.67,1-1.55,2-2.5,2a1.12,1.12,0,0,1-1.2-1,2.31,2.31,0,0,1-1.65,1,1.32,1.32,0,0,1-1.43-1.41A3.54,3.54,0,0,1,33.45,5ZM31.94,9c.44,0,.89-.46,1.31-1.08a8.57,8.57,0,0,0,.88-1.7c0-.33-.28-.53-.7-.53-.86,0-2,1.4-2,2.65C31.43,8.81,31.65,9,31.94,9Z"/><path d="M39.54,7.22a.38.38,0,0,1,.41.35.43.43,0,0,1-.06.22c-.68,1-1.57,2-2.51,2A1.16,1.16,0,0,1,36.07,8.5,8.62,8.62,0,0,1,37,5.68h-.34c-.24,0-.4-.1-.4-.33s.16-.32.4-.32h.64l.57-1.11c.36-.71.67-.94.9-.94s.45.15.45.39a2.33,2.33,0,0,1-.43.89L38.37,5h.47c.24,0,.39.13.39.3s-.16.35-.39.35h-.79a8.64,8.64,0,0,0-1,2.9c0,.36.18.51.42.51.46,0,1.06-.71,1.55-1.48C39.2,7.38,39.34,7.22,39.54,7.22Z"/><path d="M40.14,9.74a1.13,1.13,0,0,1-1.26-1.23A6.54,6.54,0,0,1,39.72,6c.37-.71.65-.93.93-.93a.37.37,0,0,1,.42.37,3,3,0,0,1-.56,1.16,5,5,0,0,0-.61,2c0,.39.16.55.37.55.46,0,1.06-.71,1.55-1.48.14-.23.28-.39.49-.39a.38.38,0,0,1,.4.35.43.43,0,0,1-.06.22C42,8.82,41.08,9.74,40.14,9.74Zm1.32-6.46a.5.5,0,0,1,.56.51.76.76,0,0,1-.76.72A.53.53,0,0,1,40.68,4,.77.77,0,0,1,41.46,3.28Z"/><path d="M45.85,9.2a3.17,3.17,0,0,1-.73-.09,2.7,2.7,0,0,1-1.63.63,1.55,1.55,0,0,1-1.74-1.6,3.3,3.3,0,0,1,3-3.11c1.08,0,1.71.56,1.71,1.53a3.25,3.25,0,0,1-.77,2l.26,0a1.67,1.67,0,0,0,1.33-.94c.14-.23.27-.39.48-.39a.38.38,0,0,1,.41.35.36.36,0,0,1-.07.22A2.65,2.65,0,0,1,45.85,9.2ZM44.74,5.75C44,5.75,42.9,7,42.9,8.17c0,.56.32.84.71.84a1.31,1.31,0,0,0,.81-.34.27.27,0,0,1-.05-.16A.54.54,0,0,1,44.93,8a2.93,2.93,0,0,0,.43-1.49C45.36,6,45.11,5.75,44.74,5.75Z"/><path d="M51.53,8.65a.47.47,0,0,1,.39-.27.28.28,0,0,1,.29.28,1.41,1.41,0,0,1-1.32,1.08,1.06,1.06,0,0,1-1.17-1.13c0-.9,1-2,1-2.69,0-.11-.08-.17-.21-.17-.47,0-1.19.73-1.68,1.32a7.21,7.21,0,0,0-1.19,2.24.52.52,0,0,1-.52.43.39.39,0,0,1-.42-.41.91.91,0,0,1,0-.27c.38-1.18.9-2.5,1.32-3.5a.66.66,0,0,1,.61-.48.39.39,0,0,1,.44.39.86.86,0,0,1-.14.37l-.15.38A3.12,3.12,0,0,1,50.71,5a.93.93,0,0,1,1,.93c0,.9-1,1.84-1,2.73,0,.24.11.39.28.39S51.38,8.89,51.53,8.65Z"/></g></g></svg>