<svg xmlns="http://www.w3.org/2000/svg" viewBox="0 0 135.73 219.55"><defs><style>.cls-1,.cls-2{fill:none;stroke:#000;stroke-linecap:round;stroke-linejoin:round;}.cls-1{stroke-width:1.4px;}.cls-2{stroke-width:0.5px;}</style></defs><title>アセット 2</title><g id="レイヤー_2" data-name="レイヤー 2"><g id="情報"><path class="cls-1" d="M37.63.7c0,43-51.8,109.78-29,158.16"/><path class="cls-1" d="M41.31,31.76c-.7,25-6.77,114.59-8.17,130.92s.67,46.83,16,56.17"/><path class="cls-1" d="M110.62,66.07c-11,38.27-20.56,54-30.18,67.91-19.76,28.49-.52,68.14-7.52,74.21"/><path class="cls-2" d="M69.55,76.3c-6.77,31.07-13.34,57.38-17.27,73.55C49,163.27,49,204.93,53.44,217.76"/><path class="cls-2" d="M109.38.7c-4.79,45.47-39.6,127.91-42.63,139.11s-7.94,42.24,0,68.38"/><path class="cls-1" d="M.7,182.72C4.18,174.8,6.47,164,7.6,161.35s1.64-4.75,3.51-7a52.75,52.75,0,0,0,7.46-12.76c1.64-4.59,2.65-5.29,3.27-6s.83-8.31,1.84-9.67,4.2-1.44,5.52.51,2.92,7.74,2.59,11.63-5.72,15.9-5.34,18.78c.15,1.17,1.4.54,2,.08a31.54,31.54,0,0,1,5.34-2.8"/><path class="cls-1" d="M76.28,141.3c4.66-.47,12.63-2.15,13.49.92s-1,4.67-2.64,5.6a88.28,88.28,0,0,1-10.58,3.76c-1.25.29-3.63,1-3.63,1"/><path class="cls-1" d="M85.71,148.47c3.49-.84,16.07-3.69,16.86,1,.54,3.24-1,5-5.72,6.85-4,1.53-8.47,1.81-9,2.15a115.1,115.1,0,0,1-10.9,4.15c-1.78.81-4.57,2.64-5.72,3.07"/><path class="cls-1" d="M71.22,166.06c4.82-1.43,12.2-2.75,14.69-3.41s7.09-2.34,10.17-3c2.72-.55,5.75-1.39,7,.63s.7,5.63-3.58,7.89a62.2,62.2,0,0,1-9.8,4.21c-1.36.43-8.61,3.44-10.83,4a44.38,44.38,0,0,0-7.06,2.4"/><path class="cls-1" d="M72.31,184.34c3.31-.89,5-1.67,7.34-2.41s4.9-1.55,7.15-2.32,6.25-1.07,7.09.51.25,4.88-3.77,6.73-7.83,3.32-9.46,3.92-5.51,2.27-7,2.93"/><path class="cls-2" d="M27,159.68c1.68.36,5,1.54,6.14,3"/><path class="cls-2" d="M33.36,185.09c-1.38,3-5.5,10-9.66,12.66"/><path class="cls-2" d="M11,164.28c4.63-1.49,12.23-3.62,14.15-3.62"/><path class="cls-2" d="M27.13,139.12c1.79.78,2.5,1.69,3.64,3.44"/><path class="cls-1" d="M130.85.7c.15,28.18-2.18,51.87,1.4,80.24s7.71,58.18-15.52,86.82"/><path class="cls-2" d="M125.71,50.66c.62,27.08,10.11,90.91-8.09,111.81"/><path class="cls-2" d="M118.87,44.91c.31,25.51,1.71,108.59-11.52,124.62"/><path class="cls-1" d="M31.79,51.27C29,88.78,13.16,125.18,16.53,146.06"/><path class="cls-2" d="M63.79,2.28C61.3,32.15,56,95.78,52.43,114.92s-8.71,57.72-6.07,77"/><path class="cls-2" d="M109.38,84.23c-1.09,26.32-2.35,68.09-6.27,76.08"/><path class="cls-1" d="M97.55,169.21c-2.26,3.09-6.47,7.89-9.78,10.12"/><path class="cls-1" d="M99.53,98.91c-2.29,22.08-3.85,39.46-6.18,47.57"/><path class="cls-1" d="M82.52,175.16a28.37,28.37,0,0,1-7.61,8.41"/><path class="cls-2" d="M49.16,72c-1.08,24.11-6,66-8.19,81.68s-.67,45.59,6.64,58.19"/><path class="cls-2" d="M30.07,91.12c-1.75,14.47-2.79,27-4.92,33.93"/><path class="cls-2" d="M19.91,82.56c-7,25.51-14.87,48.69-8.06,70.84"/></g></g></svg>